<svg width="120" height="120" viewBox="0 0 120 120" fill="none" xmlns="http://www.w3.org/2000/svg">
<path fill-rule="evenodd" clip-rule="evenodd" d="M37.0049 38.9376L35.507 14.9708C35.5118 14.4171 35.6554 13.8346 36.065 13.2879C38.4953 12.4717 41.2926 12 44.5069 12C47.0998 12 49.4087 12.3684 51.4625 13.0266C51.932 13.6151 52.0555 14.2706 52.0098 14.9232L50.0103 38.971C50.008 38.9448 50.0068 38.9725 50.0068 39H37.0069C37.0069 38.9793 37.0062 38.9585 37.0049 38.9376ZM35.0049 39H31.0069C30.4546 39 30.0069 39.4477 30.0069 40C30.0069 40.5523 30.4546 41 31.0069 41H69.0069C69.3468 41 69.8791 41.1102 70.2976 41.4115C70.6651 41.6761 71.0069 42.1259 71.0069 43C71.0069 43.8741 70.6651 44.3239 70.2976 44.5885C69.8791 44.8898 69.3468 45 69.0069 45H19.0069C18.6669 45 18.1347 44.8898 17.7162 44.5885C17.3487 44.3239 17.0069 43.8741 17.0069 43C17.0069 42.1259 17.3487 41.6761 17.7162 41.4115C18.1347 41.1102 18.6669 41 19.0069 41H27.0069C27.5592 41 28.0069 40.5523 28.0069 40C28.0069 39.4477 27.5592 39 27.0069 39H21.0069V34.5215C21.1709 30.7656 22.5485 25.1117 26.127 20.4189C27.9627 18.0116 30.3863 15.8436 33.5532 14.3107C33.5217 14.5415 33.5069 14.7719 33.5069 15V15.0312L35.0049 39ZM34.9063 11.5739C30.3542 13.22 26.9764 16.0067 24.5367 19.2061C20.6552 24.2962 19.1813 30.38 19.0078 34.4575L19.0069 34.4787V39C18.3468 39 17.3791 39.1898 16.5476 39.7885C15.6651 40.4239 15.0069 41.4741 15.0069 43C15.0069 44.5259 15.6651 45.5761 16.5476 46.2115C17.3791 46.8102 18.3468 47 19.0069 47H21.5069V49.9206C20.4245 49.9094 19.1408 50.0964 17.9895 50.6844C17.1738 51.1011 16.4149 51.7252 15.8646 52.6252C15.3141 53.5256 15.0069 54.6456 15.0069 56C15.0069 58.7609 16.2802 60.5624 17.8909 61.6328C19.0657 62.4136 20.3967 62.7946 21.5069 62.9345V66.9098C21.5069 67.0243 21.516 67.1478 21.5423 67.2803C22.1754 70.4807 25.5057 75.4218 33.5437 77.7303C33.5197 77.8161 33.5069 77.9065 33.5069 78C33.5069 78.8439 33.1067 79.6774 32.4912 80.4314C31.8856 81.1731 31.1416 81.7496 30.6237 82.065L26.7643 83.0298L26.757 83.0317C13.8176 86.3709 10.8354 96.6538 11.0069 101.518V107C11.0069 108.388 11.3964 109.403 12.0231 110.079C12.6359 110.741 13.4053 111 14.0069 111L71.0069 111H106.558C107.984 111 108.698 109.277 107.69 108.269L73.7382 74.3172C72.7303 73.3092 71.0069 74.0231 71.0069 75.4485V85V87.5768C70.7864 87.4133 70.5461 87.2468 70.2913 87.079C69.2626 86.4013 67.9125 85.6473 66.4541 84.9181C63.5537 83.4679 60.0928 82.0503 57.7238 81.5238C56.1471 81.1734 55.3441 80.4759 54.9331 79.8429C54.5034 79.1811 54.4452 78.503 54.4968 78.1414C54.531 77.9024 54.4776 77.6711 54.361 77.4798C61.8788 75.0895 65.1959 70.4095 65.9525 67.3462C65.9926 67.1838 66.0069 67.0303 66.0069 66.8878V62.9345C67.117 62.7946 68.448 62.4136 69.6229 61.6328C71.2335 60.5624 72.5069 58.7609 72.5069 56C72.5069 54.6456 72.1996 53.5256 71.6491 52.6252C71.0988 51.7252 70.3399 51.1011 69.5242 50.6844C68.373 50.0964 67.0893 49.9094 66.0069 49.9206V47H69.0069C69.6669 47 70.6347 46.8102 71.4662 46.2115C72.3487 45.5761 73.0069 44.5259 73.0069 43C73.0069 41.4741 72.3487 40.4239 71.4662 39.7885C70.6347 39.1898 69.6669 39 69.0069 39C69.0069 34.2047 67.8064 27.0125 64.1627 20.9828C61.621 16.7767 57.884 13.1357 52.5775 11.2897C52.4056 11.1257 52.2157 10.9673 52.0066 10.8156C50.4339 9.67452 47.8886 9 44.0069 9C40.1171 9 37.5106 9.67764 35.8488 10.7952C35.4877 11.038 35.175 11.2992 34.9063 11.5739ZM74.5069 86H73.0069V90H74.5069C75.0591 90 75.5069 90.4477 75.5069 91C75.5069 91.5523 75.0591 92 74.5069 92H73.0069V96H74.5069C75.0591 96 75.5069 96.4477 75.5069 97C75.5069 97.5523 75.0591 98 74.5069 98H73.0069V102H74.5069C75.0591 102 75.5069 102.448 75.5069 103C75.5069 103.552 75.0591 104 74.5069 104H73.0069V109H105.593L73.0069 76.4142V84H74.5069C75.0591 84 75.5069 84.4477 75.5069 85C75.5069 85.5523 75.0591 86 74.5069 86ZM71.0069 90.366V91V97V103V109H47.862L58.683 102.075C59.3687 101.636 59.5368 100.707 59.0484 100.055L57.0258 97.3586L61.6106 95.0662C62.2823 94.7303 62.5694 93.9243 62.2612 93.2395L57.9402 83.6373C60.0539 84.2087 62.986 85.4201 65.5597 86.7069C66.9762 87.4152 68.2511 88.1299 69.1911 88.7492C69.6631 89.06 70.0297 89.3333 70.2827 89.5576C70.4566 89.7119 70.5312 89.804 70.5574 89.8363C70.5648 89.8455 70.5683 89.8498 70.5691 89.8493C70.5692 89.8493 70.5693 89.8489 70.5692 89.8483L70.5682 89.8449C70.6518 90.0728 70.8106 90.2528 71.0069 90.366ZM42.5079 109H44.5058L43.5138 87.1756L43.5069 87.1707L43.4999 87.1756L42.5079 109ZM45.5817 88.6231L46.285 104.097L49.6743 91.4434C49.5907 91.4138 49.5096 91.3726 49.4334 91.3193L45.5817 88.6231ZM40.8012 102.501L37.7705 91.1861L41.432 88.6231L40.8012 102.501ZM50.2149 89.425L45.2507 85.95L52.5061 80.8712L50.2149 89.425ZM51.4334 79.1808C51.7774 78.94 52.2203 78.9459 52.5521 79.1614C52.4763 78.7387 52.4657 78.3424 52.4996 78.0016C49.9411 78.6275 46.9602 79 43.5069 79C40.4752 79 37.8191 78.7126 35.5018 78.2183C35.4883 78.5126 35.4477 78.7982 35.3852 79.0741C35.4526 79.1018 35.5181 79.1372 35.5803 79.1808L43.5069 84.7294L51.4334 79.1808ZM37.2199 89.1303L41.7631 85.95L35.123 81.302L37.2199 89.1303ZM47.6401 106.767L54.2578 82.0616C54.8125 82.5291 55.5117 82.9298 56.3773 83.2227C56.0327 83.5015 55.9045 83.9871 56.0949 84.4104L60.201 93.5349L55.4883 95.8912C54.7071 96.2819 54.4704 97.2847 54.9944 97.9834L57.0606 100.738L47.6401 106.767ZM33.3578 82.4419L39.8736 106.767L30.4531 100.738L32.5193 97.9834C33.0434 97.2847 32.8067 96.2819 32.0254 95.8912L27.3128 93.5349L31.4188 84.4104C31.4986 84.2329 31.5225 84.0445 31.4978 83.865C31.5464 83.8412 31.5948 83.815 31.6428 83.786C32.1327 83.49 32.7562 83.0317 33.3578 82.4419ZM29.1923 84.4844L25.2525 93.2395C24.9444 93.9243 25.2314 94.7303 25.9031 95.0662L30.4879 97.3586L28.4654 100.055C27.9769 100.707 28.145 101.636 28.8307 102.075L39.6518 109H14.0069C13.9418 109 13.7111 108.959 13.4906 108.721C13.284 108.497 13.0069 108.012 13.0069 107V101.481L13.0062 101.463C12.8527 97.3198 15.4125 88.0266 27.2531 84.9692L27.2567 84.9683L29.1923 84.4844ZM68.5158 59.9672C67.7249 60.4928 66.8078 60.7836 66.0069 60.9142V51.9204C66.8385 51.9094 67.8031 52.0511 68.6145 52.4656C69.153 52.7406 69.6128 53.1289 69.9428 53.6685C70.2724 54.2077 70.5069 54.9544 70.5069 56C70.5069 58.0391 69.6136 59.2376 68.5158 59.9672ZM64.0069 62V53.3654C63.7532 53.705 63.5138 54.0011 63.2877 54.2572C62.6112 55.0233 61.914 55.596 61.1766 55.723C60.7573 55.7952 60.3396 55.7196 59.9827 55.4836C59.6501 55.2637 59.4455 54.9549 59.3189 54.6827C59.0729 54.1538 59.0069 53.5174 59.0069 53V47H29.0069V53C29.0069 53.5174 28.9408 54.1538 28.6948 54.6827C28.5682 54.9549 28.3637 55.2637 28.031 55.4836C27.6741 55.7196 27.2565 55.7952 26.8371 55.723C26.0997 55.596 25.4025 55.0233 24.726 54.2572C24.3566 53.8388 23.9517 53.3134 23.5069 52.666V62V66.9054C24.1296 70.0068 28.7761 77 43.5069 77C58.2074 77 63.219 70.0282 64.0069 66.8825V62ZM64.0069 47V49.7262C63.0873 51.2693 62.3565 52.2901 61.7885 52.9334C61.4909 53.2704 61.2555 53.4838 61.079 53.612L61.0647 53.6223C61.0305 53.4647 61.0069 53.2528 61.0069 53V47H64.0069ZM23.5069 49.1338C23.6519 49.2173 23.7779 49.3384 23.8688 49.493C24.8537 51.1673 25.6291 52.2583 26.2252 52.9334C26.5228 53.2704 26.7583 53.4838 26.9347 53.612L26.949 53.6223C26.9832 53.4647 27.0069 53.2528 27.0069 53V47H23.5069V49.1338ZM21.5069 60.9142C20.7059 60.7836 19.7888 60.4928 18.9979 59.9672C17.9002 59.2376 17.0069 58.0391 17.0069 56C17.0069 54.9544 17.2413 54.2077 17.571 53.6685C17.9009 53.1289 18.3608 52.7406 18.8992 52.4656C19.7107 52.0511 20.6752 51.9094 21.5069 51.9204V60.9142ZM53.977 14.0322C54.0222 14.3825 54.0286 14.7313 54.0043 15.0712L54.0035 15.0831L52.0103 39H67.0069C67.0069 34.4619 65.8573 27.6542 62.451 22.0172C60.4683 18.7362 57.726 15.8527 53.977 14.0322ZM35.5069 57C36.3353 57 37.0069 56.3284 37.0069 55.5C37.0069 54.6716 36.3353 54 35.5069 54C34.6784 54 34.0069 54.6716 34.0069 55.5C34.0069 56.3284 34.6784 57 35.5069 57ZM54.0069 55.5C54.0069 56.3284 53.3353 57 52.5069 57C51.6784 57 51.0069 56.3284 51.0069 55.5C51.0069 54.6716 51.6784 54 52.5069 54C53.3353 54 54.0069 54.6716 54.0069 55.5ZM80.0069 92.9142V102H89.0927L80.0069 92.9142ZM78.0069 91.4657C78.0069 90.2184 79.5149 89.5938 80.3968 90.4757L91.5311 101.61C92.4131 102.492 91.7884 104 90.5412 104H79.4069C78.6337 104 78.0069 103.373 78.0069 102.6V91.4657ZM94.2027 32.0414C93.6573 31.1453 92.3564 31.1453 91.811 32.0414L85.211 42.8843C85.2006 42.9013 85.1906 42.9185 85.181 42.9359C85.0711 43.0965 85.0069 43.2907 85.0069 43.5C85.0069 43.5173 85.0073 43.5345 85.0082 43.5516C85.0073 43.5718 85.0069 43.592 85.0069 43.6122V78C85.0069 79.1947 85.4156 80.9342 86.6412 82.3932C87.8994 83.8912 89.9411 85 93.0069 85C96.0726 85 98.1143 83.8912 99.3726 82.3932C100.598 80.9342 101.007 79.1947 101.007 78V57C101.007 56.4477 100.559 56 100.007 56C99.4546 56 99.0069 56.4477 99.0069 57V72H87.0069V44.5H99.0069V52C99.0069 52.5523 99.4546 53 100.007 53C100.559 53 101.007 52.5523 101.007 52V43.6122C101.007 43.3554 100.936 43.1036 100.803 42.8843L94.2027 32.0414ZM87.0069 74V78C87.0069 78.8053 87.2981 80.0658 88.1726 81.1068C89.0143 82.1089 90.4726 83 93.0069 83C95.5411 83 96.9994 82.1089 97.8412 81.1068C98.7156 80.0658 99.0069 78.8053 99.0069 78V74H87.0069ZM93.0069 33.9233L98.2275 42.5H87.7863L93.0069 33.9233Z" fill="#C59E75"/>
</svg>
