<svg width="120" height="120" viewBox="0 0 120 120" fill="none" xmlns="http://www.w3.org/2000/svg">
<path fill-rule="evenodd" clip-rule="evenodd" d="M54 17C53.4477 17 53 17.4477 53 18V24H84.5V18C84.5 17.4477 84.0523 17 83.5 17H54ZM51 18V24H40V103.5H28.5V92.4552C34.1065 91.9499 38.5 87.238 38.5 81.5C38.5 77.3951 36.2518 73.8173 32.9222 71.9273C33.9077 70.7216 34.5 69.1798 34.5 67.5C34.5 63.634 31.366 60.5 27.5 60.5C23.634 60.5 20.5 63.634 20.5 67.5C20.5 69.1798 21.0923 70.7216 22.0778 71.9273C18.7482 73.8173 16.5 77.3951 16.5 81.5C16.5 87.238 20.8935 91.9499 26.5 92.4552L26.5 96L23 93.5C21.5 93.5 21.1667 94.6667 21.5 95.5L26.5 99.5L26.5 103.5H13V105.5H100V103.5H98V24H86.5V18C86.5 16.3431 85.1569 15 83.5 15H54C52.3431 15 51 16.3431 51 18ZM28.5 90.4451V80C28.5 79.4477 28.0523 79 27.5 79C26.9477 79 26.5 79.4477 26.5 80L26.5 90.4451C22.0001 89.9476 18.5 86.1326 18.5 81.5C18.5 77.7122 20.8402 74.4687 24.1574 73.1409L25.7623 72.4985L24.4053 71.4275C23.2431 70.5102 22.5 69.0922 22.5 67.5C22.5 64.7386 24.7386 62.5 27.5 62.5C30.2614 62.5 32.5 64.7386 32.5 67.5C32.5 69.0922 31.7569 70.5102 30.5947 71.4275L29.2377 72.4985L30.8426 73.1409C34.1598 74.4687 36.5 77.7122 36.5 81.5C36.5 86.1326 33 89.9476 28.5 90.4451ZM96 103.5V26H42V103.5H59.5V84.5C59.5 83.3954 60.3954 82.5 61.5 82.5H75.5C76.6046 82.5 77.5 83.3954 77.5 84.5V103.5H96ZM75.5 103.5V84.5H69.5V103.5H75.5ZM67.5 103.5V84.5H61.5V103.5H67.5ZM102.5 105.5H107.5V103.5H102.5V105.5ZM44.5 29.5H59.5V44.5H44.5V29.5ZM46.5 31.5V42.5H57.5V31.5H46.5ZM59.5 46.5H44.5V61.5H59.5V46.5ZM46.5 59.5V48.5H57.5V59.5H46.5ZM44.5 63.5H59.5V78.5H44.5V63.5ZM46.5 65.5V76.5H57.5V65.5H46.5ZM76.5 29.5H61.5V44.5H76.5V29.5ZM63.5 42.5V31.5H74.5V42.5H63.5ZM61.5 46.5H76.5V61.5H61.5V46.5ZM63.5 48.5V59.5H74.5V48.5H63.5ZM76.5 63.5H61.5V78.5H76.5V63.5ZM63.5 76.5V65.5H74.5V76.5H63.5ZM78.5 29.5H93.5V44.5H78.5V29.5ZM80.5 31.5V42.5H91.5V31.5H80.5ZM93.5 46.5H78.5V61.5H93.5V46.5ZM80.5 59.5V48.5H91.5V59.5H80.5ZM78.5 63.5H93.5V78.5H78.5V63.5ZM80.5 65.5V76.5H91.5V65.5H80.5ZM28.5 73C28.5 72.4477 28.0523 72 27.5 72C26.9477 72 26.5 72.4477 26.5 73V76.5C26.5 77.0523 26.9477 77.5 27.5 77.5C28.0523 77.5 28.5 77.0523 28.5 76.5V73Z" fill="#C59E75"/>
</svg>
