<svg width="120" height="120" viewBox="0 0 120 120" fill="none" xmlns="http://www.w3.org/2000/svg">
<path fill-rule="evenodd" clip-rule="evenodd" d="M91 14C91 13.4477 90.5523 13 90 13C89.4477 13 89 13.4477 89 14V42C89 42.5523 89.4477 43 90 43C90.5523 43 91 42.5523 91 42V14ZM34.456 23.6109C44.6726 16.9872 56.8919 15.1613 65.0416 15.5009C65.5934 15.5239 66.0221 15.9898 65.9991 16.5416C65.9761 17.0934 65.5102 17.5221 64.9584 17.4991C57.1081 17.1721 45.3274 18.9462 35.544 25.2891C25.8213 31.5927 18 42.4473 18 60.5C18 71.8089 21.069 80.1821 25.7632 86.3224C30.4642 92.4716 36.8494 96.4516 43.588 98.8714C50.3301 101.292 57.3944 102.139 63.3896 102.039C69.4274 101.939 74.2317 100.881 76.5181 99.6238C77.002 99.3576 77.6101 99.5342 77.8762 100.018C78.1424 100.502 77.9658 101.11 77.4819 101.376C74.7683 102.869 69.5726 103.936 63.4229 104.039C57.2306 104.142 49.9199 103.27 42.912 100.754C35.9006 98.2359 29.1608 94.0597 24.1743 87.537C19.181 81.0054 16 72.1911 16 60.5C16 41.7527 24.1787 30.274 34.456 23.6109ZM45.4824 38.4819C51.5464 34.8132 58.7749 34.0742 63.5889 34.504C64.139 34.5531 64.5452 35.0389 64.496 35.589C64.4469 36.1391 63.9612 36.5452 63.4111 36.4961C58.8971 36.0926 52.1202 36.8036 46.5176 40.1931C40.9857 43.54 36.5 49.5477 36.5 60C36.5 70.4523 40.9857 76.4601 46.5176 79.8069C52.1202 83.1965 58.8971 83.9075 63.4111 83.504C63.9612 83.4549 64.4469 83.861 64.496 84.4111C64.5452 84.9612 64.139 85.4469 63.5889 85.4961C58.7749 85.9259 51.5464 85.1869 45.4824 81.5181C39.3477 77.8066 34.5 71.1477 34.5 60C34.5 48.8523 39.3477 42.1934 45.4824 38.4819ZM91 53.4735C100.116 52.984 103.787 45.8391 104.482 42.1871L104.5 42.0944V14C104.5 13.4477 104.052 13 103.5 13C102.948 13 102.5 13.4477 102.5 14V41.9028C101.843 45.149 98.4716 51.5 90 51.5C81.5242 51.5 77.8262 45.1463 77 41.8791V14C77 13.4477 76.5523 13 76 13C75.4477 13 75 13.4477 75 14V42.1174L75.0272 42.2316C75.8933 45.8694 79.8827 52.9855 89 53.4735V105.5C89 106.052 89.4477 106.5 90 106.5C90.5523 106.5 91 106.052 91 105.5V53.4735Z" fill="#C59E75"/>
</svg>
