<svg width="120" height="120" viewBox="0 0 120 120" fill="none" xmlns="http://www.w3.org/2000/svg">
<path fill-rule="evenodd" clip-rule="evenodd" d="M21 20C21.5523 20 22 19.5523 22 19C22 18.4477 21.5523 18 21 18C20.4477 18 20 18.4477 20 19C20 19.5523 20.4477 20 21 20ZM21 22C22.6569 22 24 20.6569 24 19C24 17.3431 22.6569 16 21 16C19.3431 16 18 17.3431 18 19C18 20.6569 19.3431 22 21 22ZM77 19C77 19.5523 76.5523 20 76 20C75.4477 20 75 19.5523 75 19C75 18.4477 75.4477 18 76 18C76.5523 18 77 18.4477 77 19ZM79 19C79 20.6569 77.6569 22 76 22C74.3431 22 73 20.6569 73 19C73 17.3431 74.3431 16 76 16C77.6569 16 79 17.3431 79 19ZM66 23.5C66 25.9853 63.9853 28 61.5 28C59.0147 28 57 25.9853 57 23.5C57 21.0147 59.0147 19 61.5 19C63.9853 19 66 21.0147 66 23.5ZM68 23.5C68 27.0898 65.0898 30 61.5 30C57.9102 30 55 27.0898 55 23.5C55 19.9102 57.9102 17 61.5 17C65.0898 17 68 19.9102 68 23.5ZM44.5189 58.9998C45.071 58.9894 45.5103 58.5333 45.4998 57.9811C45.4894 57.429 45.0333 56.9898 44.4811 57.0002C39.0427 57.1028 34.8989 58.3214 31.8058 60.3033C28.7057 62.2898 26.7269 65.0013 25.5571 67.971C23.2368 73.8618 24.0925 80.7681 25.5478 85.3054C25.7165 85.8313 26.2795 86.1209 26.8054 85.9522C27.3314 85.7835 27.6209 85.2205 27.4522 84.6946C26.0743 80.3985 25.33 74.0049 27.418 68.704C28.4523 66.0779 30.1797 63.7207 32.8848 61.9873C35.5969 60.2495 39.3573 59.0972 44.5189 58.9998ZM42 88C42 90.2091 40.2092 92 38 92C35.7908 92 34 90.2091 34 88C34 85.7909 35.7908 84 38 84C40.2092 84 42 85.7909 42 88ZM44 88C44 91.3137 41.3137 94 38 94C34.6863 94 32 91.3137 32 88C32 84.6863 34.6863 82 38 82C41.3137 82 44 84.6863 44 88ZM92 83C95.866 83 99 79.866 99 76C99 72.134 95.866 69 92 69C88.134 69 85 72.134 85 76C85 79.866 88.134 83 92 83ZM92 85C96.9706 85 101 80.9706 101 76C101 71.0294 96.9706 67 92 67C87.0294 67 83 71.0294 83 76C83 80.9706 87.0294 85 92 85ZM26 42C28.2092 42 30 40.2091 30 38C30 35.7909 28.2092 34 26 34C23.7908 34 22 35.7909 22 38C22 40.2091 23.7908 42 26 42ZM26 32C27.5367 32 28.9385 32.5777 30 33.5278V24.7137C30 23.8597 30.5422 23.0999 31.3499 22.8223L45.3499 18.0098C46.6483 17.5635 48 18.5282 48 19.9012V36V36.5C48 36.6178 47.9796 36.7307 47.9423 36.8356C47.5356 39.7538 45.0302 42 42 42C38.6863 42 36 39.3137 36 36C36 32.6863 38.6863 30 42 30C43.5367 30 44.9385 30.5777 46 31.5278V19.9012L32 24.7137V38C32 41.3137 29.3137 44 26 44C22.6863 44 20 41.3137 20 38C20 34.6863 22.6863 32 26 32ZM42 32C44.2092 32 46 33.7909 46 36C46 38.2091 44.2092 40 42 40C39.7908 40 38 38.2091 38 36C38 33.7909 39.7908 32 42 32ZM24 50C24 50.5523 23.5523 51 23 51C22.4477 51 22 50.5523 22 50C22 49.4477 22.4477 49 23 49C23.5523 49 24 49.4477 24 50ZM26 50C26 51.6569 24.6569 53 23 53C21.3431 53 20 51.6569 20 50C20 48.3431 21.3431 47 23 47C24.6569 47 26 48.3431 26 50ZM22 100C22.5523 100 23 99.5523 23 99C23 98.4477 22.5523 98 22 98C21.4477 98 21 98.4477 21 99C21 99.5523 21.4477 100 22 100ZM22 102C23.6569 102 25 100.657 25 99C25 97.3431 23.6569 96 22 96C20.3431 96 19 97.3431 19 99C19 100.657 20.3431 102 22 102ZM78 90C78 90.5523 77.5523 91 77 91C76.4477 91 76 90.5523 76 90C76 89.4477 76.4477 89 77 89C77.5523 89 78 89.4477 78 90ZM80 90C80 91.6569 78.6569 93 77 93C75.3431 93 74 91.6569 74 90C74 88.3431 75.3431 87 77 87C78.6569 87 80 88.3431 80 90ZM98 95C98.5523 95 99 94.5523 99 94C99 93.4477 98.5523 93 98 93C97.4477 93 97 93.4477 97 94C97 94.5523 97.4477 95 98 95ZM98 97C99.6569 97 101 95.6569 101 94C101 92.3431 99.6569 91 98 91C96.3431 91 95 92.3431 95 94C95 95.6569 96.3431 97 98 97ZM100 47C100 47.5523 99.5523 48 99 48C98.4477 48 98 47.5523 98 47C98 46.4477 98.4477 46 99 46C99.5523 46 100 46.4477 100 47ZM102 47C102 48.6569 100.657 50 99 50C97.3431 50 96 48.6569 96 47C96 45.3431 97.3431 44 99 44C100.657 44 102 45.3431 102 47ZM51 90C52.6569 90 54 88.6569 54 87C54 85.3431 52.6569 84 51 84C49.3431 84 48 85.3431 48 87C48 88.6569 49.3431 90 51 90ZM51 92C53.7614 92 56 89.7614 56 87C56 84.2386 53.7614 82 51 82C48.2386 82 46 84.2386 46 87C46 89.7614 48.2386 92 51 92ZM96.1544 19.5355C96.5449 19.145 97.178 19.145 97.5685 19.5355C97.959 19.9261 97.959 20.5592 97.5685 20.9497L96.1544 22.364L98.2756 24.4853L99.6899 23.0711C100.08 22.6805 100.714 22.6805 101.104 23.0711C101.495 23.4616 101.495 24.0948 101.104 24.4853L99.6899 25.8995L101.811 28.0208C102.202 28.4113 102.202 29.0445 101.811 29.435L98.2756 32.9706C97.8851 33.3611 97.252 33.3611 96.8615 32.9706L96.1544 32.2635L79.022 49.3958C79.5693 50.1581 79.9759 50.8802 80.2723 51.5996C81.0359 53.4525 81.0222 55.1928 81.0062 57.2449L81.0054 57.3419C81.0039 57.5326 81.0024 57.7265 81.0013 57.9248C81.0005 58.0824 81 58.2427 81 58.4062C81 66.3611 76.2141 73.1959 69.3678 76.1924C69.3726 76.3985 69.375 76.6053 69.375 76.8125C69.375 91.2755 57.6505 103 43.1875 103C28.7245 103 17 91.2755 17 76.8125C17 62.3495 28.7245 50.625 43.1875 50.625C43.3948 50.625 43.6014 50.6274 43.8076 50.6322C46.8041 43.7859 53.6389 39 61.5938 39C64.1788 39 66.327 39.1202 68.4816 40.0138C69.4083 40.3981 70.3174 40.971 71.2551 41.6064L88.3762 24.4853L87.6691 23.7782C87.2785 23.3876 87.2785 22.7545 87.6691 22.364L91.2046 18.8284C91.5951 18.4379 92.2283 18.4379 92.6188 18.8284L94.7401 20.9497L96.1544 19.5355ZM94.7401 30.8492L89.7903 25.8995L86.9619 28.7279L91.9117 33.6777L94.7401 30.8492ZM98.9828 29.435C99.3733 29.0445 99.3733 28.4113 98.9828 28.0208L92.6188 21.6569C92.2283 21.2663 91.5951 21.2663 91.2046 21.6569L90.4975 22.364C90.1069 22.7545 90.1069 23.3876 90.4975 23.7782L96.8615 30.1421C97.252 30.5327 97.8851 30.5327 98.2756 30.1421L98.9828 29.435ZM76.0122 48.8909C76.1254 49.0132 76.2341 49.1331 76.3386 49.2507L74.234 51.3553L69.2842 46.4056L71.3929 44.2969C71.4482 44.3463 71.5038 44.3963 71.5598 44.4472C71.5943 44.4786 71.629 44.5104 71.6638 44.5424L73.3651 46.2437C73.4949 46.3829 73.6265 46.5258 73.7601 46.6727L73.7907 46.7064L73.8243 46.7372C73.9875 46.8867 74.1454 47.0333 74.2982 47.1769L76.0122 48.8909ZM69.8222 43.0392L43.1213 69.7401C42.7308 70.1306 42.7308 70.7638 43.1213 71.1543L49.4853 77.5183C49.8758 77.9088 50.509 77.9088 50.8995 77.5183L77.5858 50.832C77.956 51.3789 78.225 51.8807 78.4232 52.3616C79.0201 53.8102 79.0222 55.1659 79.0054 57.3264V57.3286C79.0028 57.6693 79 58.0287 79 58.4062C79 65.7646 74.4336 72.059 67.9763 74.6054L67.3087 74.8687L67.3444 75.5855C67.3647 75.9919 67.375 76.4009 67.375 76.8125C67.375 90.1709 56.5459 101 43.1875 101C29.8291 101 19 90.1709 19 76.8125C19 63.4541 29.8291 52.625 43.1875 52.625C43.3734 52.625 43.5588 52.6271 43.7437 52.6313C43.9681 52.6363 44.1971 52.6444 44.4145 52.6555L45.1313 52.6913L45.3946 52.0237C47.941 45.5664 54.2354 41 61.5938 41C64.1466 41 65.9516 41.1297 67.7155 41.8612C68.3977 42.1441 69.0889 42.5237 69.8222 43.0392ZM77.4582 47.5085L77.7695 47.8198L79.8909 45.6985L74.9411 40.7487L72.8198 42.8701L73.0476 43.0978C73.6116 43.6186 74.1942 44.2018 74.8037 44.854L75.6896 45.7399C76.3557 46.3665 76.9424 46.9524 77.4582 47.5085ZM55.1422 70.4472L50.1924 65.4975L45.2426 70.4472L50.1924 75.397L55.1422 70.4472ZM53.7279 61.9619L58.6777 66.9117L56.5563 69.033L51.6066 64.0833L53.7279 61.9619ZM72.8198 52.7696L67.8701 47.8198L65.7487 49.9411L70.6985 54.8909L72.8198 52.7696ZM60.799 54.8909L65.7487 59.8406L63.6274 61.9619L58.6777 57.0122L60.799 54.8909ZM57.2634 58.4264L62.2132 63.3762L60.0919 65.4975L55.1422 60.5477L57.2634 58.4264ZM64.3345 51.3553L69.2842 56.3051L67.163 58.4264L62.2132 53.4767L64.3345 51.3553ZM83.4264 42.163L78.4767 37.2132L76.3553 39.3345L81.3051 44.2843L83.4264 42.163ZM82.0122 33.6777L86.9619 38.6274L84.8406 40.7487L79.8909 35.799L82.0122 33.6777ZM90.4975 35.0919L85.5477 30.1422L83.4264 32.2635L88.3762 37.2132L90.4975 35.0919Z" fill="#C59E75"/>
</svg>
