<svg width="120" height="120" viewBox="0 0 120 120" fill="none" xmlns="http://www.w3.org/2000/svg">
<path fill-rule="evenodd" clip-rule="evenodd" d="M80.7808 10C79.863 10 79.0631 10.6246 78.8405 11.5149L71.3405 41.5149C71.0249 42.7772 71.9796 44 73.2808 44H81V58C81 58.5523 81.4477 59 82 59C82.5523 59 83 58.5523 83 58V44H86V99C82.6863 99 80 101.686 80 105V108H100V105C100 101.686 97.3137 99 94 99V88C94 87.4477 93.5523 87 93 87C92.4477 87 92 87.4477 92 88V99H88V44H92V84C92 84.5523 92.4477 85 93 85C93.5523 85 94 84.5523 94 84V44H106.758C108.034 44 108.984 42.8199 108.711 41.5726L102.149 11.5726C101.948 10.6544 101.135 10 100.195 10H80.7808ZM87 101H93H94C96.2091 101 98 102.791 98 105V106H82V105C82 102.791 83.7909 101 86 101H87ZM83.0088 42H97.9862L93.0136 12.1644C93.0044 12.1092 92.9999 12.0542 92.9998 12L87.0001 12C87.0001 12.0436 86.9971 12.0877 86.9912 12.1322L83.0088 42ZM84.9911 12L80.7808 12L73.2808 42H80.9999C80.9999 41.9564 81.0028 41.9122 81.0088 41.8678L84.9911 12ZM95.0138 12L99.9864 41.8356C99.9956 41.8908 100 41.9458 100 42H106.758L100.195 12L95.0138 12ZM22.4245 50.308C20.9845 51.8925 20.2424 53.8127 20 55.0907V63C20 63.0502 19.9963 63.0996 19.9891 63.1478C23.4179 63.8385 26 66.8677 26 70.5V82.6914C28.8567 80.4511 35.5884 77 45 77C54.2427 77 60.3858 80.33 63 82.6118V70.5C63 66.8677 65.5821 63.8385 69.0109 63.1478C69.0037 63.0996 69 63.0502 69 63V55.5C69 52.4696 67.6135 50.5508 65.8658 49.3329C64.0841 48.0914 61.9162 47.5806 60.4729 47.5H40C39.4477 47.5 39 47.0523 39 46.5C39 45.9477 39.4477 45.5 40 45.5H60.5263L60.5526 45.5014C62.2761 45.5921 64.8431 46.1826 67.0092 47.6921C69.2199 49.2325 71 51.7304 71 55.5V63L70.9999 63.0164C74.9089 63.2736 78 66.5258 78 70.5V99V101H72V104C72 106.761 69.7614 109 67 109H59C56.2386 109 54 106.761 54 104V101H35V104C35 106.761 32.7614 109 30 109H22C19.2386 109 17 106.761 17 104V101H11V99V70.5C11 66.5258 14.0911 63.2736 18.0001 63.0164L18 63V55.0876C18 54.9752 18.009 54.8564 18.0326 54.7309C18.3302 53.1491 19.2137 50.8673 20.9444 48.9629C22.7003 47.0308 25.322 45.5 29 45.5H35.5C36.0523 45.5 36.5 45.9477 36.5 46.5C36.5 47.0523 36.0523 47.5 35.5 47.5H29C25.9447 47.5 23.8431 48.7472 22.4245 50.308ZM54 99H63V84.9758C62.9269 84.9916 62.8509 85 62.7727 85H26.2558C26.1671 85 26.0816 84.9894 26 84.9696V99H35H54ZM65 99H72H76V70.5C76 67.4624 73.5376 65 70.5 65C67.4624 65 65 67.4624 65 70.5V99ZM56 101V104C56 105.657 57.3431 107 59 107H67C68.6569 107 70 105.657 70 104V101H63H56ZM26 101H33V104C33 105.657 31.6569 107 30 107H22C20.3431 107 19 105.657 19 104V101H26ZM24 70.5V99H17H13V70.5C13 67.4624 15.4624 65 18.5 65C21.5376 65 24 67.4624 24 70.5ZM18 11C16.8954 11 16 11.8954 16 13V36C16 37.1046 16.8954 38 18 38H51C52.1046 38 53 37.1046 53 36V13C53 11.8954 52.1046 11 51 11H18ZM19.4142 13L49.5858 13L44.5858 18H24.4142L19.4142 13ZM51 34.5858V14.4142L46 19.4142V29.5858L51 34.5858ZM49.5858 36H19.4142L24.4142 31H44.5858L49.5858 36ZM18 14.4142V34.5858L23 29.5858V19.4142L18 14.4142ZM44 20H25V29H44V20ZM60.1883 83H29.1199C32.2885 81.1428 37.7791 79 45 79C52.2525 79 57.3721 81.1605 60.1883 83Z" fill="#C59E75"/>
</svg>
