<svg width="120" height="120" viewBox="0 0 120 120" fill="none" xmlns="http://www.w3.org/2000/svg">
<path fill-rule="evenodd" clip-rule="evenodd" d="M60 108C86.5097 108 108 86.5097 108 60C108 33.4903 86.5097 12 60 12C33.4903 12 12 33.4903 12 60C12 86.5097 33.4903 108 60 108ZM60 110C87.6142 110 110 87.6142 110 60C110 32.3858 87.6142 10 60 10C32.3858 10 10 32.3858 10 60C10 87.6142 32.3858 110 60 110Z" fill="#C59E75"/>
<path fill-rule="evenodd" clip-rule="evenodd" d="M55.5822 10.5034C56.1326 10.5488 56.542 11.0318 56.4966 11.5822C55.189 27.4366 62.6855 63.4811 103.378 80.074C103.889 80.2825 104.134 80.8662 103.926 81.3776C103.717 81.889 103.134 82.1345 102.622 81.926C60.9145 64.9189 53.1443 27.8967 54.5033 11.4178C54.5487 10.8674 55.0317 10.458 55.5822 10.5034Z" fill="#C59E75"/>
<path fill-rule="evenodd" clip-rule="evenodd" d="M60.5 81C62.9853 81 65 78.9853 65 76.5C65 74.0147 62.9853 72 60.5 72C58.0147 72 56 74.0147 56 76.5C56 78.9853 58.0147 81 60.5 81ZM60.5 83C64.0899 83 67 80.0899 67 76.5C67 72.9101 64.0899 70 60.5 70C56.9101 70 54 72.9101 54 76.5C54 80.0899 56.9101 83 60.5 83Z" fill="#C59E75"/>
<path fill-rule="evenodd" clip-rule="evenodd" d="M85.5 47C87.9853 47 90 44.9853 90 42.5C90 40.0147 87.9853 38 85.5 38C83.0147 38 81 40.0147 81 42.5C81 44.9853 83.0147 47 85.5 47ZM85.5 49C89.0899 49 92 46.0899 92 42.5C92 38.9101 89.0899 36 85.5 36C81.9101 36 79 38.9101 79 42.5C79 46.0899 81.9101 49 85.5 49Z" fill="#C59E75"/>
<path fill-rule="evenodd" clip-rule="evenodd" d="M40.5 41C42.9853 41 45 38.9853 45 36.5C45 34.0147 42.9853 32 40.5 32C38.0147 32 36 34.0147 36 36.5C36 38.9853 38.0147 41 40.5 41ZM40.5 43C44.0899 43 47 40.0899 47 36.5C47 32.9101 44.0899 30 40.5 30C36.9101 30 34 32.9101 34 36.5C34 40.0899 36.9101 43 40.5 43Z" fill="#C59E75"/>
<path fill-rule="evenodd" clip-rule="evenodd" d="M74.326 14.4454C74.8481 14.2654 75.1254 13.6962 74.9454 13.174C74.7653 12.6519 74.1961 12.3746 73.674 12.5547C65.4532 15.3894 54.165 21.5292 44.3738 31.2799C44.9116 31.6797 45.3856 32.1607 45.7775 32.7047C55.3318 23.1873 66.353 17.1947 74.326 14.4454ZM37.6246 42.3311C37.0204 42.0325 36.4693 41.6429 35.9892 41.18C26.7944 54.1954 21.0163 71.5765 24.5123 93.6564C24.5987 94.2019 25.1109 94.5741 25.6564 94.4877C26.2019 94.4014 26.5741 93.8891 26.4877 93.3436C23.0811 71.8282 28.6993 54.9627 37.6246 42.3311Z" fill="#C59E75"/>
<path fill-rule="evenodd" clip-rule="evenodd" d="M88.4973 20.4271C88.457 19.8763 87.9778 19.4624 87.427 19.5027C86.8762 19.543 86.4624 20.0222 86.5027 20.573C86.8172 24.8711 86.5892 30.1974 85.5137 36C86.203 36.0014 86.8671 36.1102 87.4902 36.3103C88.59 30.3502 88.8225 24.8707 88.4973 20.4271ZM83.9978 48.8256C83.3355 48.6689 82.7124 48.4108 82.1457 48.0688C80.5648 52.2523 78.5044 56.4855 75.8704 60.5982C73.1604 64.8297 69.8398 68.9392 65.8023 72.7394C66.2039 73.3045 66.5173 73.9367 66.7227 74.6157C71.0809 70.5892 74.6536 66.2065 77.5546 61.6769C80.2564 57.4583 82.3724 53.1175 83.9978 48.8256ZM12.2071 52.793C19.7245 60.3103 34.769 70.7228 54.0587 75.6231C54.02 75.9099 54 76.2026 54 76.5C54 76.91 54.038 77.311 54.1105 77.6999C34.1319 72.7448 18.5521 61.9664 10.7929 54.2072C10.4024 53.8166 10.4024 53.1835 10.7929 52.793C11.1834 52.4024 11.8166 52.4024 12.2071 52.793ZM23.8403 92.0129C36.7645 89.9222 47.1713 85.8764 55.5067 80.6616C55.9544 81.1983 56.487 81.6616 57.0839 82.031C48.4358 87.545 37.6134 91.8109 24.1597 93.9872C23.6145 94.0754 23.101 93.7049 23.0128 93.1597C22.9246 92.6145 23.2951 92.1011 23.8403 92.0129ZM107.36 74.4332C92.7647 80.0569 78.7691 81.2579 66.0734 79.8466C66.4283 79.2569 66.6922 78.6062 66.8458 77.914C79.1122 79.1972 92.597 77.9782 106.64 72.5669C107.156 72.3684 107.735 72.6252 107.933 73.1405C108.132 73.6559 107.875 74.2346 107.36 74.4332Z" fill="#C59E75"/>
</svg>
