<svg width="120" height="120" viewBox="0 0 120 120" fill="none" xmlns="http://www.w3.org/2000/svg">
<path fill-rule="evenodd" clip-rule="evenodd" d="M83 14C84.6569 14 86 12.6569 86 11C86 9.34315 84.6569 8 83 8C81.3431 8 80 9.34315 80 11C80 12.6569 81.3431 14 83 14ZM84 15.9C86.2822 15.4367 88 13.419 88 11C88 8.23858 85.7614 6 83 6C80.2386 6 78 8.23858 78 11C78 13.419 79.7178 15.4367 82 15.9V26.1261C80.9019 25.3253 79.2052 24.4411 77.2688 23.5721C75.2537 22.6676 72.9144 21.7512 70.5815 20.9315C68.2487 20.1119 65.909 19.3843 63.8921 18.8603C61.9072 18.3445 60.1406 18 59 18C56.8573 18 53.2485 18.656 49.5786 19.7949C45.9079 20.9341 42.019 22.6042 39.3753 24.7191C37.4994 26.2198 34.7837 27.5089 32.0884 28.5129C29.4083 29.5113 26.8313 30.1978 25.294 30.5215L24.5 30.6886V42H14.9C14.4367 39.7178 12.419 38 10 38C7.23858 38 5 40.2386 5 43C5 45.7614 7.23858 48 10 48C12.419 48 14.4367 46.2822 14.9 44H24.5V54H18.9C18.4367 51.7178 16.419 50 14 50C11.2386 50 9 52.2386 9 55C9 57.7614 11.2386 60 14 60C16.419 60 18.4367 58.2822 18.9 56H24.5V63.5C24.5 71.8269 29.3218 79.7138 31.7281 82.6357L33.2719 81.3643C31.0116 78.6196 26.5 71.1731 26.5 63.5V32.3009C28.1335 31.916 30.4219 31.268 32.7866 30.3871C35.5497 29.3578 38.5006 27.9802 40.6247 26.2809C42.981 24.3958 46.5921 22.8159 50.1714 21.7051C53.7515 20.594 57.1427 20 59 20C59.8594 20 61.4053 20.2805 63.3891 20.796C65.341 21.3032 67.6263 22.0131 69.9185 22.8185C72.2106 23.6238 74.4963 24.5199 76.4499 25.3967C78.4225 26.282 79.9935 27.1201 80.9 27.8C82.6303 29.0977 85.0862 30.1383 87.3812 30.9103C89.2818 31.5497 91.136 32.0257 92.5 32.3182V48H94.5V30.6701L93.6843 30.5171C92.3931 30.275 90.2383 29.7613 88.0188 29.0147C86.3408 28.4502 84.6783 27.7697 83.3319 27H84V15.9ZM46.5185 28.3699C48.7984 27.2099 54.1247 24.5 59.5 24.5C62.4339 24.5 65.8214 25.4261 68.9404 26.6992C72.0705 27.9768 75.0224 29.6418 77.1 31.2C80.1587 33.494 85.1577 35.3869 87.2941 36.0442L87.9869 36.2574L88.5019 65.0971L88.4778 65.2095C86.6193 73.8827 81.4234 80.7252 75.7495 85.737C70.0784 90.7464 63.8674 93.9837 59.8401 95.4404L59.5041 95.5619L59.1672 95.443C38.3744 88.1044 31.7063 72.2886 31.0047 65.0971L31 65.0487V35.6802L31.8039 35.5194C32.6511 35.35 34.3224 34.6248 36.181 33.7039C37.993 32.8062 39.8503 31.7909 41.0039 31.1318L41.9961 32.8682C40.8163 33.5424 38.9236 34.5771 37.069 35.4961C35.6344 36.2068 34.1343 36.8939 33 37.2626V64.9505C33.6536 71.4149 39.804 86.3421 59.4943 93.4363C63.3107 92.0021 69.1126 88.931 74.4255 84.238C79.8683 79.4303 84.736 72.9767 86.4981 64.9019L86.0129 37.7327C83.5404 36.9059 78.9288 35.0716 75.9 32.8C73.9776 31.3582 71.1795 29.7732 68.1846 28.5508C65.1786 27.3239 62.0661 26.5 59.5 26.5C54.6352 26.5 49.721 28.9899 47.4069 30.1624C47.2398 30.2471 47.0862 30.3249 46.9472 30.3944L46.0528 28.6056C46.1895 28.5372 46.3452 28.458 46.5185 28.3699ZM92.5 53V67.8194C90.8436 72.2198 87.2253 79.07 81.6959 85.4182C76.1532 91.7817 68.7456 97.5787 59.5354 99.9592C55.3154 98.5413 44.8641 93.5634 35.1925 84.2786L33.8075 85.7214C36.5254 88.3306 39.3048 90.61 42 92.5752V103.1C39.7178 103.563 38 105.581 38 108C38 110.761 40.2386 113 43 113C45.7614 113 48 110.761 48 108C48 105.581 46.2822 103.563 44 103.1V93.9881C50.5368 98.4612 56.3362 101.038 59.1952 101.952L59.4664 102.039L59.7425 101.97C69.6034 99.5049 77.4358 93.3544 83.2041 86.7318C88.3203 80.8579 91.8571 74.5629 93.7817 70H99.1C99.5633 72.2822 101.581 74 104 74C106.761 74 109 71.7614 109 69C109 66.2386 106.761 64 104 64C101.581 64 99.5633 65.7178 99.1 68H94.5V58H104.1C104.563 60.2822 106.581 62 109 62C111.761 62 114 59.7614 114 57C114 54.2386 111.761 52 109 52C106.581 52 104.563 53.7178 104.1 56H94.5V53H92.5ZM43 105C41.3431 105 40 106.343 40 108C40 109.657 41.3431 111 43 111C44.6569 111 46 109.657 46 108C46 106.343 44.6569 105 43 105ZM106 57C106 58.6569 107.343 60 109 60C110.657 60 112 58.6569 112 57C112 55.3431 110.657 54 109 54C107.343 54 106 55.3431 106 57ZM13 43C13 44.6569 11.6569 46 10 46C8.34315 46 7 44.6569 7 43C7 41.3431 8.34315 40 10 40C11.6569 40 13 41.3431 13 43ZM101 69C101 70.6569 102.343 72 104 72C105.657 72 107 70.6569 107 69C107 67.3431 105.657 66 104 66C102.343 66 101 67.3431 101 69ZM17 55C17 56.6569 15.6569 58 14 58C12.3431 58 11 56.6569 11 55C11 53.3431 12.3431 52 14 52C15.6569 52 17 53.3431 17 55ZM48 57C48 55.3431 49.3431 54 51 54H53V49.9543L53.0042 49.9087C53.0954 48.9136 53.5211 47.4644 54.5206 46.242C55.5511 44.9818 57.166 44 59.5 44C61.834 44 63.4489 44.9818 64.4794 46.242C65.4789 47.4644 65.9046 48.9136 65.9958 49.9087L66 49.9543V54H68C69.6569 54 71 55.3431 71 57V70C71 71.6569 69.6569 73 68 73H51C49.3431 73 48 71.6569 48 70V57ZM64 54V50.0488C63.9296 49.376 63.6203 48.3509 62.9311 47.508C62.258 46.6849 61.1993 46 59.5 46C57.8007 46 56.742 46.6849 56.0689 47.508C55.3797 48.3509 55.0704 49.376 55 50.0488V54H64ZM51 56C50.4477 56 50 56.4477 50 57V70C50 70.5523 50.4477 71 51 71H68C68.5523 71 69 70.5523 69 70V57C69 56.4477 68.5523 56 68 56H51ZM59.5 65C60.8807 65 62 63.8807 62 62.5C62 61.1193 60.8807 60 59.5 60C58.1193 60 57 61.1193 57 62.5C57 63.8807 58.1193 65 59.5 65ZM60.9082 66.7753C62.7038 66.1841 64 64.4935 64 62.5C64 60.0147 61.9853 58 59.5 58C57.0147 58 55 60.0147 55 62.5C55 64.4935 56.2962 66.1841 58.0918 66.7753L59.2154 70.1462C59.3066 70.4197 59.6934 70.4197 59.7846 70.1462L60.9082 66.7753Z" fill="#C59E75"/>
</svg>
