<svg width="120" height="120" viewBox="0 0 120 120" fill="none" xmlns="http://www.w3.org/2000/svg">
<path fill-rule="evenodd" clip-rule="evenodd" d="M48.4434 23.3494C46.1692 26.9226 45.3998 31.224 45.3998 34H75.3998L74.4013 33.9445C74.5605 31.0798 74.0274 26.7895 71.9614 23.2546C69.9339 19.7854 66.4153 17 60.3998 17C54.3838 17 50.6837 19.8295 48.4434 23.3494ZM35.8411 34H43.3998C43.3998 30.9427 44.2303 26.2441 46.7562 22.2756C49.3159 18.2538 53.6157 15 60.3998 15C67.1842 15 71.3323 18.2146 73.6881 22.2454C75.9919 26.1872 76.5657 30.8648 76.4012 34H84.9585C89.6767 34 93.594 37.6437 93.935 42.3495L97.7756 95.3495C98.1533 100.563 94.0259 105 88.7991 105H32.0005C26.7737 105 22.6463 100.563 23.024 95.3495L26.8646 42.3495C27.2056 37.6437 31.1229 34 35.8411 34ZM35.8411 36C32.1714 36 29.1246 38.834 28.8594 42.4941L25.0188 95.4941C24.725 99.5487 27.9352 103 32.0005 103H88.7991C92.8644 103 96.0746 99.5487 95.7808 95.4941L91.9402 42.4941C91.675 38.834 88.6282 36 84.9585 36H35.8411ZM45.3998 47C45.3998 49.2396 46.1512 52.7651 48.3948 55.7059C50.602 58.599 54.3056 61 60.3998 61C66.4598 61 69.9857 58.4215 71.9957 55.4409C74.0487 52.3965 74.5528 48.8773 74.4032 47.083C74.3574 46.5327 74.7664 46.0493 75.3167 46.0035C75.8671 45.9576 76.3505 46.3666 76.3963 46.971C76.5801 49.1227 75.9842 53.1035 73.6539 56.5591C71.2806 60.0785 67.1397 63 60.3998 63C53.694 63 49.3975 60.3176 46.8047 56.9191C44.2483 53.5682 43.3998 49.5937 43.3998 47C43.3998 46.4477 43.8475 46 44.3998 46C44.9521 46 45.3998 46.4477 45.3998 47Z" fill="#C59E75"/>
</svg>
