<svg xmlns="http://www.w3.org/2000/svg" xmlns:xlink="http://www.w3.org/1999/xlink" preserveAspectRatio="xMidYMid meet" width="200" height="200" viewBox="0 0 200 200" style="width:100%;height:100%"><defs><animateMotion repeatCount="indefinite" dur="1.3s" begin="0s" xlink:href="#_R_G_L_0_G_L_2_G" fill="freeze" keyTimes="0;0.1666667;0.3589744;1" path="M60 100 C60,97.92 60,87.5 60,87.5 C60,87.5 60,97.92 60,100 C60,100 60,100 60,100 " keyPoints="0;0.5;1;1" keySplines="0.167 0.167 0.833 0.833;0.167 0.167 0.833 0.833;0 0 0 0" calcMode="spline"/><animateMotion repeatCount="indefinite" dur="1.3s" begin="0s" xlink:href="#_R_G_L_0_G_L_1_G" fill="freeze" keyTimes="0;0.1666667;0.3589744;0.5512821;1" path="M100 100 C100,100 100,100 100,100 C100,97.92 100,87.5 100,87.5 C100,87.5 100,97.92 100,100 C100,100 100,100 100,100 " keyPoints="0;0;0.5;1;1" keySplines="0.167 0.167 0.833 0.833;0.167 0.167 0.833 0.833;0.167 0.167 0.833 0.833;0 0 0 0" calcMode="spline"/><animateMotion repeatCount="indefinite" dur="1.3s" begin="0s" xlink:href="#_R_G_L_0_G_L_0_G" fill="freeze" keyTimes="0;0.3589744;0.5512821;0.7435897;1" path="M140 100 C140,100 140,100 140,100 C140,97.92 140,87.5 140,87.5 C140,87.5 140,97.92 140,100 C140,100 140,100 140,100 " keyPoints="0;0;0.5;1;1" keySplines="0.167 0.167 0.833 0.833;0.167 0.167 0.833 0.833;0.167 0.167 0.833 0.833;0 0 0 0" calcMode="spline"/><animate attributeType="XML" attributeName="opacity" dur="1s" from="0" to="1" xlink:href="#time_group"/></defs><g id="_R_G"><g id="_R_G_L_0_G"><g id="_R_G_L_0_G_L_2_G"><path id="_R_G_L_0_G_L_2_G_D_0_P_0" fill="#27a5e7" fill-opacity="1" fill-rule="nonzero" d=" M0 -12 C6.62,-12 12,-6.62 12,0 C12,6.62 6.62,12 0,12 C-6.62,12 -12,6.62 -12,0 C-12,-6.62 -6.62,-12 0,-12z "/></g><g id="_R_G_L_0_G_L_1_G"><path id="_R_G_L_0_G_L_1_G_D_0_P_0" fill="#27a5e7" fill-opacity="1" fill-rule="nonzero" d=" M0 -12 C6.62,-12 12,-6.62 12,0 C12,6.62 6.62,12 0,12 C-6.62,12 -12,6.62 -12,0 C-12,-6.62 -6.62,-12 0,-12z "/></g><g id="_R_G_L_0_G_L_0_G"><path id="_R_G_L_0_G_L_0_G_D_0_P_0" fill="#27a5e7" fill-opacity="1" fill-rule="nonzero" d=" M0 -12 C6.62,-12 12,-6.62 12,0 C12,6.62 6.62,12 0,12 C-6.62,12 -12,6.62 -12,0 C-12,-6.62 -6.62,-12 0,-12z "/></g></g></g><g id="time_group"/></svg>