<svg xmlns="http://www.w3.org/2000/svg" xmlns:xlink="http://www.w3.org/1999/xlink" preserveAspectRatio="xMidYMid meet" width="240" height="240" viewBox="0 0 240 240" style="width:100%;height:100%"><defs><animateMotion repeatCount="indefinite" dur="2s" begin="0s" xlink:href="#_R_G_L_4_G" fill="freeze" keyTimes="0;0.5;1" path="M113.39 136 C118.97,136 146.89,136 146.89,136 C146.89,136 118.97,136 113.39,136 " keyPoints="0;0.5;1" keySplines="0.598 0 0.825 1;0.584 0 0.55 1" calcMode="spline"/><animate repeatCount="indefinite" dur="2s" begin="0s" xlink:href="#_R_G_L_3_G" fill="freeze" attributeName="opacity" from="1" to="0" keyTimes="0;0.1666667;0.3333333;1" values="1;1;0;0" keySplines="0.167 0.167 0.833 0.833;0.167 0.167 0.833 0.833;0 0 0 0" calcMode="spline"/><animateMotion repeatCount="indefinite" dur="2s" begin="0s" xlink:href="#_R_G_L_3_G" fill="freeze" keyTimes="0;0.1666667;0.3333333;1" path="M137 126 C137,118.75 174,99.63 174,81.51 C174,63.38 170,44.75 161.5,35.5 C161.5,35.5 161.5,35.5 161.5,35.5 " keyPoints="0;0.55;1;1" keySplines="0.167 0.167 0.833 0.833;0.167 0.167 0.833 0.833;0 0 0 0" calcMode="spline"/><animate repeatCount="indefinite" dur="2s" begin="0s" xlink:href="#_R_G_L_3_G_M" fill="freeze" attributeName="opacity" from="1" to="0" keyTimes="0;0.3333333;0.3333334;1" values="1;1;0;0" keySplines="0 0 0 0;0 0 0 0;0 0 0 0" calcMode="spline"/><animate repeatCount="indefinite" dur="2s" begin="0s" xlink:href="#_R_G_L_2_G" fill="freeze" attributeName="opacity" from="1" to="0" keyTimes="0;0.6666667;0.8333333;1" values="1;1;0;0" keySplines="0.167 0.167 0.833 0.833;0.167 0.167 0.833 0.833;0 0 0 0" calcMode="spline"/><animateMotion repeatCount="indefinite" dur="2s" begin="0s" xlink:href="#_R_G_L_2_G" fill="freeze" keyTimes="0;0.5;0.6666667;0.8333333;1" path="M181 126.5 C181,126.5 181,126.5 181,126.5 C174,120.25 152.65,94.08 154,76.01 C155.5,55.88 162.5,46.75 173.5,33 C173.5,33 173.5,33 173.5,33 " keyPoints="0;0;0.55;1;1" keySplines="0.167 0.167 0.833 0.833;0.167 0.167 0.833 0.833;0.167 0.167 0.833 0.833;0 0 0 0" calcMode="spline"/><animate repeatCount="indefinite" dur="2s" begin="0s" xlink:href="#_R_G_L_2_G_M" fill="freeze" attributeName="opacity" from="0" to="0" keyTimes="0;0.5;0.5000017;0.8333333;0.8333334;1" values="0;0;1;1;0;0" keySplines="0 0 0 0;0 0 0 0;0 0 0 0;0 0 0 0;0 0 0 0" calcMode="spline"/><animate repeatCount="indefinite" dur="2s" begin="0s" xlink:href="#_R_G_L_1_G" fill="freeze" attributeName="opacity" from="1" to="0" keyTimes="0;0.2;0.3666667;1" values="1;1;0;0" keySplines="0.167 0.167 0.833 0.833;0.167 0.167 0.833 0.833;0 0 0 0" calcMode="spline"/><animateMotion repeatCount="indefinite" dur="2s" begin="0s" xlink:href="#_R_G_L_1_G" fill="freeze" keyTimes="0;0.0333333;0.2;0.3666667;1" path="M158 132 C158,132 158,132 158,132 C158,121.36 136,90.69 136,64.5 C136,45.57 158,29.69 158,22 C158,22 158,22 158,22 " keyPoints="0;0;0.59;1;1" keySplines="0.167 0.167 0.833 0.833;0.167 0.167 0.833 0.833;0.167 0.167 0.833 0.833;0 0 0 0" calcMode="spline"/><animate repeatCount="indefinite" dur="2s" begin="0s" xlink:href="#_R_G_L_1_G_M" fill="freeze" attributeName="opacity" from="0" to="0" keyTimes="0;0.0333333;0.033335;0.3666667;0.3666667;1" values="0;0;1;1;0;0" keySplines="0 0 0 0;0 0 0 0;0 0 0 0;0 0 0 0;0 0 0 0" calcMode="spline"/><animate repeatCount="indefinite" dur="2s" begin="0s" xlink:href="#_R_G_L_0_G" fill="freeze" attributeName="opacity" from="1" to="0" keyTimes="0;0.7;0.8666667;1" values="1;1;0;0" keySplines="0.167 0.167 0.833 0.833;0.167 0.167 0.833 0.833;0 0 0 0" calcMode="spline"/><animateMotion repeatCount="indefinite" dur="2s" begin="0s" xlink:href="#_R_G_L_0_G" fill="freeze" keyTimes="0;0.5333333;0.7;0.8666667;1" path="M158 132 C158,132 158,132 158,132 C158,121.36 188,94.69 188,68.5 C188,49.57 158,29.69 158,22 C158,22 158,22 158,22 " keyPoints="0;0;0.56;1;1" keySplines="0.167 0.167 0.833 0.833;0.167 0.167 0.833 0.833;0.167 0.167 0.833 0.833;0 0 0 0" calcMode="spline"/><animate repeatCount="indefinite" dur="2s" begin="0s" xlink:href="#_R_G_L_0_G_M" fill="freeze" attributeName="opacity" from="0" to="0" keyTimes="0;0.5333333;0.533335;0.8666667;0.8666667;1" values="0;0;1;1;0;0" keySplines="0 0 0 0;0 0 0 0;0 0 0 0;0 0 0 0;0 0 0 0" calcMode="spline"/><animate attributeType="XML" attributeName="opacity" dur="2s" from="0" to="1" xlink:href="#time_group"/></defs><g id="_R_G"><g id="_R_G_L_4_G"><path id="_R_G_L_4_G_D_0_P_0" fill="#ffffff" fill-opacity="1" fill-rule="nonzero" d=" M20.25 0 C20.25,2.65 22.38,4.8 24.99,4.8 C27.61,4.8 29.74,2.65 29.74,0 C29.74,-2.65 27.61,-4.8 24.99,-4.8 C22.38,-4.8 20.25,-2.65 20.25,0z  M-34.21 -11.68 C-25.57,-21.05 -10.05,-32 7.72,-32 C34.88,-32 56.89,-6.4 56.89,0 C56.89,6.4 34.88,32 7.72,32 C-10.05,32 -25.57,21.04 -34.21,11.68 C-34.21,11.68 -51.46,24.88 -51.46,24.88 C-53.86,26.72 -57.43,24.76 -56.82,21.95 C-56.82,21.95 -52.04,0 -52.04,0 C-52.04,0 -56.82,-21.95 -56.82,-21.95 C-57.43,-24.76 -53.85,-26.72 -51.46,-24.88 C-51.46,-24.88 -34.21,-11.68 -34.21,-11.68z "/></g><g id="_R_G_L_3_G_M"><g id="_R_G_L_3_G"><path id="_R_G_L_3_G_D_0_P_0" fill="#ffffff" fill-opacity="1" fill-rule="nonzero" d=" M0 -8 C-4.42,-8 -8,-4.42 -8,0 C-8,4.42 -4.42,8 0,8 C4.42,8 8,4.42 8,0 C8,-4.42 4.42,-8 0,-8z  M-4 0 C-4,-2.21 -2.21,-4 0,-4 C2.21,-4 4,-2.21 4,0 C4,2.21 2.21,4 0,4 C-2.21,4 -4,2.21 -4,0z "/></g></g><g id="_R_G_L_2_G_M"><g id="_R_G_L_2_G"><path id="_R_G_L_2_G_D_0_P_0" fill="#ffffff" fill-opacity="1" fill-rule="nonzero" d=" M0 -8 C-4.42,-8 -8,-4.42 -8,0 C-8,4.42 -4.42,8 0,8 C4.42,8 8,4.42 8,0 C8,-4.42 4.42,-8 0,-8z  M-4 0 C-4,-2.21 -2.21,-4 0,-4 C2.21,-4 4,-2.21 4,0 C4,2.21 2.21,4 0,4 C-2.21,4 -4,2.21 -4,0z "/></g></g><g id="_R_G_L_1_G_M"><g id="_R_G_L_1_G"><path id="_R_G_L_1_G_D_0_P_0" fill="#ffffff" fill-opacity="1" fill-rule="nonzero" d=" M0 -12 C-6.63,-12 -12,-6.63 -12,0 C-12,6.63 -6.63,12 0,12 C6.63,12 12,6.63 12,0 C12,-6.63 6.63,-12 0,-12z  M-8 0 C-8,-4.42 -4.42,-8 0,-8 C4.42,-8 8,-4.42 8,0 C8,4.42 4.42,8 0,8 C-4.42,8 -8,4.42 -8,0z "/></g></g><g id="_R_G_L_0_G_M"><g id="_R_G_L_0_G"><path id="_R_G_L_0_G_D_0_P_0" fill="#ffffff" fill-opacity="1" fill-rule="nonzero" d=" M0 -12 C-6.63,-12 -12,-6.63 -12,0 C-12,6.63 -6.63,12 0,12 C6.63,12 12,6.63 12,0 C12,-6.63 6.63,-12 0,-12z  M-8 0 C-8,-4.42 -4.42,-8 0,-8 C4.42,-8 8,-4.42 8,0 C8,4.42 4.42,8 0,8 C-4.42,8 -8,4.42 -8,0z "/></g></g></g><g id="time_group"/></svg>