<svg xmlns="http://www.w3.org/2000/svg" xmlns:xlink="http://www.w3.org/1999/xlink" preserveAspectRatio="xMidYMid meet" width="80" height="60" viewBox="0 0 80 60" style="width:100%;height:100%"><defs><animateMotion repeatCount="indefinite" dur="1.3333333s" begin="0s" xlink:href="#_R_G_L_0_G" fill="freeze" keyTimes="0;0.25;0.5;1" path="M40 42.5 C39.75,30.42 40,19.5 40,19.5 C40,19.5 39.75,30.67 40,42.5 C40,42.5 40,42.5 40,42.5 " keyPoints="0;0.5;1;1" keySplines="0.333 0 0.257 1;0.749 0 0.667 1;0 0 0 0" calcMode="spline"/><animateTransform repeatCount="indefinite" dur="1.3333333s" begin="0s" xlink:href="#_R_G_L_0_G" fill="freeze" attributeName="transform" from="0" to="0" type="rotate" additive="sum" keyTimes="0;0.25;0.5;1" values="0;21;0;0" keySplines="0.333 0 0.19 1;0.799 0 0.667 1;0 0 0 0" calcMode="spline"/><animate attributeType="XML" attributeName="opacity" dur="1s" from="0" to="1" xlink:href="#time_group"/></defs><g id="_R_G"><g id="_R_G_L_0_G"><path id="_R_G_L_0_G_D_0_P_0" fill="#ffce00" fill-opacity="1" fill-rule="nonzero" d=" M-22.52 -8.99 C-24.06,-10.01 -26.05,-8.58 -25.56,-6.8 C-25.56,-6.8 -19.77,14.52 -19.77,14.52 C-19.42,15.8 -17.94,16.43 -16.72,15.91 C-13.63,14.58 -7.67,12.55 0.04,12.55 C7.75,12.55 13.71,14.58 16.8,15.91 C18.02,16.43 19.5,15.8 19.85,14.52 C19.85,14.52 25.56,-6.5 25.56,-6.5 C26.05,-8.32 23.99,-9.75 22.46,-8.65 C22.46,-8.65 16.02,-4.01 16.02,-4.01 C15.08,-3.33 14.49,-2.28 14.41,-1.13 C14.41,-1.13 14.36,-0.44 14.36,-0.44 C14.2,1.8 11.93,3.26 9.82,2.47 C9.82,2.47 9.64,2.4 9.64,2.4 C7.77,1.7 6.99,-0.53 8.02,-2.24 C8.64,-3.28 8.62,-4.59 7.97,-5.62 C7.97,-5.62 1.82,-15.17 1.82,-15.17 C1.01,-16.44 -0.85,-16.39 -1.6,-15.08 C-1.6,-15.08 -7.04,-5.55 -7.04,-5.55 C-7.62,-4.55 -7.65,-3.33 -7.13,-2.3 C-7.13,-2.3 -7.06,-2.14 -7.06,-2.14 C-6.2,-0.42 -6.99,1.67 -8.78,2.38 C-10.85,3.21 -13.12,1.78 -13.28,-0.44 C-13.28,-0.44 -13.33,-1.1 -13.33,-1.1 C-13.41,-2.26 -14.03,-3.32 -15,-3.97 C-15,-3.97 -22.52,-8.99 -22.52,-8.99z "/></g></g><g id="time_group"/></svg>