<svg width="140" height="32" viewBox="0 0 140 32" fill="none" xmlns="http://www.w3.org/2000/svg">
<path fill-rule="evenodd" clip-rule="evenodd" d="M19.5249 15.572C19.3062 15.3926 19.0885 15.2118 18.8619 15.0236L18.8614 15.0232C18.6994 14.8886 18.5329 14.7503 18.3581 14.606C18.4223 14.5603 18.4809 14.5163 18.5363 14.4747L18.5364 14.4746L18.5368 14.4743L18.5369 14.4742C18.648 14.3907 18.7466 14.3165 18.8533 14.257C21.5164 12.7744 22.9507 10.5293 23.2141 7.49127C23.5658 3.45711 20.5055 0.00966416 16.4356 4.59263e-05C13.276 -0.00819827 10.475 1.09378 8.05733 3.07376C3.79164 6.56792 1.59605 11.2328 0.687193 16.5516C0.364474 18.4368 2.06633 20.5377 4.00541 20.8551C4.07161 20.8661 4.14884 20.8002 4.03575 20.8469C4.09947 20.3505 4.14958 19.8621 4.19889 19.3815L4.1989 19.3815C4.3097 18.3017 4.4165 17.2608 4.66464 16.2549C5.02597 14.7874 5.58866 13.3488 6.2341 11.9775C6.89471 10.5801 7.71254 9.24729 8.55244 7.9447C9.36475 6.68471 10.3564 5.55801 11.5659 4.64153C11.3696 5.46715 11.1414 6.27863 10.9143 7.08626L10.9143 7.08627L10.9142 7.08629L10.9142 7.0863L10.9142 7.08633C10.6307 8.09454 10.3489 9.09675 10.1329 10.1129C9.1896 14.5565 8.31247 19.0167 7.47533 23.4809C7.12779 25.3303 8.2973 27.0561 10.0985 27.603C11.0501 23.4136 12.0017 19.2214 12.9216 15.1666C13.1625 15.226 13.3768 15.2911 13.5732 15.3508C13.9581 15.4676 14.2744 15.5637 14.5876 15.5555C15.5212 15.5335 16.2122 15.91 16.8259 16.5503C19.1332 18.9562 19.3911 23.1017 17.3362 25.8277C15.3916 28.4068 12.6361 29.3425 9.52611 29.4621C7.7415 29.5308 6.10584 29.0773 4.76945 27.8434C3.59856 26.7635 3.52822 25.5351 4.52121 24.2971C4.70945 24.0626 4.91842 23.8442 5.12764 23.6255L5.12767 23.6255C5.21888 23.5301 5.31012 23.4348 5.39972 23.338C4.72946 22.7925 2.22356 21.9557 1.39607 22.0313C1.2223 22.0464 1.01543 22.2127 0.909235 22.3679C-0.378884 24.2352 -0.32096 26.5944 1.22782 28.2515C2.06909 29.1515 3.06208 30.0433 4.16677 30.5448C9.44612 32.948 14.5558 32.3379 19.1925 28.9866C23.1507 26.1259 24.5229 19.6789 19.5249 15.572ZM13.687 13.6208C13.6546 13.5927 13.6218 13.5649 13.5891 13.537C13.5563 13.5092 13.5236 13.4814 13.4911 13.4532C13.7001 12.8554 13.9024 12.2547 14.1046 11.654L14.1046 11.6539L14.1046 11.6539L14.1046 11.6539C14.5871 10.2208 15.0697 8.78746 15.644 7.39234C16.1336 6.20243 15.8536 5.33679 15.022 4.53161C14.7053 4.22543 14.3617 3.94668 13.9999 3.6532L13.9998 3.65315C13.8307 3.51597 13.6576 3.37557 13.4815 3.22765C14.6855 2.49254 15.9419 2.11743 17.299 2.31529C18.3457 2.46781 18.9677 3.20841 19.267 4.1826C20.0117 6.59952 19.4256 8.74851 17.8658 10.6763C16.7487 12.0586 15.3557 13.0437 13.687 13.6208ZM76.9744 17.703C71.1696 13.2827 64.5442 10.8342 57.4223 9.56868C57.2389 9.5357 56.9258 9.65662 56.8293 9.80639C56.3038 10.6198 56.6652 11.4264 57.603 11.6517C58.3821 11.8385 59.1632 12.0186 59.9442 12.1986L59.9443 12.1986C61.8231 12.6317 63.7018 13.0648 65.5537 13.5918C68.8995 14.5441 72.1405 15.7697 74.9608 17.9022C75.6049 18.3886 75.6711 18.7761 75.2422 19.4356C73.4893 22.1328 71.022 23.9974 68.1768 25.3618C66.9646 25.943 65.6213 26.3429 64.2946 26.5737C62.5113 26.8856 61.517 25.8042 61.7721 24.0304L61.7768 23.9975C61.9035 23.1206 62.0319 22.2323 62.2934 21.3909C62.6479 20.2504 62.2562 19.393 61.4149 18.7211C60.8504 18.2694 60.1997 17.9191 59.5567 17.5729L59.4027 17.49C59.2469 17.4058 59.052 17.3929 58.8473 17.3794C58.7513 17.3731 58.6532 17.3666 58.5559 17.3526C58.5708 17.4857 58.5866 17.6044 58.6011 17.7136L58.6011 17.7137L58.6012 17.7139L58.6012 17.7141C58.6298 17.9291 58.6534 18.107 58.6552 18.2855C58.6828 21.035 57.334 23.1853 55.5411 25.0897C54.7316 25.9499 53.6738 25.594 53.5235 24.4027C53.3993 23.423 53.4476 22.3857 53.6283 21.4128C53.9965 19.4411 54.6861 17.5752 56.1314 16.0926C56.941 15.2627 57.9367 14.8683 59.0262 15.4152C59.4045 15.605 59.7202 15.9155 60.0368 16.227L60.0369 16.227L60.0369 16.227L60.0369 16.2271C60.2063 16.3937 60.376 16.5606 60.5557 16.7095C60.6618 16.7982 60.7939 16.8558 60.9261 16.9135C60.9864 16.9398 61.0467 16.9661 61.1046 16.9953C61.132 16.9395 61.1663 16.8839 61.2007 16.8283L61.2007 16.8283C61.2754 16.7075 61.35 16.5868 61.3528 16.4636C61.3915 14.9109 59.931 13.1082 58.4001 12.7619C56.2059 12.2659 54.4902 13.1563 53.0242 14.6526C51.4189 16.2904 50.5693 18.3323 49.837 20.4799C49.335 21.9515 48.5213 23.3324 47.7214 24.6803C47.5085 25.0394 47.1333 25.3029 46.758 25.5665C46.5862 25.6871 46.4144 25.8077 46.2581 25.9375L46.1081 25.8456L45.9575 25.7534C45.9766 25.4921 45.9837 25.2278 45.9908 24.9634V24.9634C46.0061 24.3897 46.0214 23.816 46.1602 23.2733C46.6957 21.187 47.2558 19.1072 47.8159 17.0275L47.8161 17.0268C48.3235 15.1427 48.8308 13.2587 49.3198 11.37C49.5336 10.5442 49.9446 10.3546 50.7183 10.4934C51.8464 10.6968 52.9856 10.8507 54.122 11.0032C54.853 11.1021 55.3219 10.6487 55.4901 9.81326C55.6405 9.06266 55.1582 8.99764 54.6825 8.9335L54.6823 8.93348C54.6434 8.92824 54.6046 8.923 54.5661 8.91739C53.5488 8.76761 52.5293 8.62653 51.4965 8.48362L51.4963 8.48358L51.4942 8.4833C51.1066 8.42967 50.7172 8.37577 50.3252 8.32106C50.3252 8.25203 50.3233 8.19711 50.3217 8.15128V8.15117V8.15107L50.3217 8.15082V8.15078V8.15074V8.15071C50.319 8.07461 50.3171 8.02364 50.3266 7.9748C50.699 6.05253 49.6591 4.38583 47.7311 3.84171C47.1518 3.6782 46.7712 3.71256 46.716 4.51087C46.6497 5.48498 46.4527 6.45205 46.2566 7.41425L46.2085 7.65053C46.1685 7.84702 45.8913 8.13007 45.7106 8.14106C45.0804 8.17912 44.4472 8.17411 43.7502 8.16859C43.4909 8.16654 43.2228 8.16442 42.9427 8.16442C43.4144 6.98962 43.2957 6.00169 42.4159 5.17315C41.616 4.42018 40.8092 3.71256 39.5914 3.80049C39.52 4.199 39.4472 4.59246 39.3751 4.98255L39.3749 4.98348L39.3748 4.98414L39.3747 4.98458L39.3746 4.98476C39.2001 5.92815 39.0292 6.85186 38.8908 7.77969C38.8108 8.31419 38.5694 8.48045 38.055 8.56564C36.9542 8.74905 35.8636 8.99477 34.775 9.24005L34.775 9.24007L34.4444 9.31449C33.9438 9.42716 33.4942 9.75692 33.7162 10.2749C33.8555 10.6006 34.3561 10.8561 34.7451 10.9647C34.9804 11.0302 35.2494 10.977 35.5182 10.9238C35.6385 10.9 35.7587 10.8762 35.876 10.863C36.5904 10.7806 37.3048 10.6981 38.0867 10.6074C38.066 10.7275 38.0508 10.829 38.0374 10.9183C38.0144 11.0724 37.9968 11.1902 37.9654 11.3041C37.7585 12.0427 37.5581 12.7834 37.3576 13.5242L37.3574 13.5249L37.3572 13.5257L37.357 13.5266C36.8532 15.388 36.3495 17.2494 35.7449 19.077C35.236 20.6145 34.5603 22.1411 33.6914 23.5041C33.0722 24.4756 32.1137 25.3384 31.1179 25.9416C29.5223 26.9076 28.088 25.9897 27.9638 24.0743C28.1091 24.0102 28.2565 23.9445 28.4051 23.8782C28.5272 23.8237 28.6502 23.7689 28.7734 23.7143C31.7523 22.4063 33.6031 20.1075 34.5134 17.0544C35.3022 14.4135 33.4721 12.3607 30.758 12.81C30.0987 12.9186 29.4464 13.1948 28.8451 13.497C25.0731 15.396 23.2444 20.7451 23.8347 24.1046C24.2126 26.2549 25.1504 27.9903 27.3667 28.7021C29.8408 29.4976 32.6846 28.566 34.2789 26.5119C34.4571 26.2825 34.6324 26.0503 34.8151 25.8085L34.8152 25.8084C34.9181 25.6721 35.0233 25.5328 35.1326 25.3893C35.2236 25.6318 35.3054 25.8692 35.3853 26.1008C35.5562 26.5963 35.7181 27.0657 35.9408 27.5039C36.56 28.7199 37.6454 29.1431 38.9694 28.7914C40.1141 28.4877 40.9333 27.754 41.6035 26.8252C41.81 26.5383 42.011 26.2481 42.2339 25.9264L42.234 25.9261L42.2342 25.926C42.3283 25.79 42.4263 25.6485 42.5303 25.4992C42.5627 25.6157 42.5916 25.7204 42.6182 25.8169L42.6182 25.8169L42.6183 25.8173C42.6824 26.0496 42.7333 26.2337 42.7868 26.4171C43.5523 29.0332 45.683 29.7051 47.8276 27.9876C48.2055 27.6839 48.5255 27.2978 48.8302 26.9172C49.0677 26.6201 49.2835 26.3054 49.5221 25.9576C49.6355 25.7922 49.7541 25.6194 49.8825 25.4374C50.6066 27.2374 51.7471 28.507 53.6241 28.7282C55.2401 28.919 56.1977 27.8641 57.1485 26.8167C57.3613 26.5823 57.5738 26.3482 57.7933 26.1285C59 28.6348 60.0027 29.2146 62.7651 28.9453C63.6008 28.8642 64.4421 28.687 65.2448 28.4396C70.5117 26.8183 74.4781 23.603 77.0737 18.7403L77.0907 18.7094C77.2813 18.3639 77.4472 18.0632 76.9744 17.703ZM31.1 15.8714L31.1237 15.8537C31.2039 15.7936 31.2897 15.7292 31.3813 15.7092C31.6647 15.6464 31.9505 15.5951 32.2362 15.5438L32.2362 15.5438C32.3315 15.5267 32.4267 15.5097 32.5219 15.4921C32.5219 15.6146 32.5312 15.7398 32.5405 15.8651V15.8652C32.5607 16.1378 32.5809 16.4103 32.5053 16.6532C31.933 18.4752 30.8283 19.9261 29.2519 21.013C28.9862 21.1956 28.7087 21.3609 28.3752 21.5596C28.2118 21.6569 28.0351 21.7621 27.8397 21.8814C28.3596 19.4054 29.1499 17.3306 31.1 15.8714ZM44.7866 12.9062C44.5658 13.6471 44.3486 14.3891 44.1314 15.1312L44.1314 15.1313C43.4846 17.3413 42.8379 19.5512 42.0945 21.7289C41.7477 22.7454 41.1022 23.6763 40.4748 24.581L40.3988 24.6907L40.3071 24.8232C40.0913 25.1354 39.7566 25.366 39.4216 25.5967L39.4216 25.5968L39.4215 25.5968L39.4215 25.5968C39.2684 25.7023 39.1154 25.8077 38.9735 25.921L38.8909 25.8842C38.8016 25.8443 38.7128 25.8046 38.6232 25.7658C38.6536 25.4587 38.6722 25.1487 38.6907 24.8387V24.8386V24.8386V24.8386V24.8385C38.7309 24.1649 38.7711 23.4913 38.9335 22.8487C39.7982 19.4219 40.7292 16.0115 41.6753 12.6067C42.3242 10.2725 42.355 10.2722 44.774 10.249L44.7963 10.2488C44.9183 10.2479 45.0403 10.2582 45.2034 10.272L45.2035 10.272L45.2037 10.2721L45.204 10.2721C45.2897 10.2793 45.3867 10.2875 45.501 10.2955C45.4161 10.6065 45.3362 10.9066 45.2584 11.199C45.1009 11.7906 44.9518 12.3509 44.7866 12.9062ZM70.7132 19.3293C70.8278 19.416 70.9576 19.5141 71.1079 19.6103C70.9636 19.7148 70.8399 19.8205 70.7306 19.9138L70.7305 19.9138C70.5181 20.0952 70.3604 20.2298 70.2129 20.219C69.9867 20.2025 69.6267 19.8617 69.6198 19.6529C69.6143 19.4467 69.9549 19.0854 70.1797 19.0551C70.3255 19.0361 70.4905 19.1609 70.7132 19.3293ZM72.6372 18.8394C72.3476 17.8652 71.447 17.1645 70.3961 17.0738C69.3479 16.9817 68.468 17.4901 67.8929 18.6416C68.9604 17.6564 70.0389 17.4434 71.1077 18.2046C72.309 19.0607 72.3696 20.2478 71.7904 21.538C72.6565 20.8002 72.9558 19.9098 72.6372 18.8394ZM69.7709 21.872C69.0372 21.8171 68.4979 21.4021 68.2331 20.6986C67.9739 20.0075 68.1007 19.396 68.6841 18.7571C68.3876 20.6532 69.5599 21.8088 71.5196 20.8594C71.1238 21.6219 70.5184 21.9283 69.7709 21.872Z" fill="#1D9BF0"/>
<path d="M77.3113 25.1906C77.3113 26.4314 77.8154 27.2291 78.616 27.8495C79.0608 28.1744 79.3277 28.1744 79.6539 27.5836C81.4034 24.4224 84.2798 20.4341 86.8893 17.0957C85.4363 20.05 83.9833 23.1521 83.6274 24.5406V24.5111C83.4495 25.161 83.3902 25.7223 83.3902 26.195C83.3902 27.0518 83.7164 27.554 84.0722 27.879C84.5467 28.2926 84.8135 28.2926 85.0211 27.7017C86.4741 23.5657 89.4098 17.7161 91.4558 13.905C91.8413 13.1074 92.1675 12.2802 92.1675 11.4825C92.1675 10.7734 91.9006 10.0644 91.3076 9.444C90.7442 8.91222 90.3587 8.94176 89.9732 9.56217C86.6817 14.7618 83.5088 17.657 80.3952 22.3544C81.4627 18.3956 82.0558 16.5935 82.975 13.9346C83.2419 13.0778 83.3902 12.3392 83.3902 11.8075C83.3902 10.8621 82.975 10.0939 82.1744 9.41445C81.611 8.9713 81.1366 9.14856 80.7807 9.62126C77.9171 13.9346 77.3131 15.0457 76.0973 18C75.8304 18.65 76.0974 19 76.0974 19C76.0974 18.8412 76.0974 19.65 76.0974 19C76.4829 19.3841 76.42 19.9136 76.5979 19.5C77.5992 18.5 77.5992 18.5 79.476 16.239C78.4678 19.4887 77.6078 22.8271 77.4003 24.1566C77.341 24.5406 77.3113 24.8656 77.3113 25.1906Z" fill="#1D9BF0"/>
<path d="M104.758 19.1933C105.41 19.1637 106.122 19.016 106.923 18.6615C105.766 20.0205 104.432 21.8226 103.987 23.2998C103.839 23.8316 103.75 24.3929 103.75 24.8656C103.75 26.5791 104.788 27.879 106.686 27.9381C108.435 27.9972 110.57 26.6973 111.371 24.8656C111.727 24.0384 111.638 23.2407 111.46 22.8862C111.222 22.2953 110.718 22.2658 110.511 22.7385C109.562 24.8951 107.901 26.845 106.863 26.7564C106.419 26.7268 106.181 26.2541 106.181 25.5155C106.181 25.1315 106.241 24.6588 106.389 24.2156C106.863 22.768 108.346 20.7295 109.651 19.2524C109.947 18.8388 110.096 18.4252 110.096 18.0706C110.096 17.3025 109.651 16.5344 109.236 16.0912C108.821 15.6481 108.524 15.7367 107.961 16.1208C107.101 16.7116 106.152 17.1548 105.321 17.3616C105.618 16.3867 105.826 15.5299 105.826 14.8504C105.826 14.2005 105.529 13.7869 104.906 13.8164C103.957 13.8755 102.119 16.0321 102.119 17.5389C102.119 18.1297 102.356 18.6024 103.009 18.9274C101.644 23.093 99.2426 26.4609 97.5227 26.6382C97.2262 26.6677 97.0779 26.4018 97.0779 25.9291C97.0779 25.5155 97.2855 24.8951 97.5227 24.2452C97.8489 23.4475 98.4419 22.5021 98.9757 21.5567C99.4205 20.7295 99.8949 20.0205 100.251 19.2228C100.577 18.5433 100.696 17.9229 100.696 17.3911C100.696 16.7412 100.488 16.2094 100.162 15.8549C99.7763 15.4413 99.3612 15.589 98.9757 16.0617C98.8571 16.239 98.6495 16.5344 98.4123 16.9184C98.1454 16.1799 97.5227 15.6776 96.5145 15.6776C94.9429 15.6776 92.541 17.0071 90.1687 20.4046C89.1012 21.9408 88.6268 23.4771 88.6268 24.7474C88.6268 26.5496 89.5757 27.7904 91.2955 27.7904C92.5706 27.7904 93.7568 26.9927 94.676 26.0178C94.9132 27.1995 95.8621 27.9381 97.4041 27.8495C100.607 27.6131 103.305 23.2703 104.758 19.1933ZM97.1076 18.0411C97.1076 18.8092 96.5738 20.2568 95.447 22.2362C93.994 24.777 92.5706 26.4905 91.5921 26.4905C91.3548 26.4905 91.2659 26.1064 91.2659 25.6042C91.2659 24.5997 91.7107 23.1521 92.6003 21.734C94.1719 19.2524 96.129 17.4798 96.9296 17.4798C97.0483 17.4798 97.1076 17.657 97.1076 18.0411Z" fill="#1D9BF0"/>
<path d="M119.837 9.62126C119.837 9.20765 119.719 8.82359 119.541 8.46907C119.214 7.84866 118.74 7.84866 118.266 8.43952C115.656 12.0143 111.386 20.3455 110.052 24.127C109.755 24.9838 109.666 25.6337 109.666 26.1064C109.666 26.7268 109.844 27.1404 110.141 27.4654C110.496 27.9085 110.971 27.7608 111.178 27.3472C112.127 25.1315 112.928 23.3293 113.729 21.9113C113.729 26.0473 115.508 27.7608 117.702 27.7904C120.223 27.8199 121.735 25.6928 122.298 24.6588C122.743 23.8907 122.802 23.1521 122.654 22.768C122.387 22.0294 122.002 22.0885 121.646 22.7976C120.816 24.5111 119.185 26.5791 118.177 26.5791C117.287 26.5791 116.575 24.9542 116.457 22.7385C118.206 22.1476 119.422 21.3204 120.371 20.4046C121.112 19.6955 121.409 18.9569 121.409 18.2479C121.409 17.7457 121.29 17.273 121.053 16.8298C120.401 15.4708 119.6 14.9981 118.266 15.4708C117.761 15.6481 117.257 15.8549 116.724 16.239C118.503 13.0187 119.837 10.7734 119.837 9.62126ZM119.422 16.9184C119.689 17.3025 119.155 18.2774 117.969 19.2524C116.99 20.05 114.915 20.9659 114.055 21.2613C114.944 19.7841 115.775 18.7206 116.783 17.9525C118.147 16.9184 119.185 16.5639 119.422 16.9184Z" fill="#1D9BF0"/>
<path d="M128.681 17.3911C129.007 17.657 128.384 19.0456 127.524 20.1978C126.931 20.9954 125.982 21.8817 125.271 21.8817C125.063 21.8817 124.855 21.8226 124.618 21.6749C126.042 18.8388 128.236 17.0366 128.681 17.3911ZM130.905 18.5729C130.905 18.1888 130.786 17.7457 130.608 17.4798C130.193 16.8889 129.6 16.4162 128.77 15.9435C128.473 15.7663 128.147 15.7072 127.732 15.7072C126.012 15.7072 123.61 17.273 122.068 20.4046C121.445 21.5863 121.149 22.7385 121.149 23.802C121.149 26.1655 122.661 27.9676 125.419 27.9381C127.732 27.9085 130.104 26.52 131.35 24.7179C131.883 23.9202 131.854 23.0634 131.765 22.7976C131.527 22.2067 131.142 22.2658 130.816 22.7385C129.6 24.5702 127.613 26.7564 125.36 26.7564C124.47 26.7564 123.936 25.8405 123.936 24.5406C123.936 24.0088 124.025 23.3884 124.203 22.7976C124.885 23.2407 125.597 23.4475 126.308 23.4475C128.918 23.4475 130.905 20.3455 130.905 18.5729Z" fill="#1D9BF0"/>
<path d="M130.529 24.5997C130.529 26.6382 131.893 27.9085 133.464 27.9085C135.955 27.9085 137.942 25.3678 138.357 24.4815C138.683 23.802 138.802 23.3589 138.653 22.7385C138.446 21.9408 137.764 21.9999 137.438 22.7089C136.4 24.9247 134.858 26.7859 133.701 26.7859C133.197 26.7859 132.901 26.1655 132.901 25.2792C132.901 24.6292 133.079 23.8611 133.435 23.0634C134.472 20.8182 136.163 17.8934 137.289 15.9731C137.942 15.8844 138.713 15.8253 139.247 15.8844C139.958 15.9731 140.166 15.6185 139.869 15.0868C139.662 14.7322 139.158 14.2596 138.238 14.1414C138.594 13.3142 138.713 12.6347 138.713 12.1029C138.713 11.7484 138.594 11.2461 138.387 10.8916C138.06 10.3303 137.705 10.3008 137.26 10.9507C136.578 11.9256 135.955 12.9006 135.036 14.4959C134.383 14.555 133.583 14.5845 132.901 14.555C132.219 14.5254 131.922 14.8209 132.337 15.4413C132.575 15.7958 133.108 16.1208 134.028 16.239C132.841 18.3661 131.715 20.7 131.122 22.1476C130.706 23.1225 130.529 23.9497 130.529 24.5997Z" fill="#1D9BF0"/>
</svg>
