<svg width="40" height="57" viewBox="0 0 40 57" fill="none" xmlns="http://www.w3.org/2000/svg">
<path d="M20 0C8.94286 0 0 8.9205 0 19.95C0 34.9125 20 57 20 57C20 57 40 34.9125 40 19.95C40 8.9205 31.0571 0 20 0Z" fill="#D92121"/>
<path fill-rule="evenodd" clip-rule="evenodd" d="M20.524 21.4974L16.5529 17.5494C14.8431 15.8313 14.8431 13.0713 16.5529 11.3715L19.9908 7.95349L23.4288 11.3532C25.1386 13.053 25.1386 15.8313 23.4288 17.5311L21.3513 19.5965L20.3585 18.6095L22.436 16.5624C23.5943 15.3926 23.5943 13.51 22.436 12.3585L19.9908 9.9275L17.5457 12.3585C16.3874 13.5282 16.3874 15.4109 17.5457 16.5624L21.5168 20.5104L20.524 21.4974ZM24.3297 18.445C26.0394 16.7451 28.8339 16.7451 30.5437 18.445L34.0001 21.8629L30.5621 25.2809C28.8523 26.9808 26.0578 26.9808 24.3481 25.2809L22.2706 23.2155L23.2633 22.2285L25.3224 24.3122C26.4991 25.4637 28.3927 25.4637 29.5509 24.3122L31.9961 21.8812L29.5509 19.4503C28.3743 18.2988 26.4807 18.2988 25.3224 19.4503L21.3881 23.3617L20.3953 22.3747L24.3297 18.445ZM23.4288 26.1948L19.4577 22.2285L18.4649 23.2155L22.4544 27.1635C23.6127 28.315 23.6127 30.1977 22.4544 31.3674L20.0092 33.7984L17.5641 31.3674C16.4058 30.2159 16.4058 28.3333 17.5641 27.1635L19.6232 25.1164L18.6304 24.1294L16.5529 26.1948C14.8431 27.8946 14.8431 30.6729 16.5529 32.3727L19.9909 35.7907L23.4288 32.3727C25.1386 30.6546 25.1386 27.8946 23.4288 26.1948ZM19.6599 21.2963L15.652 25.2809C13.9238 26.9808 11.1477 26.9808 9.43795 25.2809L6 21.8629L9.43795 18.445C11.1477 16.7451 13.9422 16.7451 15.652 18.445L17.7295 20.5104L16.7367 21.4974L14.6592 19.432C13.4826 18.2805 11.589 18.2805 10.4307 19.432L7.98556 21.8629L10.4307 24.2939C11.6074 25.4454 13.501 25.4454 14.6592 24.2939L18.6671 20.3093L19.6599 21.2963ZM28.4845 27.0356V30.3074H25.1937C25.0834 30.8009 24.9179 31.2578 24.6789 31.6965C24.7892 31.7148 24.9179 31.7148 25.0282 31.7148H29.8818V26.8894C29.8818 26.7614 29.8818 26.6518 29.8634 26.5421C29.4406 26.7614 28.9625 26.9442 28.4845 27.0356ZM11.4971 27.0356V30.2891H14.7696C14.8615 30.7826 15.0453 31.2395 15.2843 31.6782C15.174 31.6965 15.0454 31.6965 14.9351 31.6965H14.935H10.0815V26.8711C10.0815 26.7614 10.0815 26.6335 10.0998 26.5238C10.5411 26.7614 11.0191 26.9259 11.4971 27.0356ZM11.497 16.6903V13.4186H14.7879C14.8982 12.9251 15.0637 12.4682 15.3027 12.0295C15.1924 12.0112 15.0637 12.0112 14.9534 12.0112H14.9534H10.0998V16.8366C10.0998 16.9645 10.0998 17.0742 10.1182 17.1839C10.5594 16.9645 11.019 16.8 11.497 16.6903ZM28.4846 16.6903V13.4186L25.2121 13.4368C25.1202 12.9433 24.9363 12.4864 24.6973 12.0477C24.8076 12.0294 24.9363 12.0294 25.0466 12.0294H29.9002V16.8548C29.9002 16.9645 29.9002 17.0924 29.8818 17.2021C29.4406 16.9645 28.9626 16.8 28.4846 16.6903Z" fill="white"/>
</svg>
