<svg xmlns="http://www.w3.org/2000/svg" xmlns:xlink="http://www.w3.org/1999/xlink" viewBox="0 0 589.28 152.24"><defs><style>.cls-1{font-size:115.2px;font-family:BebasNeue, Bebas Neue;letter-spacing:0.16em;}.cls-1,.cls-4{fill:#fff;}.cls-2{letter-spacing:0.15em;}.cls-3{letter-spacing:0.16em;}.cls-4{font-size:16px;font-family:Montserrat-Light, Montserrat;font-weight:300;letter-spacing:0.08em;}.cls-5{letter-spacing:-1.2002882713070738e+30em;}.cls-6{letter-spacing:0.06em;}.cls-7{letter-spacing:0.07em;}.cls-8{letter-spacing:0.07em;}.cls-9{letter-spacing:-2.482378054851189e+27em;}.cls-10{letter-spacing:-7.398471757106948e+31em;}.cls-11{letter-spacing:0.03em;}.cls-12{letter-spacing:-2.4855514851276776e+27em;}.cls-13{letter-spacing:-3.8685626227668134e+25em;}.cls-14{fill:url(#New_Gradient_Swatch);}.cls-15{fill:url(#New_Gradient_Swatch-2);}.cls-16{fill:url(#New_Gradient_Swatch-3);}.cls-17{fill:url(#New_Gradient_Swatch-4);}.cls-18{fill:url(#New_Gradient_Swatch-5);}.cls-19{fill:url(#New_Gradient_Swatch-6);}.cls-20{fill:url(#New_Gradient_Swatch-7);}.cls-21{fill:url(#New_Gradient_Swatch-8);}</style><linearGradient id="New_Gradient_Swatch" x1="65.23" y1="-25.94" x2="93.68" y2="134.78" gradientUnits="userSpaceOnUse"><stop offset="0" stop-color="#fed88f"/><stop offset="1" stop-color="#d9b77a"/></linearGradient><linearGradient id="New_Gradient_Swatch-2" x1="96.01" y1="-31.39" x2="124.46" y2="129.33" xlink:href="#New_Gradient_Swatch"/><linearGradient id="New_Gradient_Swatch-3" x1="51.32" y1="-23.48" x2="79.76" y2="137.24" xlink:href="#New_Gradient_Swatch"/><linearGradient id="New_Gradient_Swatch-4" x1="20.77" y1="-18.07" x2="49.21" y2="142.65" xlink:href="#New_Gradient_Swatch"/><linearGradient id="New_Gradient_Swatch-5" x1="89.89" y1="-30.3" x2="118.33" y2="130.42" xlink:href="#New_Gradient_Swatch"/><linearGradient id="New_Gradient_Swatch-6" x1="10.6" y1="-16.27" x2="39.04" y2="144.45" xlink:href="#New_Gradient_Swatch"/><linearGradient id="New_Gradient_Swatch-7" x1="26.67" y1="-19.11" x2="55.11" y2="141.6" xlink:href="#New_Gradient_Swatch"/><linearGradient id="New_Gradient_Swatch-8" x1="105.95" y1="-33.15" x2="134.4" y2="127.57" xlink:href="#New_Gradient_Swatch"/></defs><g id="Layer_2" data-name="Layer 2"><g id="Layer_1-2" data-name="Layer 1"><text class="cls-1" transform="translate(173.89 103.2)">LU<tspan class="cls-2" x="121.99" y="0">X</tspan><tspan class="cls-3" x="188.23" y="0">CITY</tspan></text><text class="cls-4" transform="translate(177.72 130.56)">THE<tspan class="cls-5" x="3.6" y="0"> </tspan><tspan class="cls-6" x="4.8" y="0">L</tspan><tspan class="cls-7" x="5.78" y="0">UX</tspan><tspan x="7.86" y="0">U</tspan><tspan class="cls-7" x="9.06" y="0">R</tspan><tspan class="cls-8" x="10.1" y="0">Y H</tspan><tspan class="cls-7" x="13.7" y="0">O</tspan><tspan x="14.74" y="0">T</tspan><tspan class="cls-9" x="15.94" y="0">E</tspan><tspan x="17.14" y="0">L </tspan><tspan class="cls-10" x="19.54" y="0">A</tspan><tspan x="20.74" y="0">ND A</tspan><tspan class="cls-11" x="25.54" y="0">P</tspan><tspan x="26.02" y="0">A</tspan><tspan class="cls-12" x="27.22" y="0">R</tspan><tspan class="cls-13" x="28.26" y="0">T</tspan><tspan class="cls-8" x="29.46" y="0">MENT</tspan></text><path class="cls-14" d="M57.43,52.47,79.07,74.11l5.4-5.4L62.83,47.07a16.27,16.27,0,0,1,0-23L76.12,10.81,89.41,24.1a16.27,16.27,0,0,1,0,23L78.15,58.33l5.4,5.4L94.81,52.47a23.88,23.88,0,0,0,0-33.78L76.12,0,57.43,18.69A23.88,23.88,0,0,0,57.43,52.47Z"/><path class="cls-15" d="M133.55,57.43a23.88,23.88,0,0,0-33.78,0L78.33,78.86l5.4,5.41,21.44-21.44a16.27,16.27,0,0,1,23,0l13.29,13.29L128.14,89.41a16.27,16.27,0,0,1-23,0L93.88,78.12l-5.4,5.4L99.77,94.81a23.88,23.88,0,0,0,33.78,0l18.69-18.69Z"/><path class="cls-16" d="M94.81,99.77,73.17,78.13l-5.43,5.43,21.67,21.61a16.27,16.27,0,0,1,0,23L76.12,141.43,62.83,128.14a16.27,16.27,0,0,1,0-23L74.06,93.94l-5.4-5.41L57.43,99.77a23.88,23.88,0,0,0,0,33.78l18.69,18.69,18.69-18.69A23.88,23.88,0,0,0,94.81,99.77Z"/><path class="cls-17" d="M52.47,94.81,74.32,73l-5.41-5.41L47.07,89.41a16.27,16.27,0,0,1-23,0L10.81,76.12,24.1,62.83a16.27,16.27,0,0,1,23,0L58.33,74.09l5.4-5.4L52.47,57.43a23.88,23.88,0,0,0-33.78,0L0,76.12,18.69,94.81A23.88,23.88,0,0,0,52.47,94.81Z"/><path class="cls-18" d="M122.3,104.41V122.3H104.44a26.76,26.76,0,0,1-2.84,7.56c.63,0,1.26.08,1.91.08h26.43V103.51c0-.65,0-1.3-.08-1.93A26.93,26.93,0,0,1,122.3,104.41Z"/><path class="cls-19" d="M29.94,122.3V104.41a26.93,26.93,0,0,1-7.56-2.83c-.05.63-.09,1.28-.09,1.93v26.43H48.73c.64,0,1.28,0,1.91-.09a26.7,26.7,0,0,1-2.84-7.55Z"/><path class="cls-20" d="M29.94,47.82V29.94H47.8a26.76,26.76,0,0,1,2.84-7.56c-.63-.05-1.27-.09-1.91-.09H22.29V48.73c0,.65.05,1.29.1,1.92A27.18,27.18,0,0,1,29.94,47.82Z"/><path class="cls-21" d="M122.3,29.94V47.82a27.27,27.27,0,0,1,7.56,2.84c0-.64.08-1.28.08-1.93V22.29H103.51c-.65,0-1.28,0-1.91.09a26.76,26.76,0,0,1,2.84,7.56Z"/></g></g></svg>