<svg xmlns="http://www.w3.org/2000/svg" xmlns:xlink="http://www.w3.org/1999/xlink" viewBox="0 0 569.7 152.24"><defs><style>.cls-1{fill:#fff;}.cls-2{fill:url(#New_Gradient_Swatch);}.cls-3{fill:url(#New_Gradient_Swatch-2);}.cls-4{fill:url(#New_Gradient_Swatch-3);}.cls-5{fill:url(#New_Gradient_Swatch-4);}.cls-6{fill:url(#New_Gradient_Swatch-5);}.cls-7{fill:url(#New_Gradient_Swatch-6);}.cls-8{fill:url(#New_Gradient_Swatch-7);}.cls-9{fill:url(#New_Gradient_Swatch-8);}</style><linearGradient id="New_Gradient_Swatch" x1="65.23" y1="-25.94" x2="93.68" y2="134.78" gradientUnits="userSpaceOnUse"><stop offset="0" stop-color="#fed88f"/><stop offset="1" stop-color="#d9b77a"/></linearGradient><linearGradient id="New_Gradient_Swatch-2" x1="96.01" y1="-31.39" x2="124.46" y2="129.33" xlink:href="#New_Gradient_Swatch"/><linearGradient id="New_Gradient_Swatch-3" x1="51.32" y1="-23.48" x2="79.76" y2="137.24" xlink:href="#New_Gradient_Swatch"/><linearGradient id="New_Gradient_Swatch-4" x1="20.77" y1="-18.07" x2="49.21" y2="142.65" xlink:href="#New_Gradient_Swatch"/><linearGradient id="New_Gradient_Swatch-5" x1="89.89" y1="-30.3" x2="118.33" y2="130.42" xlink:href="#New_Gradient_Swatch"/><linearGradient id="New_Gradient_Swatch-6" x1="10.6" y1="-16.27" x2="39.04" y2="144.45" xlink:href="#New_Gradient_Swatch"/><linearGradient id="New_Gradient_Swatch-7" x1="26.67" y1="-19.11" x2="55.11" y2="141.6" xlink:href="#New_Gradient_Swatch"/><linearGradient id="New_Gradient_Swatch-8" x1="105.95" y1="-33.15" x2="134.4" y2="127.57" xlink:href="#New_Gradient_Swatch"/></defs><title>luxcity_logo</title><g id="Layer_2" data-name="Layer 2"><g id="Layer_1-2" data-name="Layer 1"><path class="cls-1" d="M178.49,22.56h12.68V91.68H212V103.2H178.49Z"/><path class="cls-1" d="M248.07,22.56V84.77c0,5.88,2.54,7.84,6.57,7.84s6.57-2,6.57-7.84V22.56h12V84c0,13-6.46,20.28-18.9,20.28S235.4,97,235.4,84V22.56Z"/><path class="cls-1" d="M342.54,22.56,329.29,61.73l14.17,41.47H330.09L319.72,71.29,309.24,103.2H297.38l14.17-41.47L298.3,22.56h13.13L321,52.28l9.79-29.72Z"/><path class="cls-1" d="M403.24,73.14V83.85c0,13-6.45,20.28-18.89,20.28s-18.89-7.26-18.89-20.28V41.92c0-13,6.45-20.28,18.89-20.28s18.89,7.26,18.89,20.28v7.83h-12V41.11c0-5.88-2.53-8-6.56-8s-6.57,2.07-6.57,8V84.66c0,5.87,2.53,7.83,6.57,7.83s6.56-2,6.56-7.83V73.14Z"/><path class="cls-1" d="M429.39,22.56h12.67V103.2H429.39Z"/><path class="cls-1" d="M466,22.56h39.17V34.08H491.94V103.2H479.27V34.08H466Z"/><path class="cls-1" d="M541,76.48,525,22.56h13.25l9.68,36.75,9.68-36.75H569.7l-16,53.92V103.2H541Z"/><path class="cls-1" d="M181.82,120.1h-4v-.74h8.88v.74h-4v10.46h-.81Z"/><path class="cls-1" d="M199,119.36v11.2h-.82v-5.33H190.7v5.33h-.82v-11.2h.82v5.15h7.48v-5.15Z"/><path class="cls-1" d="M211.83,129.83v.73H204.1v-11.2h7.49v.74h-6.67v4.41h6v.72h-6v4.6Z"/><path class="cls-1" d="M221.32,119.36h.82v10.47h6.44v.73h-7.26Z"/><path class="cls-1" d="M232.74,129.41a5,5,0,0,1-1.18-3.6v-6.45h.82v6.42a4.45,4.45,0,0,0,.94,3.09,4.16,4.16,0,0,0,5.46,0,4.5,4.5,0,0,0,.94-3.09v-6.42h.82v6.45a5,5,0,0,1-1.19,3.6,5.06,5.06,0,0,1-6.61,0Z"/><path class="cls-1" d="M252.41,130.56l-3.86-5.18-3.84,5.18h-1l4.31-5.77-4-5.43h1l3.56,4.82,3.57-4.82h.91l-4,5.41,4.31,5.79Z"/><path class="cls-1" d="M257.78,129.41a5,5,0,0,1-1.18-3.6v-6.45h.82v6.42a4.45,4.45,0,0,0,.94,3.09,4.16,4.16,0,0,0,5.46,0,4.5,4.5,0,0,0,.94-3.09v-6.42h.82v6.45a5,5,0,0,1-1.19,3.6,5.06,5.06,0,0,1-6.61,0Z"/><path class="cls-1" d="M278.36,130.56l-2.67-3.74a8.88,8.88,0,0,1-1.09.08h-3.2v3.66h-.82v-11.2h4a5,5,0,0,1,3.31,1,3.42,3.42,0,0,1,1.2,2.78,3.63,3.63,0,0,1-.68,2.23,3.57,3.57,0,0,1-1.94,1.27l2.8,3.92Zm-3.76-4.38a4.22,4.22,0,0,0,2.74-.79,3.16,3.16,0,0,0,0-4.5,4.16,4.16,0,0,0-2.74-.79h-3.2v6.08Z"/><path class="cls-1" d="M286.6,126.71v3.85h-.82v-3.85l-4.51-7.35h.9l4.05,6.59,4-6.59h.85Z"/><path class="cls-1" d="M308.78,119.36v11.2H308v-5.33h-7.49v5.33h-.81v-11.2h.81v5.15H308v-5.15Z"/><path class="cls-1" d="M315.65,129.9a5.51,5.51,0,0,1-2.08-2,5.89,5.89,0,0,1,0-5.79,5.37,5.37,0,0,1,2.08-2,6,6,0,0,1,3-.75,6.07,6.07,0,0,1,3,.74,5.41,5.41,0,0,1,2.08,2,5.88,5.88,0,0,1,0,5.82,5.37,5.37,0,0,1-2.08,2,6.41,6.41,0,0,1-6,0Zm5.53-.65a4.82,4.82,0,0,0,1.79-1.77,5.21,5.21,0,0,0,0-5,4.82,4.82,0,0,0-1.79-1.77,5.4,5.4,0,0,0-5.1,0,4.78,4.78,0,0,0-1.8,1.77,5.14,5.14,0,0,0,0,5,4.78,4.78,0,0,0,1.8,1.77,5.4,5.4,0,0,0,5.1,0Z"/><path class="cls-1" d="M330.47,120.1h-4v-.74h8.88v.74h-4v10.46h-.82Z"/><path class="cls-1" d="M346.26,129.83v.73h-7.72v-11.2H346v.74h-6.67v4.41h6v.72h-6v4.6Z"/><path class="cls-1" d="M350.44,119.36h.81v10.47h6.45v.73h-7.26Z"/><path class="cls-1" d="M373.24,127.41h-6.5l-1.42,3.15h-.88l5.15-11.2h.82l5.15,11.2h-.88Zm-.31-.69L370,120.26l-2.93,6.46Z"/><path class="cls-1" d="M387.91,119.36v11.2h-.67l-7.63-9.73v9.73h-.82v-11.2h.69l7.61,9.73v-9.73Z"/><path class="cls-1" d="M393,119.36h4.44a6.46,6.46,0,0,1,3.09.72,5.39,5.39,0,0,1,2.11,2,5.94,5.94,0,0,1,0,5.78,5.32,5.32,0,0,1-2.11,2,6.46,6.46,0,0,1-3.09.72H393Zm4.37,10.47a5.86,5.86,0,0,0,2.74-.62,4.38,4.38,0,0,0,1.82-1.72,5.32,5.32,0,0,0,0-5.06,4.45,4.45,0,0,0-1.82-1.72,5.85,5.85,0,0,0-2.74-.61h-3.55v9.73Z"/><path class="cls-1" d="M419.67,127.41h-6.5l-1.42,3.15h-.88l5.15-11.2h.82l5.15,11.2h-.88Zm-.3-.69-2.95-6.46-2.93,6.46Z"/><path class="cls-1" d="M432.55,120.36a3.8,3.8,0,0,1,0,5.54,5,5,0,0,1-3.31,1H426v3.66h-.82v-11.2h4A5,5,0,0,1,432.55,120.36Zm-.58,5a2.75,2.75,0,0,0,.95-2.24,2.78,2.78,0,0,0-.95-2.25,4.13,4.13,0,0,0-2.73-.79H426v6.06h3.2A4.19,4.19,0,0,0,432,125.38Z"/><path class="cls-1" d="M444.07,127.41h-6.5l-1.42,3.15h-.88l5.15-11.2h.82l5.15,11.2h-.88Zm-.3-.69-2.95-6.46-2.93,6.46Z"/><path class="cls-1" d="M457.4,130.56l-2.68-3.74a8.6,8.6,0,0,1-1.08.08h-3.2v3.66h-.82v-11.2h4a5,5,0,0,1,3.31,1,3.42,3.42,0,0,1,1.2,2.78,3.63,3.63,0,0,1-.68,2.23,3.57,3.57,0,0,1-1.94,1.27l2.8,3.92Zm-3.76-4.38a4.19,4.19,0,0,0,2.73-.79,3.14,3.14,0,0,0,0-4.5,4.13,4.13,0,0,0-2.73-.79h-3.2v6.08Z"/><path class="cls-1" d="M464.32,120.1h-4v-.74h8.88v.74h-4v10.46h-.82Z"/><path class="cls-1" d="M483,130.56V121l-4.69,8.09h-.4L473.19,121v9.55h-.8v-11.2h.69l5,8.66,5-8.66h.67l0,11.2Z"/><path class="cls-1" d="M496.61,129.83v.73h-7.72v-11.2h7.48v.74H489.7v4.41h6v.72h-6v4.6Z"/><path class="cls-1" d="M509.91,119.36v11.2h-.67l-7.64-9.73v9.73h-.81v-11.2h.69l7.61,9.73v-9.73Z"/><path class="cls-1" d="M517.16,120.1h-4v-.74H522v.74h-4v10.46h-.81Z"/><path class="cls-2" d="M57.43,52.47,79.07,74.11l5.4-5.4L62.83,47.07a16.27,16.27,0,0,1,0-23L76.12,10.81,89.41,24.1a16.27,16.27,0,0,1,0,23L78.15,58.33l5.4,5.4L94.81,52.47a23.88,23.88,0,0,0,0-33.78L76.12,0,57.43,18.69A23.88,23.88,0,0,0,57.43,52.47Z"/><path class="cls-3" d="M133.55,57.43a23.88,23.88,0,0,0-33.78,0L78.33,78.86l5.4,5.41,21.44-21.44a16.27,16.27,0,0,1,23,0l13.29,13.29L128.14,89.41a16.27,16.27,0,0,1-23,0L93.88,78.12l-5.4,5.4L99.77,94.81a23.88,23.88,0,0,0,33.78,0l18.69-18.69Z"/><path class="cls-4" d="M94.81,99.77,73.17,78.13l-5.43,5.43,21.67,21.61a16.27,16.27,0,0,1,0,23L76.12,141.43,62.83,128.14a16.27,16.27,0,0,1,0-23L74.06,93.94l-5.4-5.41L57.43,99.77a23.88,23.88,0,0,0,0,33.78l18.69,18.69,18.69-18.69A23.88,23.88,0,0,0,94.81,99.77Z"/><path class="cls-5" d="M52.47,94.81,74.32,73l-5.41-5.41L47.07,89.41a16.27,16.27,0,0,1-23,0L10.81,76.12,24.1,62.83a16.27,16.27,0,0,1,23,0L58.33,74.09l5.4-5.4L52.47,57.43a23.88,23.88,0,0,0-33.78,0L0,76.12,18.69,94.81A23.88,23.88,0,0,0,52.47,94.81Z"/><path class="cls-6" d="M122.3,104.41V122.3H104.44a26.76,26.76,0,0,1-2.84,7.56c.63,0,1.26.08,1.91.08h26.43V103.51c0-.65,0-1.3-.08-1.93A26.93,26.93,0,0,1,122.3,104.41Z"/><path class="cls-7" d="M29.94,122.3V104.41a26.93,26.93,0,0,1-7.56-2.83c-.05.63-.09,1.28-.09,1.93v26.43H48.73c.64,0,1.28,0,1.91-.09a26.7,26.7,0,0,1-2.84-7.55Z"/><path class="cls-8" d="M29.94,47.82V29.94H47.8a26.76,26.76,0,0,1,2.84-7.56c-.63-.05-1.27-.09-1.91-.09H22.29V48.73c0,.65.05,1.29.1,1.92A27.18,27.18,0,0,1,29.94,47.82Z"/><path class="cls-9" d="M122.3,29.94V47.82a27.27,27.27,0,0,1,7.56,2.84c0-.64.08-1.28.08-1.93V22.29H103.51c-.65,0-1.28,0-1.91.09a26.76,26.76,0,0,1,2.84,7.56Z"/></g></g></svg>