<?xml version="1.0" standalone="no"?>
<!DOCTYPE svg PUBLIC "-//W3C//DTD SVG 1.1//EN" "http://www.w3.org/Graphics/SVG/1.1/DTD/svg11.dtd" >
<svg xmlns="http://www.w3.org/2000/svg">
<metadata>Generated by IcoMoon</metadata>
<defs>
<font id="bettamarket" horiz-adv-x="1024">
<font-face units-per-em="1024" ascent="960" descent="-64" />
<missing-glyph horiz-adv-x="1024" />
<glyph unicode="&#x20;" horiz-adv-x="512" d="" />
<glyph unicode="&#xe900;" glyph-name="auction-fish" horiz-adv-x="853" d="M188.487 955.984l-10.039-10.039c11.043-8.031 27.106-8.031 39.153 0l-10.039 10.039c-3.012 3.012-6.024 4.016-10.039 4.016-3.012 0-7.027-1.004-9.035-4.016zM21.835 859.608c-12.047-17.067-18.071-36.142-16.063-57.224l96.376 95.373c-33.129 2.008-61.239-11.043-80.314-38.149zM16.817 740.141c2.008 3.012 4.016 6.025 5.020 10.039 3.012 11.044 1.004 23.090-6.024 32.125l-2.807-2.806-0.206 0.798-9.035-9.035c-5.020-5.020-5.020-14.055 0-19.075l12.047-13.051c0.262 0.393 0.524 0.803 0.784 1.226l0.221-0.222zM79.060 678.902c12.047 12.047 30.117 13.051 43.168 3.012l-14.055-14.055c-5.020-5.020-14.054-5.020-19.074 0l-10.344 10.344c0.171 0.098 0.305 0.331 0.305 0.699zM78.056 678.902c0-0.636 0.403-0.869 0.699-0.699l-0.699 0.699zM152.345 865.631c-27.106 0-48.188-22.086-48.188-48.188 0-27.106 22.086-48.188 48.188-48.188 27.106 0 48.188 22.086 48.188 48.188s-21.082 48.188-48.188 48.188zM185.475 785.318c-3.012-3.012-7.027-3.012-10.039-1.004-1.004 1.004-2.008 2.008-4.016 3.012h-1.004l-5.020-5.020c-3.012-3.012-5.020-3.012-8.031-3.012-2.008 0-4.016 1.004-5.020 3.012-2.008 2.008-4.016 6.024 1.004 11.043l16.063 16.063c2.008 3.012 2.008 5.020 0 7.027-1.004 1.004-3.012 2.008-6.024-1.004-1.004-0.502-1.757-1.255-2.51-2.008s-1.506-1.506-2.51-2.008l-3.012-3.012c-8.031-8.031-19.075-9.035-27.106-2.008-9.035 7.027-10.039 17.067-5.020 27.106 0 0.502 0.251 0.753 0.502 1.004s0.502 0.502 0.502 1.004c-5.020 6.024-7.027 11.043-2.008 15.059 4.434 4.433 8.085 1.818 10.952-0.237v0c0.378-0.271 0.744-0.533 1.095-0.767 0.577-0.577 0.822-0.823 1.117-0.928 0.219-0.076 0.464-0.076 0.89-0.076l5.020 4.016c1.004 1.004 2.008 2.008 4.016 3.012 3.012 2.008 7.027 2.008 10.039 0 3.012-3.012 3.012-7.027 0-11.043-0.711-0.712-1.297-1.423-1.845-2.089-1-1.216-1.877-2.282-3.174-2.93l-12.047-12.047c-3.012-4.016-2.008-6.024-1.004-7.027 0.173-0.086 0.337-0.173 0.497-0.256 1.706-0.89 2.859-1.494 6.531 1.26l7.027 7.027c9.035 8.031 19.075 9.035 28.11 3.012 8.031-6.024 10.039-16.063 5.020-27.106 0-0.502-0.251-0.753-0.502-1.004s-0.502-0.502-0.502-1.004v-1.004c1.004-1.004 2.008-2.008 2.008-4.016 3.012-5.020 3.012-9.035 0-12.047zM231.655 931.89l35.137-35.137c-21.082-21.082-21.082-52.203-2.008-74.29l-127.498-126.494c-21.082 18.071-52.204 17.067-72.282-3.012-1.004 0-1.004-1.005-1.004-1.005l-33.129 33.13c17.067 21.082 17.067 51.2-2.008 71.278l134.525 135.529c10.039-7.027 21.082-12.047 34.133-12.047s24.094 4.016 34.133 12.047zM84.078 817.443c0-38.149 30.118-69.271 68.267-69.271s68.267 31.122 68.267 69.271c0 37.145-30.118 68.266-68.267 68.266-37.145 0-68.267-30.117-68.267-68.266zM278.841 837.522c-11.043 13.051-10.039 32.126 2.008 44.173l1.004 1.004 12.047-12.047c5.020-5.020 5.020-14.055 0-19.075l-15.059-14.055zM781.805-48.941c5.020 3.012 9.035 5.020 14.055 7.027 34.133 16.063 56.22 33.129 47.184 116.455-2.008 20.078-5.020 39.154-8.031 58.228-2.008 8.030-3.012 16.063-4.016 24.093-1.611 12.887-3.509 25.487-5.387 37.952v0.003l-0.002 0.010-0.001 0.009c-1.632 10.834-3.249 21.567-4.649 32.3-3.012 25.098-9.035 46.18-16.063 67.263-42.165 116.455-155.608 195.766-281.098 196.769-23.090 0-46.18 2.008-68.267 7.027-105.412 22.087-191.749 96.377-231.906 200.784-5.020 13.051-10.039 28.11-15.059 43.169l-86.337-86.336c-7.027-7.028-15.059-10.039-24.094-10.039s-17.067 3.011-24.094 10.039l-34.133 34.132c12.047-34.132 25.098-68.267 38.149-99.387 27.106-65.255 57.224-121.476 90.353-171.672 5.020-8.031 10.039-16.063 14.055-25.098 14.055-29.114 21.082-60.234 21.082-92.36v-241.946c0-20.078 4.016-38.148 12.047-54.211 24.094-45.176 60.235-68.268 109.427-68.268h249.976c37.145 0 67.263 27.107 72.282 63.248l4.016 32.125c0 1.004 0 3.012 3.012 3.012 2.008 0 3.012-1.005 3.012-3.012l12.047-54.213c3.012-12.047 9.035-22.086 19.075-30.118s22.086-12.047 34.133-12.047c21.082 0 41.161 5.020 59.231 15.059zM498.698 546.385c51.2 0 101.396 21.082 138.541 57.224 36.141 36.141 56.22 85.333 56.22 137.537 0 53.208-20.078 101.396-57.224 138.541-37.145 36.141-86.337 56.22-136.533 55.216-50.196 1.004-99.388-20.078-136.533-55.216-37.145-37.145-57.224-85.333-57.224-138.541-1.004-107.42 86.337-194.761 192.753-194.761z" />
<glyph unicode="&#xe901;" glyph-name="event-fish" horiz-adv-x="1002" d="M653.276 809.378l85.081 1.126v127.937c0 12.016-9.824 21.713-21.839 21.556l-43.116-0.563c-11.795-0.154-21.277-9.76-21.277-21.556v-89.085l1.15-39.415zM71.141 843.872c-39.882 0-71.141-32.337-71.141-71.141v-149.827h998.131v149.827c0 39.882-32.337 71.141-71.141 71.141h-173.541v-28.025c0-11.857-9.701-20.48-20.48-20.48h-80.842c-11.857 0-20.48 9.701-20.48 20.48v28.025h-277.019v-28.025c0-11.857-9.701-20.48-20.48-20.48h-80.842c-11.857 0-20.48 9.701-20.48 20.48v28.025h-161.684zM253.305 809.378v36.037c1.165 1.125 1.165 3.378 1.165 4.505 0 2.252 0 4.504-1.165 5.631v82.328c0 11.796 9.481 21.402 21.277 21.556l43.116 0.563c12.015 0.157 21.839-9.54 21.839-21.556v-127.937l-86.232-1.126zM71.141-62.638h855.848c39.882 0 71.141 32.337 71.141 71.141v592.842h-998.131v-592.842c0-39.882 32.337-71.141 71.141-71.141zM261.928 344.807c1.078 4.312 4.312 6.467 8.623 7.545l147.672 21.558 65.752 132.581c3.234 7.545 16.168 7.545 19.402 0l65.752-133.659 147.672-21.558c4.312-1.078 7.545-3.234 8.623-7.545s0-8.623-3.234-10.779l-106.712-104.556 24.792-146.594c1.078-4.312-1.078-8.623-4.312-10.779-2.156-1.078-4.312-2.156-6.467-2.156s-3.234 0-5.389 1.078l-130.425 70.063-132.581-68.985c-3.234-2.156-7.545-1.078-11.857 1.078-3.234 2.156-5.389 6.467-4.312 10.779l24.792 146.594-106.712 104.556c-2.156 2.156-3.234 6.467-1.078 10.779zM370.795 99.047l22.636 131.503c0 4.312-1.078 7.545-3.234 10.779l-94.855 92.699 129.347 18.324c4.312 0 7.545 2.156 8.623 5.389l59.284 119.646 59.284-119.646c2.156-2.156 5.389-5.389 8.623-5.389l131.503-18.324-94.855-92.699c-2.156-2.156-4.312-6.467-3.234-9.701l22.636-131.503-117.491 61.44c-2.156 1.078-3.234 1.078-5.389 1.078s-4.312 0-5.389-1.078l-117.491-62.518z" />
<glyph unicode="&#xe902;" glyph-name="event-fish-o" horiz-adv-x="1013" d="M267.317 774.602c-11.857 0-20.48 9.701-20.48 20.48v28.025h-150.904c-39.882 0-71.141-32.337-71.141-71.14v-128.271h964.715v128.271c0 39.881-32.337 71.14-71.141 71.14h-151.982v-26.947c0-11.857-8.624-21.558-20.481-21.558h-80.842c-11.857 0-20.48 9.701-20.48 20.48v28.025h-275.942v-26.947c0-11.857-9.701-21.558-20.48-21.558h-80.842zM24.792 602.139v-571.284c0-39.881 32.337-71.141 71.141-71.141h822.433c39.882 0 71.141 32.338 71.141 71.141v571.284h-964.715zM246.837 844.665v94.855c0 11.857 9.701 20.48 20.48 20.48h80.842c11.857 0 20.48-9.701 20.48-20.48v-94.855h275.942v94.855c0 11.857 9.701 20.48 20.48 20.48h80.842c11.857 0 20.481-9.701 20.481-20.48v-94.855h151.982c51.739 0 92.699-42.038 92.699-92.698v-721.113c1.078-51.739-40.96-92.699-92.699-92.699h-822.433c-51.739 0-92.699 42.039-92.699 92.699v721.113c0 51.738 42.038 92.698 92.699 92.698h150.904zM266.982 839.658c0.915-1.618 1.414-3.57 1.414-5.772 0-2.132-0.468-4.030-1.328-5.616l0.249-33.188 79.764 1.078v143.36l-80.842-1.078 0.743-98.784zM745.903 833.886v105.634h-1.077l-79.765-1.078 1.078-143.36 79.764 1.078v37.726zM639.193 70.737c2.156-1.079 3.234-1.079 5.389-1.079s4.312 1.078 3.234 3.235c3.234 2.155 5.389 6.466 4.312 10.779l-24.792 146.594 106.712 104.556c3.234 2.156 4.311 6.466 3.233 10.779s-4.311 6.467-8.622 7.545l-147.673 21.558-65.751 133.658c-2.156 4.313-5.391 6.468-9.702 6.468s-7.544-3.235-9.7-6.468l-65.753-133.658-147.671-21.558c-4.312-1.078-7.546-3.234-8.624-7.545-1.078-3.234 0.001-7.546 3.235-10.779l106.712-104.556-24.792-146.594c-1.078-4.313 1.078-8.624 4.312-10.779 4.312-2.157 8.623-3.235 11.857-1.079l132.581 68.986 131.503-70.063zM403.133 242.121l-94.854 92.7 128.269 19.401c4.312 0 7.545 2.157 8.623 5.389l59.284 119.647 59.284-119.647c2.156-2.156 5.389-5.389 8.623-5.389l131.503-19.401-94.855-92.7c-2.156-2.155-4.312-6.467-3.234-9.7l22.636-131.503-117.492 61.44c-3.234 2.156-6.466 2.156-9.7 0l-117.491-61.44 22.636 131.503c0 3.233-1.079 7.545-3.235 9.7z" />
<glyph unicode="&#xe903;" glyph-name="show-fish" horiz-adv-x="1079" d="M1073.548 735.381v116.714l-1.101 1.101h-28.628c-3.303-1.101-5.505-1.101-8.809 0h-224.619c-6.606 0-12.112 5.505-12.112 12.112s5.505 12.112 12.112 12.112h216.912v80.378c0 1.101-1.101 2.202-2.202 2.202h-975.553c-1.101 0-2.202-1.101-2.202-2.202v-80.378h651.837c6.606 0 12.112-5.505 12.112-12.112s-5.505-12.112-12.112-12.112h-660.645c-2.202-1.101-5.505-1.101-7.708 0h-28.628c-1.101 0-2.202-1.101-2.202-1.101v-116.714c0-1.101 1.101-2.202 2.202-2.202h1069.144c1.101 0 2.202 1.101 2.202 2.202zM1046.022 152.911c-27.527-28.628-84.783-51.752-123.32-63.863-4.404 8.81-3.303 19.82 2.202 33.032 13.213 25.326 25.325 53.954 6.606 85.885-2.202 3.303-4.404 6.606-7.708 11.011-5.505 6.606-9.91 13.212-9.91 18.717-0.987 5.92 2.448 11.84 6.341 18.552 0.451 0.778 0.908 1.568 1.366 2.37 1.101 2.202 2.202 5.505 1.101 8.809s-2.202 5.504-5.505 7.708c-2.202 1.1-5.505 2.202-8.809 1.101s-5.505-2.202-7.708-5.505c-5.505-9.91-12.112-22.022-11.011-36.335 1.101-12.112 7.708-22.022 14.314-30.83 1.101-1.653 2.202-3.028 3.303-4.404s2.202-2.753 3.303-4.404c11.011-19.819 5.505-36.335-7.708-61.661-11.011-18.717-13.213-36.334-6.606-51.749l-19.819-3.304c1.101 4.405 1.101 8.81 1.101 12.113-1.077 10.772-7.423 18.382-12.854 24.893l-0.359 0.432c-0.551 1.1-1.376 2.201-2.202 3.303s-1.652 2.202-2.202 3.302c-7.708 13.213-4.404 24.225 6.606 41.842 16.516 26.426 6.606 44.043 0 51.749-2.202 2.202-5.505 4.405-8.809 4.405s-6.606-1.101-8.809-3.303c-3.303-2.202-4.404-5.505-4.404-8.809s1.101-6.608 3.303-8.81c1.101-1.1 6.606-7.706-2.202-22.022-8.809-14.314-24.224-40.739-5.505-68.266 1.101-1.652 2.202-3.028 3.303-4.404s2.202-2.753 3.303-4.405c4.404-4.404 7.708-8.808 7.708-12.111s-2.202-7.708-4.404-11.011c-7.706 0-14.313 1.1-20.919 2.201l-0.001 0.001c-20.487 3.073-40.973 12.817-60.575 22.138-1.468 0.698-2.931 1.394-4.389 2.085-2.202 1.101-4.68 2.201-7.157 3.302s-4.955 2.203-7.157 3.304c-37.437 17.616-83.682 25.325-131.028 20.92-13.213-1.101-28.628-3.303-44.043-6.606-6.606-1.101-9.91-7.709-8.809-14.314 1.101-3.304 2.202-5.505 5.505-7.708 2.202-1.101 5.505-2.202 8.809-1.101 14.314 3.303 27.527 5.505 40.74 6.606 42.942 3.303 84.783-2.203 118.916-18.719l13.213-6.605h1.101c23.123-11.011 46.245-22.022 71.57-26.427 9.91-1.1 20.92-2.201 31.931-2.201 57.256 0 142.039 24.224 189.385 64.963v-182.778h-1020.697v120.016c1.51 0.682 3.042 1.373 4.593 2.073 56.115 25.345 138.329 62.476 210.117 47.475 16.516-3.303 30.83-11.010 46.245-19.818 13.213-7.708 26.426-14.314 40.74-19.819 28.628-9.911 62.761-11.011 100.198-4.405 29.729 5.505 57.256 14.315 84.783 23.124l8.809 3.303c6.606 2.201 9.91 8.809 7.708 15.415s-8.809 9.909-15.415 7.706l-8.809-3.302c-5.015-1.463-10.072-2.966-15.159-4.478-21.717-6.455-44.019-13.083-66.321-17.543-33.032-6.606-62.761-5.506-88.086 3.302-11.011 4.405-22.022 9.911-31.931 15.416-5.505 8.809-4.404 20.92 3.303 35.234 13.213 25.325 25.325 53.952 6.606 85.884-1.412 2.823-3.276 5.194-5.012 7.403-0.972 1.237-1.905 2.422-2.695 3.608-5.505 6.605-9.91 13.213-9.91 18.718-0.987 5.919 2.448 11.839 6.34 18.551 0.453 0.778 0.909 1.568 1.368 2.37 1.101 2.202 2.202 5.505 1.101 8.809s-3.303 5.505-5.505 7.708c-2.202 1.101-5.505 2.202-8.809 1.101s-5.505-2.202-7.708-5.505c-5.505-9.91-12.112-22.022-11.011-36.335 1.101-12.112 7.708-22.022 14.314-30.831 1.101-1.652 2.202-3.028 3.303-4.404s2.202-2.752 3.303-4.403c11.011-18.718 5.505-36.335-7.708-61.66-6.606-11.011-9.91-22.022-9.91-31.931-9.91 4.404-19.819 7.708-28.628 9.91-7.708 1.101-16.516 2.202-26.426 3.303-8.809 12.111-7.708 29.728 4.404 50.648 18.718 31.932 36.335 70.47 9.91 111.21-1.652 2.202-3.578 4.68-5.505 7.157s-3.854 4.954-5.505 7.157c-6.606 8.808-13.213 17.617-14.314 26.426 0 9.91 5.505 20.92 12.112 30.83 4.404 5.505 2.202 13.213-3.303 16.516-6.606 4.404-14.314 2.202-17.617-3.303-7.708-13.213-16.516-28.628-15.415-46.245 1.082-16.228 10.666-28.203 19.356-39.060l0.464-0.579c3.303-4.404 6.606-8.809 8.809-13.213 16.516-26.426 8.809-51.752-11.011-85.885-14.314-23.121-17.617-44.043-11.011-62.76-14.314-1.101-29.729-3.303-45.144-6.606 2.202 6.606 2.202 12.112 2.202 17.617-1.101 13.212-7.708 23.123-14.314 31.931-0.772 2.317-2.087 4.093-3.563 6.086-0.628 0.849-1.285 1.736-1.942 2.722-11.011 19.82-5.505 36.337 7.708 61.661 16.516 31.931 9.91 51.751 0 63.862-2.202 2.202-5.505 4.404-8.809 4.404-3.303 1.101-6.606 0-8.809-2.202s-4.404-5.505-4.404-8.809c-1.101-3.303 0-6.606 2.202-8.809 6.606-8.809 6.606-20.92-2.202-36.335-14.314-24.224-26.426-53.953-7.707-86.985 2.202-3.304 4.404-6.606 7.707-11.011 5.505-6.606 9.91-13.213 9.91-18.718 1.101-6.606-3.303-14.314-7.708-20.92-1.101-1.101-1.101-2.203-1.101-3.303-31.931-9.911-61.66-22.022-89.187-35.234v627.613h1019.595v-554.942zM126.624 333.487h3.303c9.91 2.202 16.516 11.011 14.314 20.92s-11.011 16.516-20.92 15.415c-8.809-2.202-16.516-11.011-14.314-20.92 1.101-8.809 8.808-15.415 17.617-15.415zM790.572 466.717v2.202c0 0 0 1.101 2.202 0v2.202c0 0.551-0.275 0.826-0.551 1.101s-0.551 0.551-0.551 1.101c0 1.101-1.101 2.202-1.101 2.202l-3.303 3.303c-40.74 28.628-89.187 42.942-138.735 42.942-89.187 0-171.768-49.548-215.811-127.725-3.303-5.505-1.101-13.213 4.404-16.516 1.101-1.101 3.303-1.101 5.505-1.101 4.404 0 8.809 2.202 11.011 6.606 38.538 70.469 113.411 114.512 193.789 114.512 40.74 0 80.378-11.011 115.613-33.032-35.234-79.277-114.512-129.927-201.497-129.927-44.043 0-86.985 13.213-124.422 38.538-30.83 20.92-56.155 49.548-72.671 82.581-2.202 3.303-4.404 5.505-7.708 6.606s-6.606 0-9.91-1.101c-6.606-3.303-8.809-9.91-5.505-16.516 16.516-33.032 41.841-63.862 74.873-85.884-1.101-1.101-1.101-2.202-1.101-2.202-0.551-1.101-0.826-1.927-1.101-2.753s-0.551-1.652-1.101-2.753c-7.708-24.224-11.011-49.548-11.011-74.873 0-6.606 5.505-12.112 12.112-12.112s12.112 5.505 12.112 12.112c0 23.123 3.303 45.144 9.91 67.166v1.101c38.538-22.022 81.48-34.133 125.523-34.133 101.299 0 191.587 61.66 229.024 155.252v1.101zM683.768 463.414c-9.91 0-17.617-7.708-17.617-17.617s7.708-18.718 17.617-17.617c9.91 0 17.617 7.708 17.617 17.617s-7.708 17.617-17.617 17.617zM819.2 258.614c1.101-8.81 9.91-14.314 18.718-13.213 9.91 1.101 15.415 9.909 13.213 18.718-1.101 8.808-9.91 14.314-18.718 13.213s-14.314-9.911-13.213-18.718z" />
<glyph unicode="&#xe904;" glyph-name="show-fish-o" horiz-adv-x="1089" d="M1062.128 854.332h-21.787v80.613c0 14.162-10.894 25.055-25.055 25.055h-943.387c-14.162 0-25.055-10.894-25.055-25.055v-80.613h-21.787c-14.162 0-25.055-10.894-25.055-25.055v-115.472c0-14.162 10.894-25.055 25.055-25.055h1.089v-747.302h1033.804v187.37c3.268 4.357 3.268 9.804 0 14.162v545.77h1.089c14.162 0 25.055 10.894 25.055 25.055v115.472c1.089 14.162-10.894 25.055-23.966 25.055zM1038.162 137.532c-28.323-29.413-65.362-51.2-102.4-64.272-5.447 8.715-4.357 20.698 3.268 35.949 13.072 23.966 25.055 52.289 6.536 83.881-1.089 1.634-2.451 3.54-3.813 5.447s-2.723 3.813-3.813 5.447c-5.447 6.536-9.804 13.072-9.804 18.519-1.089 6.536 3.268 14.162 7.626 21.787 3.268 5.447 1.089 11.983-3.268 15.251-5.447 3.268-11.983 1.089-15.251-3.268-6.536-9.804-11.983-21.787-10.894-34.86s7.626-21.787 14.162-30.502c2.179-3.268 4.357-6.536 6.536-8.715 11.983-19.609 6.536-37.038-7.626-62.094-11.983-22.877-10.894-40.306-5.447-51.2-7.626-2.179-15.251-3.268-23.966-3.268 1.089 4.357 2.179 8.715 2.179 13.072-0.87 8.701-5.215 14.621-9.148 19.983-0.992 1.351-1.958 2.667-2.835 3.983-1.089 1.089-1.906 2.179-2.723 3.268s-1.634 2.179-2.723 3.268c-8.715 13.072-4.357 25.055 6.536 42.485 15.251 25.055 6.536 41.396 0 49.021-4.357 4.357-10.894 5.447-15.251 1.089s-5.447-10.894-1.089-15.251c2.179-2.179 7.626-8.715-2.179-23.966-8.715-14.162-23.966-39.217-5.447-66.451 1.089-1.634 2.179-2.996 3.268-4.357s2.179-2.723 3.268-4.357c0.78-1.040 1.622-2.080 2.452-3.105 2.647-3.27 5.173-6.39 5.173-8.878 0-3.268-2.179-7.626-4.357-11.983-6.766 0-12.675 0.857-19.248 1.813h-0.002l-2.537 0.366c-21.787 3.268-43.574 14.162-64.272 25.055-2.177 1.088-4.625 2.177-7.073 3.265l-0.015 0.007c-2.448 1.088-4.897 2.177-7.073 3.265-38.128 17.43-82.791 25.055-129.634 20.698-14.162-1.089-28.323-3.268-43.574-6.536-5.447-1.089-9.804-7.626-8.715-13.072s7.626-9.804 13.072-8.715c14.162 3.268 28.323 5.447 40.306 6.536 43.574 3.268 83.881-3.268 118.74-18.519 2.177-1.088 4.625-2.177 7.073-3.265l0.010-0.004c2.45-1.089 4.901-2.178 7.079-3.267 22.877-10.894 45.753-21.787 70.809-26.145 9.804-2.179 20.698-2.179 30.502-2.179 56.647 0 119.83 25.055 166.672 65.362v-143.796h-990.23v77.345c59.915 28.323 141.617 65.362 214.604 50.111 14.944-2.988 28.065-10.533 41.864-18.466l0.002-0.002 0.033-0.019c1.278-0.735 2.562-1.473 3.854-2.211 11.983-7.626 25.055-14.162 40.306-19.609 28.323-9.804 62.094-10.894 99.132-4.357 29.413 5.447 56.647 14.162 83.881 22.877l8.715 3.268c5.447 2.179 8.715 7.626 6.536 14.162-2.179 5.447-7.626 8.715-14.162 6.536l-8.715-3.268c-26.145-8.715-53.379-17.43-80.613-22.877-33.77-6.536-63.183-5.447-88.238 3.268-9.505 2.852-19.010 8.191-27.792 13.125-1.282 0.72-2.55 1.433-3.8 2.126-6.536 8.715-5.447 20.698 2.179 37.038 13.072 23.966 25.055 52.289 6.536 83.881-1.089 1.634-2.451 3.54-3.813 5.447s-2.723 3.813-3.813 5.447c-5.447 6.536-9.804 13.072-9.804 18.519-1.089 6.536 3.268 14.162 7.626 21.787 3.268 5.447 1.089 11.983-3.268 15.251-5.447 3.268-11.983 1.089-15.251-3.268-6.536-9.804-11.983-21.787-10.894-34.86s7.626-21.787 14.162-30.502l0.001-0.001c2.178-3.268 4.356-6.535 6.535-8.714 11.983-19.609 6.536-37.038-7.626-62.094-6.536-13.072-9.804-23.966-9.804-32.681-9.804 4.357-19.609 8.715-30.502 10.894-8.715 2.179-17.43 3.268-26.145 3.268-9.804 13.072-8.715 30.502 3.268 52.289 18.519 31.591 34.86 68.63 9.804 108.936-3.268 5.447-6.536 9.804-10.894 14.162-7.626 8.715-14.162 17.43-15.251 27.234s5.447 20.698 11.983 31.591v0c3.268 5.447 2.179 11.983-3.268 15.251s-11.983 2.179-15.251-3.268c-8.715-13.072-16.34-28.323-15.251-44.664 1.070-16.054 10.553-27.902 19.15-38.644l0.46-0.574c3.267-4.357 6.535-8.714 8.714-13.071 17.43-27.234 8.715-52.289-9.804-86.060-15.251-27.234-15.251-47.932-9.804-63.183-16.34-1.089-32.681-3.268-49.021-6.536 2.179 5.447 3.268 11.983 3.268 19.609-1.089 13.072-7.626 21.787-14.162 30.502l-0.001 0.001c-2.179 3.268-4.356 6.535-6.535 8.714-11.983 19.609-6.536 37.038 7.626 62.094 16.34 30.502 8.715 50.111 0 61.004-3.268 4.357-10.894 5.447-15.251 2.179s-5.447-10.894-2.179-15.251c7.626-8.715 6.536-21.787-2.179-37.038-13.072-23.966-25.055-52.289-6.536-83.881 1.088-1.633 2.449-3.537 3.809-5.442l0.007-0.009c1.361-1.905 2.721-3.809 3.809-5.442 5.447-6.536 9.804-13.072 9.804-18.519 1.089-6.536-3.268-14.162-7.626-21.787-1.089-1.089-1.089-2.179-1.089-3.268-28.738-8.621-55.792-20.613-80.42-31.528l-0.035-0.015-0.061-0.027c-3.346-1.484-6.647-2.947-9.902-4.378v622.026h990.23v-551.217zM1065.396 713.804c0-2.179-1.089-3.268-3.268-3.268h-1035.983c-2.179 0-3.268 1.089-3.268 3.268v115.472c0 2.179 1.089 3.268 3.268 3.268h28.323c0.451 0 0.902-0.187 1.431-0.406 0.748-0.309 1.65-0.683 2.926-0.683 2.179 0 2.179 0 4.357 1.089h653.617c6.536 0 10.894 4.357 10.894 10.894s-4.357 10.894-10.894 10.894h-647.081v80.613c0 2.179 1.089 3.268 3.268 3.268h943.387c2.179 0 3.268-1.089 3.268-3.268v-80.613h-192.817c-6.536 0-10.894-4.357-10.894-10.894s4.357-10.894 10.894-10.894h200.443c0.451 0 0.902-0.187 1.431-0.406 0.747-0.309 1.649-0.683 2.926-0.683 2.179 0 2.179 0 4.357 1.089h28.323c2.179 0 3.268-1.089 3.268-3.268v-115.472h-2.179zM433.022 337.976l-0.001-0.001c-0.545-1.362-1.089-2.723-1.634-4.357-7.626-23.966-11.983-49.021-11.983-74.077 0-6.536 4.357-10.894 10.894-10.894s10.894 4.357 10.894 10.894c0 22.877 3.268 45.753 10.894 67.54 0 0.545 0.272 1.089 0.545 1.634s0.545 1.089 0.545 1.634c37.038-22.877 80.613-34.86 124.187-34.86 100.221 0 188.46 59.915 225.498 152.511v7.626c0 1.089 0 1.089-1.089 2.179 0 0.545-0.272 0.817-0.545 1.089s-0.545 0.545-0.545 1.089c0 1.089-1.089 1.089-1.089 1.089l-1.089 1.089c-40.306 27.234-87.149 41.396-136.17 41.396-88.238 0-169.94-47.932-212.426-125.277-3.268-5.447-1.089-11.983 4.357-15.251 2.179-1.089 3.268-1.089 5.447-1.089 4.357 0 7.626 2.179 9.804 5.447 39.217 69.719 113.294 113.294 193.906 113.294 41.396 0 81.702-11.983 116.562-33.77-35.949-79.523-113.294-130.723-201.532-130.723-44.664 0-87.149 13.072-124.187 38.128-30.502 20.698-55.557 49.021-72.987 82.791-3.268 5.447-9.804 7.626-14.162 4.357-5.447-3.268-7.626-9.804-4.357-14.162 16.34-33.77 41.396-62.094 71.898-84.97-0.545-1.633-1.088-2.995-1.633-4.355v-0.001zM700.46 444.732c8.716 0 16.34-7.626 16.34-16.34 0-9.805-7.624-17.43-16.34-16.34-8.715 0-16.34 7.626-16.34 16.34s7.626 16.34 16.34 16.34zM866.043 250.826c8.715 1.089 15.251 9.804 13.072 18.519-1.089 8.715-9.804 15.251-18.519 13.072-8.715-1.089-15.251-9.804-13.072-18.519 1.089-8.715 9.804-15.251 18.519-13.072zM164.494 336.886c2.179-8.715-4.357-17.43-13.072-18.519s-17.43 4.357-18.519 13.072c-2.179 8.715 4.357 17.43 13.072 18.519 8.715 2.179 17.43-4.357 18.519-13.072z" />
<glyph unicode="&#xe905;" glyph-name="buy-fish" horiz-adv-x="763" d="M176.691 920.501c27.106 0 63.247-7.027 98.384-32.125 74.21-51.145 111.355-2.113 136.452 31.015l0.081 0.107c3.868 5.802 8.15 11.191 12.315 16.431v0.001c2.32 2.919 4.604 5.793 6.759 8.666 13.051 13.051 34.133 18.071 56.22 14.055 24.094-5.020 43.169-19.075 52.204-39.153 6.024-13.051 14.055-21.082 24.094-25.098 9.035-3.012 19.075-2.008 30.118 3.012 1.004 1.004 2.008 1.004 3.012 0s1.004-3.012 1.004-3.012l-27.106-93.365c-1.004-1.004-2.008-2.008-3.012-2.008h-387.514c-2.008 0-3.012 1.004-3.012 2.008l-33.129 113.444c-1.004 1.004 0 2.008 0 2.008 0.502 0 0.753 0.251 1.004 0.502s0.502 0.502 1.004 0.502c8.031 2.008 19.075 3.012 31.122 3.012zM697.725-61.33c35.137 0 64.251 29.109 64.251 64.246 0 33.129-26.102 61.239-59.231 63.247h-587.295c-6.024 0-11.043 5.020-11.043 11.044s5.020 11.042 11.043 11.042h586.29v-21.081l0.001-0.060v355.447c0 85.333-41.161 164.643-111.435 213.835h-413.616c-70.275-49.192-112.439-128.502-112.439-213.835v-355.388c-35.137 0-64.251-29.114-64.251-64.251s29.114-64.246 64.251-64.246h633.474zM575.247 351.277v-4.016c0 0-1.003-1.004-2.007 1.004v-1.004c-31.122-78.306-106.416-129.505-191.749-129.505-37.146 0-72.283 9.034-104.408 28.109v-1.004c-6.024-18.071-9.035-37.144-9.035-56.22 0-6.023-5.020-11.042-11.043-11.042s-11.043 5.020-11.043 11.042c0 22.086 4.016 43.169 10.039 63.247 0 2.007 1.003 4.014 2.006 6.021l0.002 0.004c-25.098 19.074-46.18 44.172-61.239 72.281-2.008 5.020 0 11.043 5.020 14.055 5.020 2.008 11.043 0 14.055-5.020 14.055-28.11 35.137-52.204 61.239-69.271 31.122-21.082 67.262-32.124 104.408-32.124 73.285 0 138.54 42.164 168.658 108.423-29.113 18.071-62.242 27.106-96.375 27.106-67.263 0-129.507-36.141-162.635-95.372-2.009-3.013-5.020-5.020-9.035-5.020-2.008 0-3.013 0-5.020 1.003-5.020 2.008-7.027 9.036-4.016 14.056 36.14 65.254 105.412 106.415 180.706 106.415 42.165 0 82.322-13.051 116.454-36.141 1.005 0 1.005-1.004 1.005-1.004 0.383-0.383 0.767-0.62 1.094-0.823 0.53-0.327 0.914-0.564 0.914-1.185 0-0.502 0.251-0.753 0.502-1.004l0.002-0.002c0.25-0.25 0.5-0.501 0.5-1.002l0.002-0.002c0.575-0.576 0.82-0.821 0.925-1.115 0.076-0.219 0.076-0.464 0.076-0.89zM484.893 314.132c-7.762 0-14.055 6.292-14.055 14.054 0 7.763 6.293 14.056 14.055 14.056s14.055-6.293 14.055-14.056c0-7.762-6.293-14.054-14.055-14.054zM572.234 647.435h-396.549c-21.081 0-39.153 12.046-48.187 30.118h164.642c6.025 0 11.044 5.020 11.044 11.043s-5.020 11.042-11.044 11.042h-169.662v35.137c0 30.118 24.093 54.213 54.211 54.213h395.545c22.087 0 40.157-13.051 49.193-31.122h-197.773c-6.025 0-11.044-5.020-11.044-11.043s5.020-11.043 11.044-11.043h202.792v-34.133c0-30.118-24.095-54.212-54.213-54.212zM357.396 725.74h-11.043c-6.024 0-6.024 2.008-6.024 5.020 0 2.008 1.004 5.020 7.027 5.020h27.106c5.020 0 8.031 4.015 8.031 9.034 0 4.017-3.012 8.032-8.031 8.032-2.008 0-4.016 0-5.020 1.004l-8.031 1.003v3.013c0 4.015-1.004 10.039-9.035 11.043-7.027 1.003-9.035-5.020-10.039-14.056-0.415 0-0.83-0.172-1.174-0.372-0.489-0.285-0.834-0.63-0.834-0.63-13.051-4.017-19.075-13.051-18.071-25.098s10.039-20.078 24.094-20.078h12.047c4.016 0 5.020-2.009 5.020-4.017 0-3.012-1.004-5.020-5.020-6.023h-27.106c-8.031 0-10.039-5.020-10.039-8.031s0-5.020 2.008-6.025c2.008-2.007 4.016-3.012 8.031-3.012h11.043v-1.003c0-1.176 0.343-2.35 0.628-3.324l0.013-0.043c0.197-0.672 0.362-1.245 0.362-1.652 1.004-5.020 4.016-7.027 8.031-8.031h1.004c5.020 0 8.031 3.012 9.035 8.031 0 1.002 0.25 1.753 0.5 2.504l0.002 0.006 0.002 0.005c0.25 0.751 0.5 1.503 0.5 2.505v1.003c0.502 0 1.004 0.251 1.506 0.502 0.502 0.252 1.004 0.503 1.506 0.503 13.051 2.007 19.075 11.043 17.067 23.090-2.008 13.051-11.043 20.078-25.098 20.078z" />
<glyph unicode="&#xe906;" glyph-name="buy-fish-o" horiz-adv-x="763" d="M575.138 798.345c35.546-4.918 63.356-35.812 63.356-72.604v-31.122c-0.686-28.094-16.336-51.978-38.972-64.311 62.91-49.664 100.211-125.542 100.211-206.749v-335.31c33.129-6.024 58.227-36.141 58.227-71.278 1.004-40.157-31.122-72.287-71.278-72.287h-614.4c-40.157 0-72.282 32.131-72.282 72.287 0 36.141 27.106 66.259 62.243 71.278v335.31c0 77.799 35.048 151.425 94.491 201.86-28.564 10.038-49.315 37.418-49.315 69.2v31.122c0 36.42 27.251 67.061 62.281 72.447l-25.602 83.869c-4.292 14.059 4.684 30.733 21.699 32.022 5.262 0.399 10.591 0.398 14.632 0.398h0.275c36.099 0 70.265-10.221 100.861-31.737 34.887-24.275 57.907-22.039 73.843-14.58 18.366 8.597 32.214 26.213 44.088 42.218l0.062 0.084 0.466 0.621c5.681 7.576 12.426 16.571 19.47 23.616 16.063 16.062 40.52 20.343 62.675 16.651l0.319-0.053 0.318-0.063c24.645-4.929 47.269-19.141 57.592-43.678 5.416-11.429 11.82-16.441 17.102-18.202l0.352-0.118 0.348-0.131c2.75-1.031 5.156-1.379 8.099-1.324 15.311 0.285 30.332-14.2 25.161-32.301l-16.325-57.135zM554.451 799.027l17.705 61.968c0.989 3.46-1.882 6.777-5.481 6.71-5.128-0.095-10.096 0.565-15.523 2.599-12.047 4.016-22.086 14.055-29.114 29.114-7.027 17.067-23.090 28.11-43.169 32.125-18.071 3.012-35.137-1.004-45.176-11.043-6.024-6.024-12.047-14.055-18.071-22.086-23.090-31.122-66.259-87.341-145.569-32.125-27.106 19.075-57.224 28.11-89.349 28.11v0c-4.201 0-8.892 0-13.389-0.341-3.025-0.229-4.899-3.238-4.014-6.139l27.136-88.892h364.013zM180.706 776.941c-29.114 0-52.204-23.090-52.204-52.204v-31.122c0-1.012 0.027-2.016 0.082-3.013h164.561c6.024 0 10.039-5.020 10.039-10.039s-4.016-10.039-10.039-10.039h-159.383c8.432-17.337 26.151-29.113 46.943-29.113h384.502c29.114 0 52.204 23.090 52.204 52.204v31.122c0 0.335-0.004 0.67-0.010 1.003h-196.759c-6.024 0-10.039 5.020-10.039 10.039 0 6.024 5.020 10.039 10.039 10.039h192.432c-8.008 18.43-26.282 31.123-47.867 31.123h-384.502zM381.491 697.63c-2.008 12.047-11.043 19.075-24.094 20.078h-10.039c-6.024 0-6.024 2.008-6.024 5.020 0 2.008 0 5.020 6.024 5.020h26.102c5.020 0 8.031 4.016 8.031 9.035 0 4.016-3.012 7.027-7.027 8.031-2.008 0-4.016 0-5.020 1.004l-7.027 1.004v3.012c0 4.016-1.004 10.039-9.035 10.039-7.027 1.004-9.036-5.020-10.039-13.051-0.502 0-0.753-0.251-1.004-0.502s-0.502-0.502-1.004-0.502c-12.047-4.016-18.071-13.051-17.067-25.098s10.039-19.075 23.090-20.078h12.047c4.016 0 5.020-2.008 5.020-4.016 0-3.012-1.004-5.020-5.020-5.020h-25.098c-7.477 0-8.864-4.35-9.829-7.381-0.071-0.225-0.141-0.443-0.21-0.651 0-2.008 0-5.020 2.008-6.024 2.008-2.008 4.016-3.012 8.031-3.012h11.042v-1.004c0-1.176 0.345-2.352 0.63-3.327v0c0.202-0.689 0.374-1.277 0.374-1.693 1.004-5.020 4.016-7.027 8.031-7.027h1.003c5.020 0 8.032 3.012 8.032 8.031 0 1.004 0.251 1.757 0.502 2.51s0.502 1.506 0.502 2.51v1.004c1.004 0 2.008 1.004 2.008 1.004 10.039 0 16.063 10.039 15.059 21.082zM72.282 68.171c-28.11 0-51.2-23.090-51.2-51.2s23.091-51.2 51.2-51.2h614.4c28.11 0 51.2 23.090 51.2 51.2 0 27.106-21.082 50.196-49.192 51.2h-567.215c-6.024 0-10.039 5.020-10.039 10.039s5.020 10.039 10.039 10.039h557.175v335.31c0 78.306-38.149 151.592-101.396 196.769h-394.541c-63.247-46.18-101.396-119.467-101.396-196.769v-355.388h-9.035zM284.11 275.983c-2.008 0-3.012 0-5.020 1.004-5.020 3.012-7.027 9.035-4.016 14.055 35.137 64.251 102.4 103.404 175.686 103.404 40.157 0 79.31-12.047 112.439-34.133 5.020-3.012 6.024-10.039 3.012-14.055-0.273-0.454-0.578-0.875-0.912-1.264-30.665-75.004-103.312-123.222-184.815-123.222-35.869 0-70.938 9.612-101.629 27.405-5.843-17.836-7.798-35.671-7.798-53.507-1.004-7.027-5.020-12.047-11.043-12.047s-10.039 5.020-10.039 10.039c0 21.082 3.012 41.161 9.035 61.239 0.438 2.19 1.067 4.188 1.804 6.163-24.692 18.5-44.368 42.561-59.028 69.131-3.012 5.020-1.004 11.043 4.016 14.055s11.043 1.004 14.055-4.016c13.391-25.825 32.25-48.006 55.708-64.803 0.512-0.103 1.019-0.253 1.516-0.452 1.914-0.766 3.537-2.116 4.7-3.772 29.454-18.96 62.661-29.358 98.704-29.358 72.013 0 135.537 41.506 164.053 106.231-28.213 17.009-59.73 26.287-93.777 26.287-65.255 0-125.49-35.137-157.616-92.361-2.008-4.015-6.024-6.024-9.035-6.024zM492.925 332.203c0-7.207-5.844-13.051-13.051-13.051-7.208 0-13.051 5.844-13.051 13.051s5.843 13.051 13.051 13.051c7.207 0 13.051-5.843 13.051-13.051z" />
<glyph unicode="&#xe907;" glyph-name="auction-fish-o" horiz-adv-x="847" d="M91.323 643.2l-3.897 3.943c7.901-21.183 16.237-41.789 24.574-62.035 26.585-62.031 55.138-116.185 86.646-164.431 5.908-7.877 10.831-16.738 14.769-26.585 15.754-31.508 22.646-64.985 22.646-99.446v-237.292c0-16.738 2.954-31.508 9.846-44.308 19.692-37.415 49.231-56.124 89.6-56.124h245.169c25.6 0 48.246 19.693 51.2 45.293l3.938 31.508c0.985 10.831 9.846 19.692 21.662 19.692 11.815 0.985 20.677-6.892 23.631-17.723l11.815-53.169c1.969-6.892 5.908-13.786 11.815-18.709s12.8-6.892 20.677-6.892c17.723 0 33.477 3.938 48.246 12.8 2.462 1.477 4.923 2.708 7.385 3.938s4.923 2.463 7.385 3.939l0.186 0.090c26.477 12.748 43.118 20.76 35.26 94.433-1.969 18.708-4.923 37.415-7.877 56.123-0.985 7.877-1.969 15.754-3.938 23.631-1.477 11.323-3.2 22.892-4.923 34.462s-3.446 23.138-4.923 34.462c-2.954 22.646-7.877 43.323-14.769 62.031-39.385 107.323-142.769 179.2-256.985 180.185-23.631 0-47.262 2.954-70.892 7.877-110.277 23.631-200.862 100.431-241.231 205.785-4.143 11.048-8.287 22.581-12.43 34.598l-67.324-68.076c-6.892-5.908-15.754-9.846-23.631-9.846-8.862 0-16.738 2.954-23.631 9.846zM71.355 691.722l10.185-10.186c0.279 0.362 0.587 0.714 0.923 1.050 19.486 19.487 49.465 20.609 69.336 3.367l50.306 50.306c0.614 0.821 1.347 1.559 2.174 2.174l69.31 69.309c-17.787 20.71-16.84 51.052 2.842 69.797 0.69 0.69 1.44 1.259 2.23 1.708l-33.432 33.432c-9.604-7.223-21.747-12.494-34.768-12.494-12.391 0-23.987 3.978-33.357 11.935l-44.379-44.378c-1.131-2.494-3.044-4.654-5.589-5.589l-80.134-80.133c9.199-9.706 13.798-22.11 13.798-35.433 0-12.157-3.829-23.549-11.488-32.823l19.867-19.867c0.821-0.614 1.558-1.347 2.174-2.174zM287.44 821.594l14.591 14.591c2.954 2.954 3.938 5.908 3.938 9.846s-0.985 6.892-3.938 9.846l-10.108 10.108c-0.448-0.79-1.017-1.54-1.707-2.231-11.796-11.796-12.721-29.446-2.776-42.161zM231.039 926.869l-10.731 10.731c-2.954 0.985-5.908 1.969-9.846 1.969s-6.892-0.985-9.846-3.938l-9.623-9.622c11.467-8.453 28.991-8.166 40.046 0.86zM95.183 667.893l9.924-9.924c4.923-4.923 13.785-4.923 18.708 0l14.035 14.035c-12.668 9.49-29.978 8.421-41.602-3.203-0.33-0.33-0.688-0.632-1.065-0.908zM42.094 746.586c0 8.614-2.792 16.299-8.376 22.148l-10.334-10.334c-4.923-4.923-4.923-13.785 0-18.708l12.592-12.592c4.079 5.439 6.118 12.123 6.118 19.486zM221.565 727.108c5.16-15.25 10.321-29.653 15.481-42.553 38.4-100.431 123.077-173.292 227.446-195.938 21.662-4.923 44.308-6.892 66.954-6.892 123.077-0.985 234.338-78.769 275.692-192.985 6.892-20.677 12.8-42.338 15.754-65.969 1.477-11.323 3.2-22.892 4.923-34.462s3.446-23.138 4.923-34.462c0.985-7.877 1.969-15.754 3.938-23.631 2.954-18.708 5.908-37.415 7.877-56.123 8.862-81.723-12.8-98.462-46.277-115.201-1.247-0.62-2.592-1.25-4.005-1.9-3.050-1.418-6.415-2.974-9.779-4.992-17.723-9.846-37.415-14.769-58.092-14.769-11.815 0-23.631 3.938-33.477 11.815s-15.754 18.708-18.708 29.539l-11.815 53.169c0 1.969-1.969 2.954-2.954 2.954-2.954 0-2.954-1.969-2.954-2.954l-3.938-31.508c-4.923-35.447-34.462-62.032-70.892-62.032h-107.323c-19.692-0.985-38.4-0.985-58.092-0.985h-80.738c-48.246 0-83.692 22.646-107.323 66.955-7.877 15.754-11.815 33.477-11.815 53.169v237.292c0 31.508-6.892 62.031-20.677 90.585-3.938 8.862-8.862 16.738-13.785 23.631-32.492 49.231-62.031 104.369-88.615 168.369-13.499 32.782-26.997 67.453-38.647 103.087l-45.046 45.589c-12.8 12.8-12.8 33.477 0 46.277l14.016 14.094c-2.37 20.745 2.804 40.522 15.524 57.784 18.708 26.584 46.277 40.369 78.769 37.415h0.381l68.541 68.922c12.8 12.8 34.462 12.8 46.277 0l81.723-81.723c5.908-5.908 9.846-14.769 9.846-23.631s-2.954-16.738-9.846-23.631l-93.266-94.307zM45.734 808.519l51.854 52.142c-16.393-3.346-30.090-12.817-40.725-28.414-5.464-7.451-9.173-15.402-11.129-23.728zM506.832 527.016c-110.277 0-199.877 89.6-199.877 199.877 0 54.154 20.677 104.369 59.077 141.785 37.415 37.415 88.615 58.092 140.8 57.108h2.954c50.215 0 100.431-20.677 137.846-57.108 38.4-37.416 59.077-87.631 59.077-141.785s-20.677-103.385-58.092-140.8c-37.415-37.415-88.615-59.077-141.785-59.077zM504.863 907.078c-45.292 0-90.585-18.708-124.062-51.2-34.462-34.462-53.169-79.754-53.169-128 0-99.446 80.738-180.185 180.185-180.185 47.262 0 94.523 19.692 128 53.169s52.185 78.769 52.185 127.015c0 49.231-18.708 94.523-53.169 128s-80.738 52.185-127.015 51.2h-2.954zM192.739 813.538c-8.862 5.908-18.708 4.923-26.585-2.954l-6.892-6.892c-3.601-2.701-4.733-2.109-6.405-1.236v0c-0.158 0.082-0.319 0.166-0.487 0.251-0.985 0.985-2.954 2.954 0.985 6.892 1.969 1.969 3.938 3.938 5.908 6.892l9.846 9.846c2.954 2.954 2.954 7.877 0 10.831s-6.892 2.954-9.846 0.985c-0.985-0.985-1.969-1.969-3.938-2.954l-3.938-3.938c-0.492 0-0.738 0.246-0.985 0.492s-0.492 0.492-0.985 0.492l-0.369 0.247c-2.911 1.953-6.726 4.514-11.446 0.737-4.923-3.938-1.969-8.862 1.969-14.769 0-0.492-0.246-0.738-0.492-0.985s-0.492-0.492-0.492-0.985c-4.923-9.846-3.938-19.692 4.923-25.6 7.877-6.892 17.723-5.908 26.585 1.969l2.954 2.954c0.686 1.373 1.851 2.268 2.828 3.017v0l0.002 0.002c0.423 0.325 0.81 0.622 1.109 0.92 2.954 1.969 4.923 1.969 5.908 0.985 1.969-1.969 1.969-3.938 0-5.908l-15.754-15.754c-4.923-4.923-2.954-8.862-0.985-10.831 0.985-1.969 2.954-2.954 4.923-2.954s4.923 0.985 6.892 2.954c0.697 0.698 1.395 1.272 2.049 1.81 1.191 0.981 2.238 1.842 2.874 3.113l0.985 0.985c0.492-0.492 1.231-0.985 1.969-1.477s1.477-0.985 1.969-1.477c2.954-1.969 6.892-1.969 9.846 0 2.954 2.954 2.954 5.908 0.985 9.846-0.985 0.985-1.969 1.969-1.969 2.954v1.969c0 0.492 0.246 0.738 0.492 0.985s0.492 0.492 0.492 0.985c4.923 9.846 2.954 19.692-4.923 25.6zM101.171 801.723c0-36.431 29.538-65.969 65.969-65.969s65.969 29.538 65.969 65.969c0 36.431-29.538 65.969-65.969 65.969s-65.969-29.538-65.969-65.969zM120.864 802.708c0 25.6 20.677 46.277 46.277 46.277s46.277-20.677 46.277-46.277c0-25.6-20.677-46.277-46.277-46.277s-46.277 20.677-46.277 46.277z" />
<glyph unicode="&#xe908;" glyph-name="event" horiz-adv-x="879" d="M528.395 943.426c-9.382 9.611-25.664 2.444-24.913-10.966l8.98-160.314c0.537-9.581 10.12-16.326 19.528-14.446 24.021 4.8 69.46 10.153 124.238-1.49s94.11-35.016 114.101-49.17c7.832-5.545 19.33-3.28 23.716 5.254l72.388 140.817c6.26 12.176-6.25 25.464-18.781 19.949l-52.836-23.253c-7.663-3.373-13.435-9.973-15.755-18.019l-1.4-4.855c-4.528-15.702-22.887-22.632-36.66-13.838l-1.208 0.772c-12.248 7.819-14.408 24.828-4.506 35.461 6.032 6.476 7.866 15.814 4.732 24.091l-29.223 77.194c-3.863 10.204-17.173 12.672-24.439 4.531l-53.143-59.553c-5.575-6.248-7.66-14.87-5.554-22.976l0.313-1.204c3.517-13.534-5.285-27.184-19.066-29.564-15.952-2.756-29.972 10.81-27.743 26.844l0.665 4.783c1.169 8.4-1.616 16.868-7.54 22.937l-45.894 47.014zM35.667 522.66c1.157-1.873 2.039-3.896 2.922-5.919 0.987-2.264 1.974-4.526 3.345-6.575 8.485-12.701 27.997-12.052 41.425-4.786 6.731 3.648 12.696 8.486 18.661 13.324 5.935 4.814 11.87 9.629 18.561 13.271 7.617 4.147 15.996 6.655 24.362 9.158l0.001 0.001c9.829 2.942 19.638 5.878 28.167 11.457 16.15 10.565 24.874 28.506 33.452 46.15l0.001 0.001c1.923 3.956 3.839 7.897 5.831 11.737 19.084 36.806 48.248 67.644 82.695 90.919-3.647-1.349-7.266-2.815-10.821-4.424-50.506-22.782-87.195-67.645-121.757-112.975 27.828 55.579 72.288 99.391 125.844 123.99 5.671 2.607 11.444 4.995 17.295 7.201-31.825-0.973-62.988-5.502-91.205-18.228-50.507-22.782-87.197-67.645-121.758-112.975 27.829 55.579 72.29 99.392 125.845 123.99 14.258 6.551 29.113 11.766 44.279 16.061 26.972 7.641 54.93 12.364 83.368 14.102-27.659 7.473-56.045 12.429-84.367 9.328-43.112-4.709-81.773-26.259-118.982-48.521 34.912 30.163 79.023 49.519 124.845 54.8 12.195 1.402 24.495 1.843 36.768 1.623 28.789-0.506 57.513-4.594 85.302-12.118 8.563 2.179 17.216 4.048 25.935 5.579-22.159 16.904-45.499 33.174-72.6 38.934-19.256 4.097-38.949 2.573-58.699 1.047-14.714-1.138-29.46-2.278-44.079-1.099-12.759 1.037-25.357 3.835-37.928 6.625-18.080 4.013-36.104 8.014-54.47 6.751-25.287-1.752-49.69-13.985-66.205-33.213-2.316-2.697-4.493-5.531-6.668-8.364-4.574-5.956-9.143-11.907-14.998-16.557-5.476-4.344-11.916-7.415-18.319-10.469-8.993-4.29-17.916-8.545-24.001-16.244-8.718-11.066-9.25-26.493-7.304-40.426 0.562-4.029 1.296-8.050 2.031-12.070 1.807-9.897 3.613-19.787 2.847-29.769-0.777-10.193-4.194-19.863-7.618-29.549-1.723-4.875-3.447-9.753-4.837-14.705-4.152-14.79-4.774-32.291 5.332-43.865 3.523-4.047 8.093-7.051 12.641-10.041 5.687-3.738 11.338-7.454 14.863-13.155zM258.441 635.991c-15.595-20.394-60.6-86.806-43.449-170.694 23.3-113.987 140.231-156.865 147.263-159.318-9.198 13.74-16.918 29.659-21.497 45.551-3.465 12.040-4.126 24.728-3.776 37.26 0.843 29.969 7.655 60.328 23.716 85.652 2.66 4.19 5.592 8.226 8.77 12.065-22.315-4.229-43.591-15.4-62.845-27.984-7.369-4.813-14.687-9.964-20.135-16.878-3.853-4.879-6.642-10.497-9.263-16.139-4.903-10.56-8.951-20.862-12.805-31.863 4.671 38.583 27.296 74.598 60.003 95.59 6.501 4.165 13.351 7.758 20.317 11.053 25.753 12.17 53.387 20.356 81.604 24.235-11.081 0.848-21.964 1.876-32.849 2.902l-0.006 0.001h-0.006c-12.752 1.204-25.506 2.407-38.586 3.324-19.499 1.363-39.141 2.725-58.563 0.493-0.579-0.064-1.159-0.141-1.738-0.218l-0.013-0.002c11.781 5.177 24.871 7.135 37.754 8.394 33.651 3.294 67.751 2.564 101.781 1.835h0.001c26.148-0.559 52.255-1.118 78.084 0.151-6.072 1.687-12.092 3.645-18.007 5.708-3.054 1.064-6.085 2.147-9.105 3.226v0h-0.001c-17.595 6.286-34.779 12.427-53.57 13.822 24.647 1.701 49.295-2.503 73.876-6.697 26.217-4.472 52.358-8.932 78.343-6.199 4.594 4.592 5.242 11.948 4.282 18.436-0.858 5.744-2.697 11.263-4.538 16.786-1.664 4.991-3.329 9.987-4.271 15.155-0.857 4.696-1.116 9.47-1.259 14.231-0.61 20.902 0.935 43.086 12.208 60.692-6.746-22.355-7.122-46.602-1.089-69.163 1.078-4.033 2.362-8.051 3.647-12.070v-0.002c3.582-11.207 7.167-22.424 6.316-34.035-0.376-5.125-1.673-10.159-3.723-14.868-1.506-6.383-4.502-12.364-7.564-18.189-3.124-5.955-6.328-11.878-9.534-17.806l-0.006-0.010c-12.015-22.208-24.046-44.448-31.858-68.408-9.899-30.359-12.961-64.804 0.466-93.773-4.138 26.194 3.737 53.503 18.709 75.389 7.093 10.368 15.774 19.776 24.421 29.149v0.001c7.703 8.349 15.378 16.67 21.882 25.612 0.466-7.94 1.193-15.919 2.348-23.936 4.125-28.854 14.064-59.51 32.693-81.177-11.715 21.653-16.088 47.341-14.012 70.149 0.978 10.799 3.306 21.172 5.624 31.504 4.018 17.909 8.009 35.697 4.898 55.367-1.997 12.701-6.85 25-12.778 36.741 8.462 3.421 16.861 7.021 25.234 10.61l0.22 0.094c71.445 30.644 88.753 53.465 97.146 68.215l0.008 0.016c3.142 5.526 15.735 27.681 7.451 39.165-5.098 7.072-16.15 11.951-21.911 14.494-1.246 0.551-2.244 0.991-2.88 1.322-40.284 20.849-109.122 26.855-190.415 33.55-0.302 0.024-0.735 0.063-1.293 0.113-19.775 1.788-196.691 17.779-285.724-98.623zM665.035 682.541c9.017 0 16.321-7.304 16.321-16.32s-7.304-16.321-16.321-16.321-16.321 7.304-16.321 16.321c0 9.016 7.304 16.32 16.321 16.32zM408.16 425.289c8.615 0.973 17.385-2.841 20.317-11.001 5.786 18.332 19.395 33.406 35.171 44.383 15.789 10.976 33.77 18.293 51.66 25.351 26.934 10.626 56.773 23.495 68.437 49.689-13.648-2.219-27.413-3.749-41.231-4.592-7.464-0.453-15.040-0.734-22.647-1.014v0 0h-0.001c-36.204-1.337-73.139-2.702-102.482-22.858-14.57-10.003-26.025-24.040-35.029-39.244-24.26-40.997-33.784-95.059-9.535-136.068-4.93 25.648-0.545 52.971 12.157 75.792 5.124 9.186 12.74 18.384 23.183 19.564zM782.505 314.081c13.308-4.86 26.628-9.726 37.58-18.544 28.958-23.315 32.149-67.385 20.655-102.739-7.254-22.341-19.078-42.685-30.921-63.060l-0.002-0.002c-6.904-11.878-13.814-23.766-19.829-36.070-2.905-5.938-5.731-12.104-8.584-18.33-15.524-33.872-31.868-69.533-66.236-80.153-18.858-5.824-38.746-2.259-58.46 1.275l-0.011 0.001c-5.319 0.954-10.624 1.905-15.895 2.668-37.182 5.397-75.715 1.167-110.834-12.17-9.974-3.786-19.662-8.284-29.347-12.781l-0.004-0.001c-11.918-5.534-23.831-11.065-36.27-15.267-40.089-13.545-83.421-12.584-125.715-11.481-24.91 0.648-50.896 1.57-72.769 13.505-12.236 6.669-22.33 16.329-32.449 26.011-7.262 6.949-14.537 13.911-22.624 19.786-22.021 15.998-48.754 23.145-75.448 30.28-28.053 7.498-56.061 14.984-78.511 32.72-31.967 25.26-46.705 67.956-45.486 108.681s16.58 79.788 35.833 115.685c1.239 2.309 2.499 4.62 3.761 6.935l0.002 0.004c9.401 17.244 18.947 34.755 21.315 54.141 1.292 10.61 0.366 21.273-0.562 31.952-0.712 8.192-1.424 16.394-1.137 24.587 1.077 30.372 16.788 59.899 41.386 77.738 9.431 6.838 20.364 12.436 31.235 18.003 19.529 10 38.866 19.902 48.968 36.719-0.246-1.44-0.479-2.867-0.7-4.307-18.877-48.988-32.448-100.013-40.361-151.909-3.841-25.221-6.357-50.675-6.85-76.194-1.83-95.863 25.805-192.088 78.218-272.383-35.535 82.825-69.214 168.45-66.958 258.553 1.311 52.231 15.543 102.829 34.705 151.727 10.185-47.341 25.090-93.656 44.461-138.040 10.21-23.392 21.665-46.264 34.873-68.098 49.612-82.059 124.327-148.691 211.497-188.624-74.248 51.077-148.419 105.529-194.593 182.929-17.838 29.904-30.436 62.248-39.777 95.772 34.717-37.883 73.457-72.094 115.388-101.817 20.823-14.764 42.437-28.438 65.024-40.323 84.835-44.668 183.241-63.156 278.506-52.348-89.96 5.41-181.593 13.752-261.096 56.202-44.798 23.923-82.72 58.057-117.035 95.824 7.966-2.959 16.139-5.397 24.494-7.239 17.826-3.944 38.752-4.49 51.83 8.238 2.994 2.902 5.374 6.334 7.757 9.771 1.976 2.848 3.951 5.697 6.28 8.249 15.361 16.814 41.866 16.931 64.025 11.625 5.883-1.41 11.748-3.113 17.614-4.816h0.002c16.229-4.714 32.467-9.429 49.133-7.925 20.455 1.853 38.294 12.722 56.167 23.612 17.055 10.391 34.143 20.802 53.565 23.417 28.38 3.827 54.604-9.453 80.821-22.729 9.868-4.997 19.734-9.993 29.714-14.077 4.484-1.835 9.068-3.509 13.653-5.184z" />
<glyph unicode="&#xe909;" glyph-name="filter" d="M128 234.667v-85.333h256v85.333h-256zM128 746.667v-85.333h426.667v85.333h-426.667zM554.667 64v85.333h341.333v85.333h-341.333v85.333h-85.333v-256h85.333zM298.667 576v-85.333h-170.667v-85.333h170.667v-85.333h85.333v256h-85.333zM896 405.333v85.333h-426.667v-85.333h426.667zM640 576h85.333v85.333h170.667v85.333h-170.667v85.333h-85.333v-256z" />
<glyph unicode="&#xe90a;" glyph-name="share" d="M768 273.92c-32.427 0-61.44-12.8-83.627-32.853l-304.213 177.067c2.133 9.813 3.84 19.627 3.84 29.867s-1.707 20.053-3.84 29.867l300.8 175.36c23.040-21.333 53.333-34.56 87.040-34.56 70.827 0 128 57.173 128 128s-57.173 128-128 128c-70.827 0-128-57.173-128-128 0-10.24 1.707-20.053 3.84-29.867l-300.8-175.36c-23.040 21.333-53.333 34.56-87.040 34.56-70.827 0-128-57.173-128-128s57.173-128 128-128c33.707 0 64 13.227 87.040 34.56l303.787-177.493c-2.133-8.96-3.413-18.347-3.413-27.733 0-68.693 55.893-124.587 124.587-124.587s124.587 55.893 124.587 124.587c0 68.693-55.893 124.587-124.587 124.587z" />
<glyph unicode="&#xe90b;" glyph-name="p-prev" horiz-adv-x="717" d="M700.595 56.32l-390.827 391.68 390.827 391.68-120.32 120.32-512-512 512-512 120.32 120.32z" />
<glyph unicode="&#xe90c;" glyph-name="p-next" horiz-adv-x="717" d="M0 56.32l390.827 391.68-390.827 391.68 120.32 120.32 512-512-512-512-120.32 120.32z" />
<glyph unicode="&#xe90d;" glyph-name="chat" d="M870.4 960h-716.8c-40.723-0.044-79.767-16.242-108.562-45.038s-44.993-67.839-45.038-108.562v-512c0.044-40.724 16.242-79.764 45.038-108.564 28.796-28.795 67.839-44.989 108.562-45.036h593.198l189.798-189.798c7.163-7.163 16.282-12.037 26.214-14.013s20.229-0.968 29.583 2.908c9.354 3.876 17.352 10.44 22.979 18.857 5.627 8.422 8.627 18.319 8.627 28.447v819.2c-0.046 40.723-16.241 79.767-45.036 108.562-28.8 28.796-67.84 44.993-108.564 45.038v0zM307.2 499.2c-10.126 0-20.025 3.003-28.445 8.629s-14.982 13.622-18.857 22.978c-3.875 9.355-4.889 19.65-2.914 29.582s6.852 19.055 14.012 26.215c7.161 7.16 16.284 12.037 26.215 14.012s20.227 0.962 29.582-2.914c9.356-3.875 17.352-10.438 22.978-18.857s8.629-18.319 8.629-28.445c0-13.579-5.394-26.602-14.996-36.204s-22.625-14.996-36.204-14.996v0zM512 499.2c-10.126 0-20.025 3.003-28.445 8.629s-14.982 13.622-18.857 22.978c-3.875 9.355-4.889 19.65-2.914 29.582s6.852 19.055 14.012 26.215c7.161 7.16 16.284 12.037 26.215 14.012s20.229 0.962 29.583-2.914c9.354-3.875 17.352-10.438 22.979-18.857s8.627-18.319 8.627-28.445c0-13.579-5.396-26.602-14.996-36.204s-22.625-14.996-36.204-14.996zM716.8 499.2c-10.127 0-20.024 3.003-28.447 8.629-8.417 5.626-14.981 13.622-18.857 22.978s-4.89 19.65-2.913 29.582c1.976 9.932 6.851 19.055 14.013 26.215 7.158 7.16 16.282 12.037 26.214 14.012s20.229 0.962 29.583-2.914c9.354-3.875 17.352-10.438 22.979-18.857s8.627-18.319 8.627-28.445c0-13.579-5.396-26.602-14.996-36.204s-22.625-14.996-36.204-14.996z" />
<glyph unicode="&#xe90e;" glyph-name="comment" d="M1024 755.2h-153.6v-460.8h-665.6v-153.6h614.4l204.8-204.8v819.2zM768 396.8v563.2h-768v-768l204.8 204.8h563.2z" />
<glyph unicode="&#xe90f;" glyph-name="pending" d="M725.333 448c-117.76 0-213.333-95.573-213.333-213.333s95.573-213.333 213.333-213.333c117.76 0 213.333 95.573 213.333 213.333s-95.573 213.333-213.333 213.333zM795.733 134.4l-91.733 91.733v136.533h42.667v-119.040l78.933-78.933-29.867-30.293zM768 832h-135.68c-17.92 49.493-64.853 85.333-120.32 85.333s-102.4-35.84-120.32-85.333h-135.68c-46.933 0-85.333-38.4-85.333-85.333v-640c0-46.933 38.4-85.333 85.333-85.333h260.693c-25.173 24.32-45.653 53.333-60.587 85.333h-200.107v640h85.333v-128h341.333v128h85.333v-216.747c30.293-4.267 58.88-13.227 85.333-25.6v242.347c0 46.933-38.4 85.333-85.333 85.333zM512 746.667c-23.467 0-42.667 19.2-42.667 42.667s19.2 42.667 42.667 42.667c23.467 0 42.667-19.2 42.667-42.667s-19.2-42.667-42.667-42.667z" />
<glyph unicode="&#xe910;" glyph-name="calendar" d="M853.333 832h-42.667v85.333h-85.333v-85.333h-426.667v85.333h-85.333v-85.333h-42.667c-46.933 0-85.333-38.4-85.333-85.333v-682.667c0-46.933 38.4-85.333 85.333-85.333h682.667c46.933 0 85.333 38.4 85.333 85.333v682.667c0 46.933-38.4 85.333-85.333 85.333zM853.333 64h-682.667v554.667h682.667v-554.667zM298.667 533.333h170.667v-170.667h-170.667v170.667zM469.333 320h-170.667v-170.667h170.667v170.667zM554.667 533.333h170.667v-170.667h-170.667v170.667zM725.333 320h-170.667v-170.667h170.667v170.667z" />
<glyph unicode="&#xe911;" glyph-name="next" d="M938.667 448l-170.667 170.667v-128h-640v-85.333h640v-128l170.667 170.667z" />
<glyph unicode="&#xe912;" glyph-name="prev" d="M85.333 448l170.667 170.667v-128h640v-85.333h-640v-128l-170.667 170.667z" />
<glyph unicode="&#xe913;" glyph-name="arrow-left" horiz-adv-x="1536" d="M1536 448c0 47.128-38.204 85.333-85.333 85.333h-1123.84l245.459 246.145c33.17 33.262 33.132 87.104-0.084 120.32v0c-33.248 33.249-87.155 33.249-120.404 0l-391.458-391.458c-33.325-33.325-33.325-87.355 0-120.68l391.458-391.457c33.248-33.246 87.155-33.246 120.404 0v0c33.216 33.212 33.254 87.057 0.084 120.319l-245.459 246.145h1123.84c47.13 0 85.333 38.205 85.333 85.333v0z" />
<glyph unicode="&#xe914;" glyph-name="clip" horiz-adv-x="1280" d="M1024 960l128-256h-192l-128 256h-128l128-256h-192l-128 256h-128l128-256h-192l-128 256h-64c-70.4 0-127.36-57.6-127.36-128l-0.64-768c0-70.4 57.6-128 128-128h1024c70.4 0 128 57.6 128 128v896h-256z" />
<glyph unicode="&#xe915;" glyph-name="buy" d="M598.379 959.080c83.821-7.514 164.812-60.586 202.202-131.824 8.306 0.234 16.677-2.452 23.474-8.059l171.351-141.364c10.841-8.944 17.12-22.263 17.12-36.317v-563.548c0-26.003-21.079-47.080-47.080-47.080h-327.72c-26.003 0-47.080 21.078-47.080 47.080v563.548c0 14.054 6.278 27.373 17.118 36.317l164.325 135.567c-32.151 60.337-102.42 107.522-176.534 114.165-43.566 3.905-87.732-6.329-125.71-35.77-38.048-29.495-71.22-79.319-90.619-156.922l-30.696 2.78c20.678 82.713 56.985 144.308 101.929 179.149 45.015 34.896 97.353 46.81 147.921 42.277zM786.23 777.062c-1.707 6.829-3.917 13.569-6.59 20.188-5.979-5.756-9.701-13.843-9.701-22.799 0-17.475 14.167-31.64 31.642-31.64s31.64 14.165 31.64 31.64c0 14.314-9.503 26.406-22.544 30.314 2.462-6.564 4.555-13.246 6.25-20.029 2.12-8.477-3.034-17.067-11.511-19.185s-17.065 3.034-19.185 11.511zM782.826 204.705c1.813-1.813 4.014-2.719 6.603-2.719h23.693c2.589 0 4.79 0.906 6.603 2.719s2.719 4.014 2.719 6.603v26.801c18.126 2.072 33.921 6.474 47.386 13.206 13.465 6.991 23.823 16.054 31.073 27.189 7.509 11.393 11.264 24.6 11.264 39.618 0 15.278-3.366 27.836-10.099 37.676-6.474 10.099-16.702 18.385-30.685 24.858-13.724 6.474-31.591 12.17-53.601 17.090-15.795 4.143-28.484 8.027-38.065 11.652-9.322 3.625-16.054 7.768-20.198 12.429-4.143 4.92-6.215 11.005-6.215 18.255 0 10.876 4.143 18.903 12.429 24.082 8.545 5.179 19.809 7.768 33.792 7.768 13.724 0 24.858-2.848 33.404-8.545s13.465-12.559 14.76-20.586c1.295-2.848 2.978-4.79 5.049-5.826s4.273-1.554 6.603-1.554h36.122c2.589 0 4.531 0.777 5.826 2.33 1.554 1.813 2.33 3.755 2.33 5.826-0.259 9.322-3.496 18.903-9.71 28.743-6.215 10.099-15.278 19.032-27.189 26.801s-26.671 12.947-44.279 15.537v27.577c0 2.589-0.906 4.79-2.719 6.603s-4.014 2.719-6.603 2.719h-23.693c-2.589 0-4.79-0.906-6.603-2.719s-2.719-4.014-2.719-6.603v-26.801c-25.635-3.107-45.703-11.652-60.204-25.635s-21.751-30.944-21.751-50.882c0-15.537 3.237-28.354 9.71-38.453 6.733-10.099 16.702-18.514 29.908-25.247 13.206-6.474 29.39-12.041 48.552-16.702 16.831-4.143 30.426-8.157 40.783-12.041 10.358-3.625 17.867-7.768 22.528-12.429 4.92-4.402 7.38-10.358 7.38-17.867 0-10.617-4.531-19.032-13.594-25.247s-22.916-9.322-41.56-9.322c-11.652 0-21.363 1.554-29.131 4.661s-13.853 6.991-18.255 11.652c-4.143 4.92-7.121 9.84-8.934 14.76-1.036 2.072-2.46 3.755-4.273 5.049-1.813 1.554-4.273 2.33-7.38 2.33h-34.569c-2.33 0-4.402-0.777-6.215-2.33-1.554-1.554-2.33-3.496-2.33-5.826 0.518-11.393 4.143-22.399 10.876-33.015 6.733-10.358 16.702-19.291 29.908-26.801 13.206-7.25 29.39-11.782 48.552-13.594v-27.189c0-2.589 0.906-4.79 2.719-6.603zM569.552 643.822c0 2.396 0.135 4.777 0.403 7.132-92.361 95.205-249.758 80.978-268.313 79.301l-0.005-0.001c-0.553-0.049-0.983-0.088-1.283-0.113-80.99-6.669-149.571-12.654-189.705-33.425-0.635-0.328-1.629-0.767-2.87-1.316h-0.001c-5.739-2.533-16.75-7.395-21.829-14.44-8.252-11.442 4.294-33.515 7.424-39.020l0.008-0.014c8.363-14.696 25.605-37.432 96.785-67.962l0.217-0.093h0.001c8.341-3.576 16.71-7.162 25.142-10.571-5.907-11.697-10.741-23.95-12.732-36.604-3.098-19.598 0.878-37.32 4.88-55.162h0.001c2.309-10.294 4.627-20.628 5.601-31.386 2.068-22.723-2.288-48.315-13.959-69.887 18.56 21.585 28.461 52.127 32.571 80.874 1.151 7.987 1.875 15.937 2.34 23.847 6.479-8.909 14.126-17.198 21.801-25.518v0c8.615-9.337 17.262-18.712 24.33-29.040 14.916-21.805 22.761-49.013 18.638-75.11 13.378 28.863 10.327 63.18 0.466 93.425-7.785 23.871-19.771 46.027-31.742 68.154v0 0.001c-3.196 5.906-6.39 11.811-9.503 17.747-3.051 5.803-6.037 11.762-7.536 18.121-2.042 4.692-3.334 9.707-3.709 14.812-0.847 11.569 2.725 22.745 6.292 33.91l0.001 0.001c1.279 4.004 2.558 8.007 3.633 12.027 6.010 22.476 5.634 46.634-1.086 68.905 11.232-17.54 12.771-39.642 12.163-60.464-0.142-4.745-0.401-9.501-1.255-14.179-0.938-5.148-2.596-10.125-4.254-15.099l-0.001-0.001c-1.834-5.501-3.665-10.999-4.521-16.723-0.957-6.462-0.311-13.791 4.265-18.366 25.888-2.722 51.933 1.721 78.052 6.176v0c24.489 4.178 49.045 8.366 73.601 6.671-18.722-1.39-35.842-7.506-53.37-13.769l-0.008-0.004-0.004-0.001-0.019-0.007c-2.999-1.071-6.009-2.147-9.042-3.203-5.893-2.055-11.891-4.008-17.94-5.687 25.734-1.264 51.744-0.707 77.795-0.149 33.903 0.726 67.876 1.454 101.402-1.828 12.835-1.255 25.877-3.206 37.613-8.363h-0.002c-0.335 0.045-0.671 0.089-1.006 0.132-0.245 0.031-0.491 0.060-0.736 0.087-19.35 2.223-38.919 0.866-58.346-0.491-13.033-0.913-25.742-2.113-38.449-3.312h-0.002c-10.845-1.024-21.688-2.047-32.728-2.892 28.113-3.865 55.644-12.021 81.301-24.145 6.941-3.283 13.765-6.863 20.241-11.012 21.404-13.737 38.474-33.932 48.988-57.069v215.104zM569.552 73.075v158.732c-49.362-77.538-121.441-140.452-205.010-178.735 73.972 50.887 147.866 105.134 193.867 182.247 3.967 6.649 7.674 13.42 11.143 20.299v45.74c-26.896-26.213-55.828-50.341-86.472-72.063-20.745-14.709-42.278-28.332-64.782-40.171-84.519-44.503-182.558-62.921-277.469-52.155 89.625 5.391 180.916 13.702 260.123 55.993 44.631 23.834 82.412 57.841 116.599 95.466-7.937-2.946-16.079-5.377-24.403-7.212-17.76-3.93-38.608-4.473-51.637 8.207-2.983 2.891-5.355 6.311-7.729 9.735-1.968 2.837-3.937 5.677-6.256 8.218-15.304 16.751-41.711 16.868-63.787 11.582-5.862-1.404-11.704-3.101-17.549-4.799h-0.002c-16.167-4.696-32.345-9.394-48.95-7.894-20.378 1.846-38.15 12.674-55.957 23.524-16.991 10.352-34.014 20.724-53.365 23.331-28.275 3.812-54.403-9.418-80.521-22.645-9.831-4.979-19.66-9.956-29.603-14.025-4.467-1.828-9.033-3.495-13.6-5.164l-0.003-0.001c-13.258-4.842-26.529-9.689-37.44-18.476-28.849-23.227-32.029-67.134-20.577-102.355 7.226-22.258 19.007-42.525 30.806-62.824l0.001-0.002c6.879-11.835 13.764-23.679 19.756-35.937 2.893-5.913 5.706-12.053 8.547-18.252l0.004-0.009c15.466-33.746 31.748-69.274 65.989-79.854 18.787-5.801 38.601-2.25 58.241 1.27l0.007 0.001c5.3 0.95 10.588 1.897 15.84 2.658 37.044 5.378 75.432 1.164 110.421-12.123 9.938-3.773 19.59-8.254 29.24-12.735 11.874-5.513 23.743-11.024 36.135-15.209 39.94-13.494 83.11-12.538 125.247-11.439 24.816 0.646 50.706 1.564 72.498 13.456 12.19 6.644 22.247 16.267 32.327 25.913l0.001 0.001c7.235 6.923 14.482 13.858 22.54 19.711 2.29 1.664 4.632 3.232 7.019 4.714h-7.961c-34.95 0-63.282 28.332-63.282 63.282zM569.552 417.977v-60.623c-39.138-36.81-82.49-52.676-86.679-54.137 9.164 13.687 16.855 29.547 21.417 45.381 3.451 11.995 4.11 24.635 3.762 37.122-0.84 29.857-7.626 60.102-23.627 85.332-2.651 4.175-5.571 8.196-8.738 12.021 22.231-4.214 43.429-15.342 62.61-27.88 7.342-4.795 14.631-9.927 20.061-16.816 3.838-4.86 6.617-10.457 9.228-16.079 0.671-1.444 1.326-2.884 1.967-4.321zM640.79 732.424l73.876 60.947c-5.962 1.629-12.078 2.684-18.248 3.111-18.298 1.257-36.254-2.728-54.267-6.727v0c-12.523-2.78-25.075-5.566-37.787-6.6-14.563-1.176-29.255-0.040-43.914 1.093-19.676 1.522-39.297 3.039-58.48-1.042-27.001-5.739-50.254-21.948-72.33-38.79 8.685-1.525 17.307-3.386 25.838-5.558 27.686 7.496 56.302 11.569 84.984 12.073 12.227 0.22 24.481-0.22 36.63-1.616 21.901-2.524 43.408-8.274 63.699-16.892zM582.934 743.060c18.589-2.030 36.347-7.203 53.518-14.217l-23.623-19.488c-10.085 3.988-20.413 7.395-30.891 10.362-26.871 7.613-54.725 12.317-83.058 14.049 27.557 7.446 55.837 12.383 84.054 9.294zM539.26 710.902c22.169-0.678 44.018-3.087 64.765-8.81l-11.462-9.456c-2.067-1.705-4.009-3.528-5.821-5.454-9.7 6.212-19.802 11.747-30.253 16.546-5.648 2.599-11.401 4.976-17.229 7.174zM577.957 675.335c1.197 2.086 2.514 4.104 3.947 6.047-6.842 4.221-13.944 8.034-21.344 11.372-3.542 1.603-7.148 3.064-10.78 4.408 9.866-6.665 19.296-13.955 28.178-21.828zM164.962 662.115c0 8.983 7.277 16.259 16.26 16.259s16.26-7.276 16.26-16.259c0-8.983-7.277-16.26-16.26-16.26s-16.26 7.277-16.26 16.26zM416.885 411.124c2.92 8.131 11.658 11.93 20.241 10.962 10.405-1.177 17.992-10.341 23.098-19.491 12.653-22.736 17.022-49.957 12.11-75.51 24.158 40.856 14.67 94.716-9.5 135.561-8.97 15.148-20.383 29.133-34.898 39.099-29.233 20.080-66.032 21.439-102.101 22.772h-0.002c-7.579 0.28-15.125 0.559-22.562 1.010-13.765 0.84-27.479 2.366-41.077 4.576 11.621-26.097 41.348-38.918 68.182-49.504 17.823-7.031 35.738-14.322 51.468-25.256 15.717-10.934 29.276-25.954 35.041-44.218z" />
<glyph unicode="&#xe916;" glyph-name="show" horiz-adv-x="1010" d="M46 620.759c-1.052 2.411-2.104 4.823-3.483 7.056-4.202 6.797-10.939 11.227-17.718 15.683-5.422 3.564-10.87 7.145-15.069 11.969-12.048 13.795-11.305 34.657-6.356 52.289 1.657 5.902 3.712 11.717 5.766 17.528 4.081 11.547 8.155 23.075 9.081 35.224 0.913 11.9-1.24 23.69-3.394 35.488-0.875 4.791-1.75 9.585-2.421 14.388-2.32 16.61-1.686 34.998 8.707 48.19 7.254 9.178 17.89 14.251 28.611 19.364 7.633 3.641 15.309 7.301 21.837 12.479 6.98 5.544 12.426 12.637 17.879 19.739 2.593 3.377 5.187 6.756 7.948 9.97 19.687 22.92 48.778 37.504 78.92 39.591 21.895 1.505 43.38-3.264 64.932-8.048 14.985-3.326 30.003-6.66 45.213-7.897 17.425-1.406 35.003-0.047 52.544 1.309 23.542 1.82 47.019 3.636 69.972-1.247 32.306-6.867 60.129-26.26 86.544-46.412-10.393-1.825-20.708-4.052-30.915-6.65-33.127 8.97-67.368 13.842-101.685 14.445-14.63 0.263-29.292-0.263-43.83-1.933-54.622-6.294-107.206-29.369-148.823-65.326 44.355 26.538 90.442 52.227 141.834 57.84 33.76 3.696 67.598-2.212 100.571-11.12-33.9-2.072-67.228-7.702-99.381-16.811-18.079-5.119-35.787-11.336-52.784-19.146-63.84-29.322-116.84-81.549-150.014-147.803 41.2 54.037 84.936 107.516 145.143 134.673 33.636 15.172 70.784 20.569 108.721 21.729-6.975-2.629-13.857-5.475-20.616-8.583-63.841-29.322-116.841-81.548-150.015-147.802 41.201 54.035 84.936 107.516 145.143 134.672 4.237 1.918 8.553 3.665 12.898 5.274-41.060-27.744-75.826-64.506-98.577-108.381-2.373-4.578-4.657-9.277-6.95-13.993-10.227-21.032-20.626-42.42-39.878-55.015-10.168-6.65-21.86-10.149-33.577-13.657-9.972-2.985-19.962-5.975-29.042-10.918-7.975-4.341-15.050-10.081-22.125-15.819-7.111-5.769-14.221-11.535-22.245-15.885-16.007-8.661-39.267-9.434-49.381 5.707-1.634 2.442-2.81 5.139-3.987 7.837zM256.265 559.431c-20.445 99.999 33.204 179.167 51.793 203.479 106.134 138.757 317.026 119.695 340.601 117.564 0.663-0.060 1.18-0.107 1.54-0.136 96.905-7.98 178.965-15.141 226.985-39.994 0.759-0.393 1.95-0.919 3.435-1.575 6.867-3.031 20.042-8.848 26.119-17.278 9.874-13.691-5.139-40.1-8.883-46.688l-0.010-0.017c-10.006-17.584-30.636-44.788-115.804-81.317l-0.26-0.111c-9.982-4.278-19.995-8.57-30.084-12.649 7.068-13.996 12.852-28.656 15.233-43.797 3.708-23.45-1.050-44.654-5.838-66.002h-0.001c-2.763-12.317-5.537-24.683-6.702-37.555-2.475-27.188 2.737-57.81 16.703-83.622-22.209 25.828-34.054 62.373-38.973 96.768-1.377 9.558-2.243 19.068-2.799 28.534-7.754-10.66-16.903-20.578-26.085-30.533-10.306-11.172-20.655-22.388-29.112-34.747-17.846-26.090-27.234-58.645-22.3-89.87-16.008 34.535-12.357 75.594-0.558 111.783 9.314 28.564 23.657 55.074 37.979 81.548 3.825 7.068 7.647 14.134 11.372 21.236 3.649 6.943 7.221 14.074 9.016 21.681 2.445 5.615 3.991 11.616 4.439 17.724 1.012 13.841-3.261 27.214-7.53 40.572-1.53 4.793-3.062 9.582-4.347 14.392-7.193 26.894-6.744 55.799 1.298 82.446-13.439-20.988-15.279-47.433-14.552-72.348 0.17-5.675 0.479-11.366 1.5-16.965 1.124-6.161 3.108-12.115 5.091-18.067 2.194-6.582 4.386-13.162 5.41-20.008 1.144-7.733 0.371-16.502-5.104-21.977-30.977-3.257-62.138 2.060-93.39 7.39-29.302 4.999-58.684 10.011-88.064 7.983 22.4-1.663 42.884-8.982 63.859-16.476 3.6-1.285 7.213-2.577 10.854-3.845 7.051-2.459 14.228-4.794 21.465-6.805-30.791-1.513-61.912-0.847-93.082-0.179-40.566 0.868-81.215 1.739-121.33-2.188-15.357-1.5-30.962-3.835-45.004-10.006l0.004 0.001c0.695 0.092 1.389 0.185 2.083 0.261 23.152 2.661 46.566 1.037 69.811-0.587 15.594-1.093 30.801-2.528 46.005-3.963h0.001c12.976-1.224 25.95-2.449 39.162-3.46-33.638-4.624-66.579-14.384-97.277-28.89-8.304-3.927-16.471-8.212-24.218-13.176-38.988-25.023-65.96-67.955-71.527-113.948 4.592 13.114 9.418 25.394 15.263 37.983 3.124 6.727 6.45 13.423 11.042 19.238 6.496 8.242 15.219 14.382 24.003 20.121 22.951 15.001 48.314 28.317 74.914 33.358-3.789-4.578-7.283-9.388-10.455-14.382-19.146-30.189-27.264-66.378-28.27-102.103-0.418-14.939 0.371-30.064 4.5-44.416 5.459-18.945 14.662-37.921 25.626-54.299-8.382 2.923-147.772 54.035-175.547 189.915zM812.199 798.944c0 10.749-8.707 19.456-19.456 19.456s-19.456-8.707-19.456-19.456c0-10.748 8.708-19.455 19.456-19.455s19.456 8.707 19.456 19.455zM510.78 498.63c-3.496 9.728-13.949 14.274-24.22 13.114-12.45-1.408-21.527-12.372-27.636-23.321-15.141-27.204-20.368-59.774-14.49-90.35-28.906 48.887-17.554 113.331 11.366 162.202 10.733 18.125 24.39 34.859 41.758 46.782 34.978 24.027 79.007 25.653 122.165 27.248h0.001c9.067 0.335 18.097 0.668 26.998 1.209 16.471 1.005 32.879 2.83 49.148 5.475-13.903-31.225-49.474-46.566-81.58-59.233-21.327-8.413-42.761-17.135-61.583-30.22-18.806-13.083-35.029-31.053-41.926-52.906zM977.57 357.060c-13.055 10.514-28.933 16.313-44.796 22.107-5.466 1.996-10.931 3.992-16.276 6.18-11.897 4.868-23.659 10.824-35.422 16.781-31.251 15.826-62.512 31.656-96.344 27.094-23.152-3.118-43.521-15.529-63.851-27.916-21.306-12.982-42.571-25.937-66.955-28.146-19.866-1.794-39.224 3.828-58.568 9.445-6.995 2.032-13.987 4.063-21.001 5.742-26.415 6.326-58.010 6.186-76.321-13.857-2.775-3.042-5.132-6.438-7.485-9.833-2.841-4.096-5.68-8.189-9.249-11.648-15.588-15.171-40.535-14.522-61.783-9.82-9.96 2.195-19.703 5.103-29.198 8.629 40.905-45.020 86.111-85.709 139.512-114.226 94.772-50.603 204.004-60.547 311.241-66.997-113.562-12.882-230.867 9.155-331.995 62.403-26.925 14.166-52.69 30.466-77.512 48.066-49.984 35.432-96.164 76.213-137.549 121.373 11.136-39.963 26.152-78.518 47.417-114.166 55.041-92.267 143.457-157.174 231.965-218.062-103.911 47.602-192.976 127.032-252.116 224.852-15.744 26.027-29.4 53.293-41.572 81.177-23.089 52.908-40.859 108.119-53 164.551-22.842-58.289-39.808-118.604-41.37-180.867-2.691-107.408 37.457-209.479 79.817-308.21-62.48 95.715-95.421 210.422-93.24 324.696 0.587 30.42 3.587 60.764 8.165 90.827 9.434 61.863 25.612 122.688 48.114 181.085 0.262 1.716 0.541 3.418 0.835 5.134-12.041-20.049-35.091-31.852-58.374-43.772-12.959-6.636-25.991-13.309-37.234-21.461-29.322-21.265-48.051-56.464-49.335-92.669-0.342-9.767 0.507-19.544 1.356-29.309 1.106-12.731 2.211-25.441 0.67-38.088-2.822-23.109-14.202-43.983-25.408-64.538-1.506-2.762-3.008-5.518-4.486-8.273-22.951-42.793-41.262-89.359-42.715-137.905s16.115-99.442 54.222-129.553c26.761-21.142 60.149-30.067 93.589-39.004 31.82-8.506 63.688-17.024 89.939-36.095 9.641-7.005 18.312-15.302 26.969-23.587h0.001c12.062-11.542 24.094-23.056 38.68-31.006 26.075-14.229 57.053-15.327 86.746-16.1 50.417-1.314 102.071-2.459 149.859 13.687 14.829 5.008 29.031 11.601 43.237 18.198 11.547 5.361 23.096 10.723 34.988 15.237 41.864 15.898 87.797 20.94 132.121 14.506 6.287-0.91 12.615-2.045 18.961-3.182 23.5-4.211 47.206-8.46 69.687-1.519 40.969 12.659 60.451 55.169 78.956 95.548l0.004 0.009c3.399 7.419 6.767 14.764 10.228 21.84 7.171 14.666 15.409 28.841 23.64 43.001v0c14.118 24.289 28.213 48.539 36.86 75.17 13.703 42.144 9.898 94.68-24.621 122.47z" />
<glyph unicode="&#xe917;" glyph-name="bid" horiz-adv-x="971" d="M214.798 937.675l3.453-1.036-101.539 9.325c-6.562 0.691-12.433-4.49-13.124-11.743l-16.578-185.119c8.98 0 18.995-0.691 29.702-1.726l12.088 133.313c16.232-1.381 31.084 11.397 32.465 29.011l89.105-7.944c-1.726-17.614 10.362-32.81 26.939-34.537l-22.795-253.848c-6.561 0.692-12.778-1.036-17.959-4.489-2.417-21.759-9.325-40.409-18.65-56.296l39.718-3.454 32.81-10.706c6.216-2.072 13.124 1.726 15.196 8.289l5.527 17.269c0 0.345 0.345 0.691 0.345 1.036s0.345 0.691 0.345 1.036l99.121 300.473c0 0.345 0.347 0.691 0.347 1.381 0 0.345 0.345 1.036 0.345 1.381l5.526 16.923c2.072 6.562-1.036 13.815-7.253 15.887l-16.232 5.526-1.382 0.691-140.22 45.589h-0.691l-0.692 0.345-16.232 5.181c-6.216 2.072-13.124-1.727-15.541-8.289l-4.145-13.469zM283.527 606.119l26.592 294.947 44.553-14.851c-5.526-16.578 2.763-34.537 18.305-39.718l-79.78-242.104c-3.454 1.381-6.563 1.726-9.67 1.726zM165.755 735.632c11.742-4.49 23.14-11.051 33.846-20.031 19.687 1.726 34.883 12.779 36.264 27.63 1.728 17.614-16.922 33.501-41.79 35.573-24.866 2.072-45.934-10.362-47.315-27.63-0.345-3.454 0-6.563 1.381-9.67 5.871-1.728 12.088-3.454 17.614-5.872zM26.571 670.358c4.144 22.104 21.758 44.208 43.862 44.208 44.207 0 132.277 0 132.277-88.071 0-27.63-8.98-49.387-21.759-66.311-19.686-25.903-48.351-39.373-66.311-43.863h-44.207c-22.104 0-88.070 0-65.966 65.967l22.104 88.069zM206.164 536.699c-23.14-28.667-54.223-44.898-75.982-51.807 47.315-87.379 155.417-241.759 282.859-289.42 17.269-6.561 29.011-23.83 25.903-42.135l-30.738-168.886c-3.799-21.068 12.434-40.754 33.846-40.754h242.105c14.851 0 27.975 9.67 32.81 23.485l33.157 99.812c1.726 5.18 6.561 8.634 12.087 8.634 6.908 0 12.779-5.871 12.779-12.779v-84.962c0-18.995 15.541-34.536 34.538-34.536h90.486c16.924 0 31.429 12.088 34.192 29.011l17.269 103.266c22.103 73.564 8.98 228.981-220.348 264.209-237.961 0.345-434.475 119.498-524.963 196.861zM709.369 384.045c109.483 0 198.242 88.761 198.242 198.244s-88.76 198.242-198.242 198.242c-109.483 0-198.244-88.76-198.244-198.242s88.761-198.244 198.244-198.244z" />
<glyph unicode="&#xe918;" glyph-name="plane" horiz-adv-x="1075" d="M0 960l1075.2-512-1075.2-512 51.2 460.8 563.2 51.2-563.2 51.2-51.2 460.8z" />
<glyph unicode="&#xe919;" glyph-name="photo" horiz-adv-x="1126" d="M1126.4 960v-1024h-1126.4v1024h1126.4zM512 165.888l-128 154.112-179.2-230.4h716.8l-230.4 307.2-179.2-230.912zM460.8 499.2c56.556 0 102.4 45.846 102.4 102.4s-45.844 102.4-102.4 102.4c-56.553 0-102.4-45.846-102.4-102.4s45.847-102.4 102.4-102.4z" />
<glyph unicode="&#xe91a;" glyph-name="breadcrumb" horiz-adv-x="853" d="M681.168 521.725c46.327-39.794 46.327-104.066 0-143.86l-477.947-408.117c-46.604-39.559-121.871-39.559-168.475 0-46.328 39.794-46.328 104.066 0 143.86l393.11 335.677-391.916 336.695c-30.095 25.881-41.735 63.506-30.535 98.702s43.54 62.615 84.835 71.931c41.296 9.315 85.275-0.89 115.371-26.77l475.556-408.117z" />
<glyph unicode="&#xe91b;" glyph-name="pen" d="M0 190.162v-196.921h196.923l580.792 580.789-196.923 196.923-580.792-580.792zM966.758 763.077l-196.921 196.923-132.857-133.382 196.925-196.923 132.852 133.382z" />
<glyph unicode="&#xe91c;" glyph-name="trash" horiz-adv-x="853" d="M56.889-64h682.667v796.444h-682.667v-796.444zM796.445 903.111h-199.112l-56.888 56.889h-284.445l-56.889-56.889h-199.111v-113.778h796.445v113.778z" />
<glyph unicode="&#xe91d;" glyph-name="private" horiz-adv-x="832" d="M780.090 618.577h-146.268v87.272c0 127.252-93.123 240.852-219.887 253.041-145.292 13.652-267.668-100.436-267.668-242.802v-97.511h-146.266v-682.577h780.090v682.577zM390.044 179.776c-53.631 0-97.511 43.878-97.511 97.51 0 53.633 43.88 97.513 97.511 97.513s97.51-43.88 97.51-97.513c0-53.632-43.88-97.51-97.51-97.51zM243.777 618.577v97.511c0 80.934 65.332 146.267 146.267 146.267s146.266-65.332 146.266-146.267v-97.511h-292.533z" />
<glyph unicode="&#xe91e;" glyph-name="eye-see" horiz-adv-x="1502" d="M750.933 960c-341.333 0-632.832-212.309-750.933-512 118.101-299.691 409.6-512 750.933-512s632.832 212.309 750.933 512c-118.101 299.691-409.6 512-750.933 512zM750.933 106.667c-188.416 0-341.333 152.917-341.333 341.333s152.917 341.333 341.333 341.333c188.416 0 341.333-152.917 341.333-341.333s-152.917-341.333-341.333-341.333zM750.933 652.8c-113.323 0-204.8-91.477-204.8-204.8s91.477-204.8 204.8-204.8c113.323 0 204.8 91.477 204.8 204.8s-91.477 204.8-204.8 204.8z" />
<glyph unicode="&#xe91f;" glyph-name="eye-blind" horiz-adv-x="1126" d="M563.2 752.64c141.312 0 256-114.688 256-256 0-26.112-5.12-51.2-12.288-74.752l156.672-156.672c71.168 62.976 127.488 141.824 162.816 231.936-88.576 224.256-307.2 383.488-563.2 383.488-65.024 0-127.488-10.24-186.368-29.184l111.104-111.104c24.064 7.168 49.152 12.288 75.264 12.288zM123.904 960l-72.192-72.704 137.216-137.216c-83.456-65.536-149.504-152.576-188.928-253.44 88.576-224.768 307.2-384 563.2-384 77.824 0 152.064 15.36 220.672 41.984l175.616-175.616 72.192 72.192-907.776 908.8zM563.2 240.64c-141.312 0-256 114.688-256 256 0 39.424 9.216 76.8 25.088 109.568l80.384-80.384c-1.536-9.216-3.072-18.944-3.072-29.184 0-84.992 68.608-153.6 153.6-153.6 10.24 0 19.456 1.536 29.184 3.584l80.384-80.384c-33.28-16.384-70.144-25.6-109.568-25.6zM715.264 513.536c-7.68 71.68-64 127.488-135.168 135.168l135.168-135.168z" />
<glyph unicode="&#xe920;" glyph-name="dropdown" horiz-adv-x="1365" d="M62.604 680.076l488.953-586.743c68.231-81.879 193.988-81.879 262.219-0.002l488.953 586.745c92.633 111.159 13.588 279.924-131.11 279.924h-977.906c-144.697 0-223.743-168.765-131.11-279.924z" />
<glyph unicode="&#xe921;" glyph-name="bell" horiz-adv-x="745" d="M537.856 49.776c0-37.274-64.829-82.739-144.804-82.744-79.977 0.005-144.809 45.47-144.809 82.744h289.614zM372.364 960c56.85 0 103.098-47.011 103.098-104.791v-63.644c103.773-41.749 177.175-144.644 177.175-264.971v-181.097c0-69.73 29.254-132.501 75.958-176.37 9.84-8.155 16.133-20.438 16.133-34.23 0-7.284-1.778-14.136-4.878-20.177-7.177-13.996-21.56-23.571-38.163-23.571h-658.644c-16.602 0-30.988 9.574-38.167 23.571-3.099 6.042-4.876 12.893-4.876 20.177 0 13.791 6.294 26.075 16.106 34.095 46.73 44.004 75.985 106.775 75.985 176.505v181.097c0 120.327 73.399 223.221 177.172 264.971v63.644c0 57.78 46.248 104.791 103.1 104.791zM372.364 910.148c-25.705 0-46.545-21.178-46.545-47.309 0-26.126 20.84-47.308 46.545-47.308s46.545 21.182 46.545 47.308c0 26.131-20.84 47.309-46.545 47.309z" />
<glyph unicode="&#xe922;" glyph-name="start" horiz-adv-x="696" d="M665.6 759.296l-409.6 200.704v-921.6h-102.4v88.576c-91.648-17.92-153.6-50.688-153.6-88.576 0-56.32 137.728-102.4 307.2-102.4s307.2 46.080 307.2 102.4c0 50.688-110.592 92.672-256 100.864v463.36l307.2 156.672z" />
<glyph unicode="&#xe923;" glyph-name="report" horiz-adv-x="768" d="M730.317 859.917h-639.027v100.083h-91.29v-1000.832h91.29v400.333h639.027l-91.29 250.208 91.29 250.208zM456.449 609.709c0-55.046-41.080-100.083-91.29-100.083s-91.29 45.038-91.29 100.083c0 55.046 41.081 100.083 91.29 100.083s91.29-45.038 91.29-100.083z" />
<glyph unicode="&#xe924;" glyph-name="heart" horiz-adv-x="1092" d="M546.133-42.155l-79.189 72.090c-281.259 255.044-466.944 423.253-466.944 629.692 0 168.209 132.164 300.373 300.373 300.373 95.027 0 186.231-44.237 245.76-114.142 59.529 69.905 150.733 114.142 245.76 114.142 168.209 0 300.373-132.164 300.373-300.373 0-206.438-185.685-374.647-466.944-630.238l-79.189-71.543z" />
<glyph unicode="&#xe925;" glyph-name="phone" horiz-adv-x="1229" d="M1083.392 741.888l-72.192 72.192-182.272-181.76 72.192-72.192c0 0 176.64 180.224 182.272 181.76v0zM563.2 960h102.4v-256h-102.4v256zM327.68 560.128l72.192 72.192-181.76 182.272-72.704-72.704c5.632-1.536 182.272-181.76 182.272-181.76v0zM0 172.032l188.416-188.416 200.704 159.232v172.544c145.92 47.616 304.128 47.616 450.56 0v-173.056l200.192-158.72 188.928 188.416c-328.192 368.128-900.608 368.128-1228.8 0z" />
<glyph unicode="&#xe926;" glyph-name="play" horiz-adv-x="698" d="M148.945 894.836l496.486-372.364c49.645-37.236 49.645-111.709 0-148.945l-496.486-372.364c-61.369-46.029-148.945-2.239-148.945 74.473v744.727c0 76.711 87.577 120.499 148.945 74.473z" />
<glyph unicode="&#xe927;" glyph-name="arrow-right" horiz-adv-x="1536" d="M0 448c0 47.128 38.205 85.333 85.333 85.333h1123.84l-245.461 246.145c-33.169 33.262-33.126 87.104 0.085 120.32v0c33.246 33.249 87.159 33.249 120.405 0l391.458-391.458c33.323-33.325 33.323-87.355 0-120.68l-391.458-391.457c-33.246-33.246-87.159-33.246-120.405 0v0c-33.212 33.212-33.254 87.057-0.085 120.319l245.461 246.145h-1123.84c-47.128 0-85.333 38.205-85.333 85.333v0z" />
<glyph unicode="&#xe928;" glyph-name="search" d="M990.413 40.864l-186.223 184.724c72.282 90.13 107.291 204.533 97.822 319.683-9.475 115.15-62.705 222.294-148.751 299.403-86.040 77.108-198.357 118.319-313.853 115.158s-225.39-50.452-307.089-132.15c-81.698-81.698-128.989-191.593-132.15-307.089s38.050-227.813 115.158-313.853c77.108-86.046 184.253-139.276 299.403-148.751 115.149-9.469 229.552 25.54 319.683 97.828l184.724-184.724c4.668-4.704 10.216-8.439 16.336-10.987 6.114-2.548 12.674-3.861 19.305-3.861 6.626 0 13.186 1.313 19.299 3.861 6.12 2.548 11.668 6.283 16.336 10.987 9.047 9.361 14.107 21.865 14.107 34.888 0 13.017-5.060 25.522-14.107 34.882v0zM452.814 155.817c-69.495 0-137.429 20.606-195.212 59.211-57.783 38.611-102.819 93.491-129.414 157.694-26.594 64.205-33.553 134.854-19.995 203.014s47.023 130.768 96.163 179.908c49.14 49.141 111.749 82.605 179.908 96.163s138.809 6.599 203.014-19.995c64.202-26.594 119.083-71.631 157.694-129.414 38.605-57.783 59.217-125.717 59.217-195.212 0-93.189-37.021-182.56-102.918-248.457s-155.268-102.912-248.457-102.912v0z" />
<glyph unicode="&#xe929;" glyph-name="arrow-up" horiz-adv-x="838" d="M644.5 477.684l-132.093 133.116v-572.403c0-27.161-10.788-53.199-29.991-72.403s-45.249-29.994-72.406-29.994c-27.157 0-53.203 10.789-72.406 29.994s-29.992 45.242-29.992 72.403v572.403l-132.092-133.116c-9.547-9.547-20.882-17.121-33.356-22.289s-25.844-7.826-39.346-7.826c-13.502 0-26.872 2.66-39.347 7.826s-23.809 12.741-33.356 22.289c-9.547 9.547-17.121 20.881-22.288 33.355s-7.826 25.845-7.826 39.347c0 13.502 2.659 26.872 7.826 39.346s12.74 23.809 22.288 33.356l307.193 307.193c9.738 9.322 21.222 16.63 33.791 21.504 12.257 5.417 25.51 8.216 38.911 8.216s26.654-2.798 38.911-8.216c12.569-4.874 24.053-12.181 33.791-21.504l307.193-307.193c19.282-19.282 30.115-45.434 30.115-72.702s-10.833-53.42-30.115-72.702c-19.281-19.282-45.433-30.115-72.702-30.115s-53.42 10.833-72.702 30.115z" />
<glyph unicode="&#xe92a;" glyph-name="close" d="M898.885 930.008c-39.989 39.99-104.825 39.99-144.815 0l-289.625-289.626-289.625 289.626c-39.99 39.99-104.826 39.99-144.816 0s-39.99-104.826 0-144.816l289.626-289.625-289.637-289.636c-39.99-39.99-39.99-104.826 0-144.815s104.826-39.99 144.816 0l289.636 289.636 289.636-289.636c39.99-39.99 104.826-39.99 144.815 0s39.99 104.825 0 144.815l-289.636 289.636 289.625 289.625c39.99 39.99 39.99 104.826 0 144.816z" />
<glyph unicode="&#xe92b;" glyph-name="plus" d="M512 960c-47.128 0-85.333-38.205-85.333-85.333v-341.333h-341.333c-47.128 0-85.333-38.205-85.333-85.333s38.205-85.333 85.333-85.333h341.333v-341.333c0-47.13 38.205-85.333 85.333-85.333s85.333 38.204 85.333 85.333v341.333h341.333c47.13 0 85.333 38.205 85.333 85.333s-38.204 85.333-85.333 85.333h-341.333v341.333c0 47.128-38.205 85.333-85.333 85.333z" />
<glyph unicode="&#xe92c;" glyph-name="check" horiz-adv-x="1463" d="M1126.333 917.461l-627.566-629.028-241.371 241.371c-13.113 15.313-29.251 27.75-47.401 36.53-18.148 8.782-37.916 13.716-58.062 14.494s-40.237-2.617-59.009-9.972c-18.772-7.354-35.821-18.51-50.078-32.765-14.256-14.257-25.412-31.305-32.766-50.078s-10.749-38.862-9.971-59.009c0.778-20.145 5.712-39.914 14.493-58.062 8.78-18.15 21.218-34.288 36.531-47.401l343.771-345.234c13.669-13.558 29.88-24.285 47.704-31.564 17.822-7.281 36.908-10.97 56.159-10.859 38.377 0.161 75.153 15.397 102.4 42.423l731.429 731.429c13.711 13.599 24.595 29.778 32.022 47.604 7.425 17.826 11.249 36.947 11.249 56.259s-3.824 38.431-11.249 56.258c-7.427 17.826-18.311 34.006-32.022 47.605-27.408 27.246-64.484 42.539-103.131 42.539-38.646 0-75.722-15.293-103.131-42.539z" />
</font>
</defs>
</svg>
