<svg width="55" height="55" viewBox="0 0 55 55" fill="none" xmlns="http://www.w3.org/2000/svg">
    <path d="m12.78 20.999-3.299 5.06a1.022 1.022 0 0 0 .857 1.582h.002l2.36-.004c.25 0 .5-.084.7-.235l4.838-3.642 6.836 1.172.019.003c.116.017.236.024.35.025l2.65-.005-7.395 12.521a.998.998 0 0 0 .857 1.502h.001l4.193-.002c.387 0 .752-.149 1.03-.418l3.722-3.613a.731.731 0 0 0-1.019-1.05L25.76 37.51a.016.016 0 0 1-.01.004l-3.375.002 7.419-12.562 8.92-.014-6.75 6.55a.731.731 0 0 0 1.018 1.05l7.834-7.603 3.71-.006a4.85 4.85 0 0 0 1.831-.36l3.602-1.47a2.296 2.296 0 0 0 1.453-2.165 2.296 2.296 0 0 0-1.46-2.16l-3.607-1.456a4.848 4.848 0 0 0-1.824-.355h-.009l-3.77.007L26.778 3.42a1.472 1.472 0 0 0-1.029-.418L21.557 3h-.001a.998.998 0 0 0-.858 1.502l7.375 12.488-2.645.004a2.434 2.434 0 0 0-.367.03l-6.833 1.194-4.85-3.625c-.201-.15-.45-.232-.701-.232h-.001l-2.36.004a1.022 1.022 0 0 0-.853 1.585l3.317 5.049zm-.2-5.175 4.823 3.604c.29.216.66.305 1.015.242l6.885-1.204a.935.935 0 0 1 .128-.01l9.77-.015a.731.731 0 0 0-.002-1.462l-5.429.008-7.396-12.524 3.374.002c.004 0 .009.002.012.005l12.925 12.544a.731.731 0 0 0 .238 1.422h.001l5.59-.01h.006c.44 0 .869.084 1.276.248l3.607 1.457a.854.854 0 0 1 .545.806.854.854 0 0 1-.542.809l-3.602 1.469c-.409.166-.84.252-1.282.252l-19.083.03h-.002a.932.932 0 0 1-.126-.009l-6.888-1.18a1.32 1.32 0 0 0-1.014.246l-4.81 3.62-1.449.003 2.907-4.46a1.316 1.316 0 0 0-.002-1.441l-2.923-4.45 1.448-.002z" fill="#CC9D6E"/>
    <path d="M28.396 21.86a.94.94 0 1 0-.192-1.872.94.94 0 0 0 .192 1.872zM32.676 21.198a.94.94 0 1 0-1.794-.564.94.94 0 0 0 1.794.564zM35.853 21.579a.94.94 0 1 0-1.33-1.33.94.94 0 0 0 1.33 1.33zM38.674 21.85a.94.94 0 1 0 0-1.88.94.94 0 0 0 0 1.88zM50.294 43.087H16.312v-3.183h.435a.731.731 0 1 0 0-1.462h-.435v-3.183h.435a.731.731 0 1 0 0-1.462h-.435v-.86c0-.493-.295-.935-.75-1.125l-3.574-1.492a2.207 2.207 0 0 0-1.69 0l-3.574 1.492c-.455.19-.75.631-.75 1.125v.86h-.39a.731.731 0 1 0 0 1.462h.39v3.182h-.39a.731.731 0 1 0 0 1.463h.39v3.182H3.707c-.94 0-1.706.766-1.706 1.707v5.173c0 .941.765 1.707 1.706 1.707h2.426a.731.731 0 1 0 0-1.463H3.706a.244.244 0 0 1-.244-.244v-5.173c0-.135.11-.244.244-.244h46.588c.134 0 .244.11.244.244v5.173c0 .135-.11.244-.244.244h-4.047v-2.822a1.22 1.22 0 0 0-1.219-1.219H26.431a1.22 1.22 0 0 0-1.219 1.219v2.822H9.971a.731.731 0 1 0 0 1.463h40.323c.94 0 1.706-.766 1.706-1.707v-5.173c0-.941-.765-1.706-1.706-1.706zm-35.445-4.645H7.437v-3.183h7.412v3.183zm-3.988-6.773a.736.736 0 0 1 .564 0l3.424 1.43v.697H7.437V33.1l3.424-1.43zm-3.424 8.235h7.412v3.182H7.437v-3.182zm29.01 7.728h3.679v2.578h-3.68v-2.578zm-1.463 2.578H31.28v-2.578h3.705v2.578zm-8.31-2.578h3.143v2.578h-3.142v-2.578zM41.59 50.21v-2.578h3.195v2.578H41.59z" fill="#CC9D6E"/>
</svg>
