<svg width="55" height="55" viewBox="0 0 55 55" fill="none" xmlns="http://www.w3.org/2000/svg">
    <path d="M23.282 32.872h7.436a.732.732 0 1 0 0-1.464h-7.436a.732.732 0 1 0 0 1.464zM24.776 16.219a2.491 2.491 0 0 0-2.488 2.488v.463h-.742c-.563 0-1.035.403-1.123.96l-.777 4.93a1.137 1.137 0 0 0 1.123 1.313h8.014c.698 0 1.231-.624 1.122-1.314l-.777-4.93a1.131 1.131 0 0 0-1.122-.96h-.742v-.462a2.49 2.49 0 0 0-2.488-2.488zm-1.025 2.488a1.025 1.025 0 0 1 2.05 0v.463h-2.05v-.463zM28.4 24.91h-7.248l.674-4.275h5.9l.674 4.275z" fill="#CC9D6E"/>
    <path d="M51.148 28.8h-3.593a.732.732 0 1 0 0 1.463h2.981v1.145H36.841v-1.145h7.298a.732.732 0 1 0 0-1.464h-7.298v-6.315h.115c.627 0 1.137-.51 1.137-1.138v-1.693c0-.627-.51-1.137-1.137-1.137h-.115v-1.4h.115c.627 0 1.137-.51 1.137-1.137v-1.693c0-.627-.51-1.138-1.137-1.138h-.115V7.913a.913.913 0 0 0-1.19-.869l-17.892 5.728a.91.91 0 0 0-.635.87v4.784a.732.732 0 1 0 1.464 0v-4.383l16.79-5.375v4.48H31.97c-.627 0-1.138.51-1.138 1.138v1.693c0 .627.51 1.137 1.138 1.137h3.407v1.4H31.97c-.627 0-1.138.51-1.138 1.137v1.693c0 .628.51 1.138 1.138 1.138h3.407v23.748H32.11V35.336h.638c.643 0 1.166-.523 1.166-1.166v-4.06c0-.643-.523-1.166-1.166-1.166h-11.53c-.643 0-1.166.523-1.166 1.166v4.06c0 .643.523 1.166 1.165 1.166h.638v.96a.732.732 0 1 0 1.463 0v-.96h2.95V46.23h-2.95v-6.52a.732.732 0 1 0-1.463 0v6.52h-3.267v-24.39a.732.732 0 1 0-1.464 0V28.8H2.852a.853.853 0 0 0-.852.852v2.368c0 .44.336.804.765.848v10.76a.854.854 0 0 0-.765.848v2.368c0 .47.382.852.852.852h48.296c.47 0 .852-.382.852-.852v-2.368a.854.854 0 0 0-.765-.848v-10.76A.853.853 0 0 0 52 32.02v-2.368a.853.853 0 0 0-.852-.852zM32.296 14.611h4.334v1.04h-4.334v-1.04zm0 5.367h4.334v1.041h-4.334v-1.04zm-21.91 15.332v2.204H8.039v-2.204h2.347zm3.81 0v2.204H11.85v-2.204h2.346zM8.04 41.183V38.98h2.347v2.204H8.039zm-3.81 0V38.98h2.346v2.204H4.23zm7.62-2.204h2.347v2.204H11.85V38.98zm-5.274-1.464H4.23v-2.204h2.346v2.204zM4.23 42.647h10.557a.875.875 0 0 0 .874-.874v-7.051a.875.875 0 0 0-.874-.874H4.229v-.976h12.895v10.75H4.229v-.975zm-.765-12.384h13.66v1.145H3.464v-1.145zm0 14.824h13.66v1.145H3.464v-1.145zm18.051-14.68H32.45v3.465H21.515v-3.464zm6.217 4.929h2.915v10.896h-2.915V35.336zm15.882 5.847V38.98h2.347v2.204h-2.347zm-3.81 0V38.98h2.346v2.204h-2.346zm6.157-5.872v2.204h-2.347v-2.204h2.347zm3.81 0v2.204h-2.346v-2.204h2.346zm-7.62 2.204h-2.347v-2.204h2.346v2.204zm5.274 1.464h2.346v2.204h-2.346V38.98zm2.346-6.107v.976H39.214a.875.875 0 0 0-.874.874v7.051c0 .482.392.874.874.874H49.77v.976h-12.93V32.872h12.93zm.765 13.36H36.841v-1.145h13.695v1.145z" fill="#CC9D6E"/>
</svg>
