<svg width="55" height="55" viewBox="0 0 55 55" fill="none" xmlns="http://www.w3.org/2000/svg">
    <path d="M10.137 50.778c1.51-1.459 3.242-3.568 3.242-6.957 0-2.255-1.904-4.091-4.245-4.091-2.34 0-4.244 1.836-4.244 4.09 0 3.412 1.733 5.513 3.243 6.963.553.53 1.45.53 2.004-.005zM9.134 40.64c1.82 0 3.302 1.427 3.302 3.182 0 3.038-1.5 4.897-2.966 6.315a.484.484 0 0 1-.672.002c-1.38-1.324-2.965-3.24-2.965-6.317 0-1.754 1.48-3.182 3.301-3.182z" fill="#CC9D6E" stroke="#CC9D6E" stroke-width=".4"/>
    <path d="M11.492 43.82c0-1.252-1.057-2.272-2.358-2.272-1.3 0-2.358 1.02-2.358 2.273 0 1.253 1.058 2.273 2.358 2.273 1.301 0 2.358-1.02 2.358-2.273zm-3.773 0c0-.75.635-1.363 1.415-1.363s1.415.612 1.415 1.364c0 .752-.635 1.364-1.415 1.364S7.72 44.572 7.72 43.82zM10.137 14.415c1.51-1.46 3.242-3.569 3.242-6.958 0-2.255-1.904-4.09-4.245-4.09-2.34 0-4.244 1.835-4.244 4.09 0 3.411 1.733 5.512 3.243 6.962.553.531 1.45.53 2.004-.005zM9.134 4.274c1.82 0 3.302 1.428 3.302 3.182 0 3.038-1.5 4.897-2.966 6.315a.484.484 0 0 1-.672.002c-1.38-1.324-2.965-3.24-2.965-6.317 0-1.753 1.48-3.182 3.301-3.182z" fill="#CC9D6E" stroke="#CC9D6E" stroke-width=".4"/>
    <path d="M11.492 7.457c0-1.252-1.057-2.272-2.358-2.272-1.3 0-2.358 1.02-2.358 2.272 0 1.253 1.058 2.273 2.358 2.273 1.301 0 2.358-1.02 2.358-2.273zm-3.773 0c0-.752.635-1.363 1.415-1.363s1.415.611 1.415 1.363-.635 1.364-1.415 1.364S7.72 8.209 7.72 7.457z" fill="#CC9D6E" stroke="#CC9D6E" stroke-width=".4"/>
    <path d="M47.87 50.778c1.509-1.459 3.24-3.568 3.24-6.956 0-2.256-1.904-4.091-4.244-4.091s-4.245 1.835-4.245 4.09c0 3.412 1.734 5.513 3.243 6.963.554.53 1.45.529 2.005-.006zm-1.34-.639c-1.381-1.325-2.966-3.24-2.966-6.317 0-1.755 1.481-3.182 3.302-3.182 1.82 0 3.301 1.427 3.301 3.182 0 3.038-1.5 4.897-2.966 6.314a.484.484 0 0 1-.671.003z" fill="#CC9D6E"/>
    <path d="M47.87 50.778c1.509-1.459 3.24-3.568 3.24-6.956 0-2.256-1.904-4.091-4.244-4.091s-4.245 1.835-4.245 4.09c0 3.412 1.734 5.513 3.243 6.963.554.53 1.45.529 2.005-.006zm0 0c-.002 0-.002 0 0 0zm-1.34-.639c-1.381-1.325-2.966-3.24-2.966-6.317 0-1.755 1.481-3.182 3.302-3.182 1.82 0 3.301 1.427 3.301 3.182 0 3.038-1.5 4.897-2.966 6.314a.484.484 0 0 1-.671.003z" stroke="#CC9D6E" stroke-width=".4"/>
    <path d="M46.866 41.548c-1.301 0-2.359 1.02-2.359 2.273 0 1.253 1.058 2.273 2.359 2.273 1.3 0 2.358-1.02 2.358-2.273 0-1.253-1.058-2.273-2.358-2.273zm0 3.636c-.78 0-1.415-.611-1.415-1.363s.635-1.364 1.415-1.364 1.415.612 1.415 1.364c0 .752-.635 1.364-1.415 1.364zM28 17.735c-4.421 0-8.018 3.466-8.018 7.727 0 7.613 4.4 11.758 7.029 14.234a1.438 1.438 0 0 0 1.98-.007c3.556-3.399 7.027-7.297 7.027-14.227 0-4.261-3.597-7.727-8.018-7.727zm.326 21.308a.476.476 0 0 1-.655.002c-2.523-2.377-6.745-6.353-6.745-13.584 0-3.76 3.174-6.818 7.075-6.818 3.901 0 7.074 3.058 7.074 6.818 0 6.582-3.334 10.32-6.749 13.582z" fill="#CC9D6E" stroke="#CC9D6E" stroke-width=".4"/>
    <path d="M28 20.98c-2.34 0-4.245 1.834-4.245 4.09 0 2.255 1.905 4.09 4.245 4.09s4.245-1.835 4.245-4.09c0-2.256-1.905-4.09-4.245-4.09zm0 7.272c-1.82 0-3.302-1.427-3.302-3.182S26.18 21.888 28 21.888s3.302 1.427 3.302 3.182S29.82 28.252 28 28.252zM47.868 14.048c1.51-1.459 3.242-3.567 3.242-6.957C51.11 4.835 49.206 3 46.866 3S42.62 4.835 42.62 7.09c0 3.412 1.734 5.513 3.243 6.963.554.53 1.45.529 2.004-.005zM46.866 3.91c1.82 0 3.301 1.427 3.301 3.182 0 3.039-1.5 4.897-2.967 6.314a.483.483 0 0 1-.671.003c-1.38-1.324-2.965-3.24-2.965-6.317 0-1.755 1.481-3.182 3.302-3.182z" fill="#CC9D6E" stroke="#CC9D6E" stroke-width=".4"/>
    <path d="M49.224 7.09c0-1.252-1.058-2.272-2.358-2.272-1.301 0-2.359 1.02-2.359 2.273 0 1.253 1.058 2.273 2.359 2.273 1.3 0 2.358-1.02 2.358-2.273zm-3.773 0c0-.75.635-1.363 1.415-1.363s1.415.612 1.415 1.364c0 .752-.635 1.364-1.415 1.364S45.45 7.843 45.45 7.09zM37.82 42.09h2.443c.78 0 1.415-.61 1.415-1.363v-2.354c0-1.212-1.524-1.82-2.418-.959l-.214.207-3.61-3.47-.666.643 3.943 3.792a.486.486 0 0 0 .667 0l.547-.528c.299-.288.807-.087.807.316v2.353c0 .251-.212.455-.471.455h-2.444c-.42 0-.623-.493-.327-.778l.547-.528a.443.443 0 0 0 0-.642l-3.611-3.491-.668.642 3.28 3.169-.215.206c-.892.862-.264 2.33.994 2.33zM14.322 19.445c0 1.213 1.524 1.819 2.418.959l.214-.207 2.054 1.98.667-.643-2.387-2.3a.485.485 0 0 0-.667 0l-.547.527c-.299.286-.808.087-.808-.316v-2.354c0-.251.212-.455.471-.455h2.443c.42 0 .624.493.328.779l-.547.527a.443.443 0 0 0 0 .643l2.018 1.945.667-.643-1.684-1.624.214-.207c.893-.861.265-2.33-.995-2.33h-2.444c-.78 0-1.415.612-1.415 1.364v2.355zM14.322 40.727c0 .752.635 1.364 1.415 1.364h2.443c1.259 0 1.887-1.47.995-2.33l-.215-.207 3.26-3.15-.666-.643-3.595 3.473a.444.444 0 0 0 0 .642l.548.528c.296.285.092.778-.328.778h-2.442a.464.464 0 0 1-.471-.455v-2.354c0-.403.508-.604.807-.316l.547.527a.485.485 0 0 0 .667 0l3.934-3.79-.667-.643-3.6 3.469-.214-.206c-.893-.86-2.418-.257-2.418.958v2.355zM41.678 17.09c0-.75-.635-1.363-1.415-1.363h-2.444c-1.258 0-1.886 1.47-.994 2.33l.214.207-1.684 1.624.667.643 2.018-1.946a.443.443 0 0 0 0-.642l-.547-.528c-.296-.285-.092-.778.328-.778h2.442c.259 0 .471.204.471.455v2.354c0 .403-.51.602-.807.316l-.547-.527a.485.485 0 0 0-.667 0l-2.387 2.3.667.642 2.054-1.979.214.206c.895.862 2.417.255 2.417-.958v-2.355zM5.54 39.5l.847-.4c-3.72-7.323-3.204-16.145 1.62-23.093l-.785-.505C2.198 22.74 1.683 31.907 5.54 39.5zM48.583 15.24l-.775.518A22.47 22.47 0 0 1 49.611 39.1l.848.4a23.349 23.349 0 0 0-1.876-24.26zM13.558 48.56C17.79 51.466 22.783 53 28 53c5.224 0 10.22-1.535 14.451-4.44l-.547-.74c-4.07 2.794-8.878 4.27-13.904 4.27-5.02 0-9.825-1.476-13.894-4.27l-.548.74zM14.415 8.692l.514.762c8.019-5.031 18.358-4.927 26.226.053l.518-.76c-8.348-5.284-19.095-5.178-27.258-.055z" fill="#CC9D6E" stroke="#CC9D6E" stroke-width=".4"/>
</svg>
