<svg width="55" height="55" viewBox="0 0 55 55" fill="none" xmlns="http://www.w3.org/2000/svg">
    <path d="M5.847 27.698a2.629 2.629 0 0 0 2.625 2.626h6.384a2.629 2.629 0 0 0 2.625-2.626v-5.996a2.628 2.628 0 0 0-2.625-2.626H8.472a2.628 2.628 0 0 0-2.625 2.626v5.996zm1.465-5.996c0-.64.52-1.16 1.16-1.16h6.384c.64 0 1.16.52 1.16 1.16v5.996c0 .64-.52 1.161-1.16 1.161H8.472c-.64 0-1.16-.52-1.16-1.16v-5.997zM18.612 21.702v5.996a2.629 2.629 0 0 0 2.625 2.626h6.384a2.629 2.629 0 0 0 2.625-2.626v-5.996a2.628 2.628 0 0 0-2.625-2.626h-6.384a2.628 2.628 0 0 0-2.625 2.626zm10.17 0v5.996c0 .64-.521 1.161-1.161 1.161h-6.384c-.64 0-1.16-.52-1.16-1.16v-5.997c0-.64.52-1.16 1.16-1.16h6.384c.64 0 1.16.52 1.16 1.16zM5.878 36.45a2.99 2.99 0 0 0 2.987 2.986 2.99 2.99 0 0 0 2.987-2.986 2.99 2.99 0 0 0-2.987-2.988 2.99 2.99 0 0 0-2.987 2.987zm4.51 0c0 .839-.684 1.522-1.523 1.522-.84 0-1.522-.683-1.522-1.523 0-.839.683-1.522 1.522-1.522.84 0 1.522.683 1.522 1.523zM27.228 33.462a2.99 2.99 0 0 0-2.987 2.987 2.99 2.99 0 0 0 2.987 2.988 2.99 2.99 0 0 0 2.987-2.987 2.99 2.99 0 0 0-2.987-2.988zm0 4.51c-.84 0-1.522-.683-1.522-1.523 0-.839.683-1.522 1.522-1.522.84 0 1.522.683 1.522 1.523 0 .839-.683 1.522-1.522 1.522zM30.14 16.775c0-.964-.784-1.749-1.749-1.749-.964 0-1.749.785-1.749 1.75 0 .964.785 1.748 1.75 1.748.964 0 1.748-.784 1.748-1.749zm-2.033 0a.285.285 0 1 1 .57 0 .285.285 0 0 1-.57 0zM9.45 16.775c0-.964-.784-1.749-1.748-1.749-.965 0-1.75.785-1.75 1.75 0 .964.785 1.748 1.75 1.748.964 0 1.749-.784 1.749-1.749zm-2.033 0a.285.285 0 1 1 .57 0 .285.285 0 0 1-.57 0zM20.842 15.026H15.25a1.843 1.843 0 0 0-1.84 1.841c0 1.015.825 1.841 1.84 1.841h5.592a1.843 1.843 0 0 0 1.842-1.84 1.843 1.843 0 0 0-1.842-1.842zm0 2.218H15.25a.377.377 0 0 1 0-.753h5.592a.377.377 0 0 1 0 .753zM22.578 32.302h-9.063a.732.732 0 1 0 0 1.465h9.063a.732.732 0 1 0 0-1.465zM22.578 34.472h-9.063a.732.732 0 1 0 0 1.465h9.063a.732.732 0 0 0 0-1.465z" fill="#CC9D6E"/>
    <path d="M51.268 3H36.54a2.851 2.851 0 0 0-2.848 2.848v.055a2.851 2.851 0 0 0 2.848 2.849H38.7v4.732h-.537A2.519 2.519 0 0 0 35.646 16v2.928a2.519 2.519 0 0 0 2.516 2.516h7.864a2.519 2.519 0 0 0 2.516-2.515V16a2.519 2.519 0 0 0-2.516-2.515h-.537V8.752h5.046v33.735h-11.92a.732.732 0 1 0 0 1.465h11.92v7.583H34.093v-7.583h1.592a.732.732 0 0 0 0-1.465H33.36a.732.732 0 0 0-.732.732v6.563l-3.54-5.484a4.653 4.653 0 0 0 3.41-4.477V17.604a4.65 4.65 0 0 0-4.645-4.645h-1.941l-.185-1.365a1.811 1.811 0 0 0-1.79-1.563H12.156c-.9 0-1.669.672-1.788 1.563l-.186 1.365H8.24a4.65 4.65 0 0 0-4.645 4.645v4.906a.732.732 0 1 0 1.465 0v-4.906a3.184 3.184 0 0 1 3.18-3.18h19.613a3.184 3.184 0 0 1 3.18 3.18V39.82a3.184 3.184 0 0 1-3.18 3.18H23.45l-.391-2.296a2.135 2.135 0 0 0-2.11-1.782h-5.804a2.137 2.137 0 0 0-2.112 1.782L12.643 43H8.24a3.184 3.184 0 0 1-3.18-3.18V25.44a.732.732 0 1 0-1.465 0v14.38a4.653 4.653 0 0 0 3.41 4.477L2.116 51.87A.732.732 0 0 0 2.732 53h5.639a.733.733 0 0 0 .688-.482l.627-1.721h16.72l.628 1.721c.105.29.38.482.688.482h23.546a.732.732 0 0 0 .732-.732V3.732A.732.732 0 0 0 51.268 3zm-39.45 8.79a.341.341 0 0 1 .338-.294h11.781c.17 0 .315.126.338.295l.159 1.168H11.66l.158-1.169zM24.1 44.466l.68 1.867H11.314l.68-1.867H24.1zm-9.622-3.515a.675.675 0 0 1 .668-.563h5.803c.331 0 .611.237.667.563l.349 2.05h-7.835l.348-2.05zM7.858 51.535H4.077l4.562-7.07h1.796l-2.577 7.07zm2.362-2.203.56-1.534h14.534l.559 1.534H10.22zm18.015 2.203-2.577-7.07h1.796l4.562 7.07h-3.781zm6.923-45.632v-.055c0-.763.62-1.383 1.383-1.383h13.994v2.822H36.541c-.763 0-1.383-.62-1.383-1.384zM47.078 16v2.928c0 .58-.472 1.051-1.052 1.051h-7.864c-.58 0-1.051-.471-1.051-1.05V16c0-.58.471-1.05 1.05-1.05h7.865c.58 0 1.051.47 1.051 1.05zm-3.053-2.515h-3.861V8.752h3.86v4.732z" fill="#CC9D6E"/>
</svg>
